<svg width="16" height="20" viewBox="0 0 16 20" fill="none" xmlns="http://www.w3.org/2000/svg">
<path d="M7.93098 6.98197L6.27698 8.46597C6.49562 9.21433 6.80103 9.93455 7.18698 10.612C7.58956 11.2844 8.07465 11.9039 8.63098 12.456L10.773 11.796C11.973 11.426 13.283 11.806 14.081 12.756L15.301 14.208C15.7949 14.7909 16.0426 15.5432 15.9914 16.3055C15.9403 17.0678 15.5944 17.7803 15.027 18.292C13.037 20.108 9.97298 20.722 7.67898 18.92C5.66192 17.3334 3.95586 15.3873 2.64698 13.18C1.33477 10.9835 0.456224 8.55556 0.0589809 6.02797C-0.381019 3.18397 1.70098 0.907968 4.29698 0.131968C5.84498 -0.332032 7.49698 0.463968 8.06498 1.94797L8.73498 3.69797C9.17498 4.84997 8.85898 6.14997 7.93098 6.98197Z" fill="#143F6B"/>
</svg>
