<svg width="46" height="46" viewBox="0 0 46 46" fill="none" xmlns="http://www.w3.org/2000/svg">
<circle cx="23" cy="23" r="23" fill="#143F6B"/>
<path d="M22.1222 16.102C21.9742 15.6992 21.6778 15.3683 21.2936 15.1772C20.9094 14.986 20.4667 14.9491 20.0562 15.074C18.1102 15.674 16.7502 17.344 17.0422 19.276C17.3708 21.4198 18.0972 23.4832 19.1842 25.36C20.2611 27.2318 21.6733 28.8894 23.3502 30.25C24.8582 31.47 26.9742 31.134 28.4662 29.734C28.78 29.4394 28.9704 29.0368 28.999 28.6073C29.0276 28.1779 28.8922 27.7536 28.6202 27.42L27.5522 26.114C27.3383 25.8514 27.0504 25.6591 26.7258 25.5621C26.4013 25.4651 26.0551 25.4679 25.7322 25.57L23.2682 26.35L22.8382 25.906C22.2966 25.3439 21.8227 24.7203 21.4262 24.048C21.0421 23.3676 20.7426 22.643 20.5342 21.89L20.3682 21.3L22.2682 19.55C22.5196 19.3177 22.6959 19.0156 22.7747 18.6825C22.8534 18.3493 22.8309 18.0003 22.7102 17.68L22.1222 16.102ZM19.4682 13.162C20.3665 12.8872 21.3359 12.9663 22.1778 13.3831C23.0196 13.7999 23.6702 14.523 23.9962 15.404L24.5822 16.98C24.8415 17.6723 24.8887 18.4261 24.7177 19.1453C24.5467 19.8645 24.1653 20.5165 23.6222 21.018L22.6422 21.92C22.7682 22.268 22.9382 22.666 23.1582 23.052C23.3782 23.432 23.6342 23.778 23.8682 24.06L25.1282 23.66C25.8326 23.4376 26.5876 23.4317 27.2954 23.6432C28.0031 23.8546 28.6312 24.2737 29.0982 24.846L30.1662 26.152C30.7597 26.8778 31.0556 27.8019 30.9939 28.7375C30.9323 29.673 30.5178 30.5503 29.8342 31.192C27.8462 33.058 24.6002 33.832 22.0942 31.804C20.2267 30.2893 18.6538 28.4439 17.4542 26.36C16.2414 24.2668 15.4308 21.9652 15.0642 19.574C14.5842 16.388 16.8702 13.962 19.4682 13.164" fill="#FFFBF5"/>
</svg>
