<svg width="40" height="37" viewBox="0 0 40 37" fill="none" xmlns="http://www.w3.org/2000/svg">
<mask id="path-1-inside-1_2062_13387" fill="white">
<path d="M1.375 1.625V0.21875C1.01033 0.21875 0.660591 0.366908 0.402728 0.630631C0.144866 0.894354 0 1.25204 0 1.625H1.375ZM21.5417 1.625H22.9167C22.9167 1.25204 22.7718 0.894354 22.5139 0.630631C22.2561 0.366908 21.9063 0.21875 21.5417 0.21875V1.625ZM21.5417 12.875V11.4687C21.177 11.4687 20.8273 11.6169 20.5694 11.8806C20.3115 12.1444 20.1667 12.502 20.1667 12.875H21.5417ZM1.375 3.03125H21.5417V0.21875H1.375V3.03125ZM20.1667 1.625V31.625H22.9167V1.625H20.1667ZM2.75 27.875V1.625H0V27.875H2.75ZM21.5417 14.2812H30.7083V11.4687H21.5417V14.2812ZM36.6667 20.375V27.875H39.4167V20.375H36.6667ZM22.9167 31.625V12.875H20.1667V31.625H22.9167ZM32.329 33.2825C32.1162 33.5002 31.8635 33.6729 31.5855 33.7907C31.3074 33.9085 31.0093 33.9692 30.7083 33.9692C30.4073 33.9692 30.1093 33.9085 29.8312 33.7907C29.5531 33.6729 29.3005 33.5002 29.0877 33.2825L27.1443 35.27C28.0898 36.2369 29.3722 36.7801 30.7093 36.7801C32.0463 36.7801 33.3287 36.2369 34.2742 35.27L32.329 33.2825ZM29.0877 29.9675C29.3005 29.7498 29.5531 29.5771 29.8312 29.4593C30.1093 29.3414 30.4073 29.2808 30.7083 29.2808C31.0093 29.2808 31.3074 29.3414 31.5855 29.4593C31.8635 29.5771 32.1162 29.7498 32.329 29.9675L34.2723 27.98C33.3268 27.0131 32.0445 26.4698 30.7074 26.4698C29.3703 26.4698 28.088 27.0131 27.1425 27.98L29.0877 29.9675ZM10.329 33.2825C10.1162 33.5002 9.86353 33.6729 9.58546 33.7907C9.30738 33.9085 9.00933 33.9692 8.70833 33.9692C8.40734 33.9692 8.10929 33.9085 7.83121 33.7907C7.55314 33.6729 7.30048 33.5002 7.08767 33.2825L5.14433 35.27C6.08982 36.2369 7.37216 36.7801 8.70925 36.7801C10.0463 36.7801 11.3287 36.2369 12.2742 35.27L10.329 33.2825ZM7.08767 29.9675C7.30048 29.7498 7.55314 29.5771 7.83121 29.4593C8.10929 29.3414 8.40734 29.2808 8.70833 29.2808C9.00933 29.2808 9.30738 29.3414 9.58546 29.4593C9.86353 29.5771 10.1162 29.7498 10.329 29.9675L12.2723 27.98C11.3268 27.0131 10.0445 26.4698 8.70742 26.4698C7.37032 26.4698 6.08799 27.0131 5.1425 27.98L7.08767 29.9675ZM32.329 29.9675C32.7763 30.425 33 31.0231 33 31.625H35.75C35.75 30.3069 35.2568 28.985 34.2742 27.9781L32.329 29.9675ZM33 31.625C33 32.2269 32.7763 32.825 32.329 33.2825L34.2742 35.27C34.7432 34.792 35.1134 34.2239 35.367 33.5984C35.6206 32.9728 35.7507 32.3022 35.75 31.625H33ZM27.0417 30.2187H21.5417V33.0312H27.0417V30.2187ZM29.0877 33.2825C28.8741 33.0654 28.7048 32.8071 28.5896 32.5226C28.4744 32.2381 28.4156 31.9329 28.4167 31.625H25.6667C25.6667 32.9431 26.1598 34.265 27.1425 35.2719L29.0877 33.2825ZM28.4167 31.625C28.4167 31.0231 28.6403 30.425 29.0877 29.9675L27.1425 27.98C26.6735 28.458 26.3033 29.0261 26.0497 29.6516C25.7961 30.2772 25.6659 30.9478 25.6667 31.625H28.4167ZM7.08767 33.2825C6.87406 33.0654 6.70475 32.8071 6.58956 32.5226C6.47437 32.2381 6.4156 31.9329 6.41667 31.625H3.66667C3.66667 32.9431 4.15983 34.265 5.1425 35.2719L7.08767 33.2825ZM6.41667 31.625C6.41667 31.0231 6.64033 30.425 7.08767 29.9675L5.14433 27.98C4.6753 28.458 4.30329 29.0261 4.04969 29.6516C3.7961 30.2772 3.66593 30.9478 3.66667 31.625H6.41667ZM21.5417 30.2187H12.375V33.0312H21.5417V30.2187ZM10.329 29.9675C10.7763 30.425 11 31.0231 11 31.625H13.75C13.75 30.3069 13.2568 28.985 12.2742 27.9781L10.329 29.9675ZM11 31.625C11 32.2269 10.7763 32.825 10.329 33.2825L12.2723 35.27C12.7414 34.792 13.1134 34.2239 13.367 33.5984C13.6206 32.9728 13.7507 32.3022 13.75 31.625H11ZM36.6667 27.875C36.6667 29.1687 35.64 30.2187 34.375 30.2187V33.0312C35.7121 33.0312 36.9945 32.488 37.94 31.521C38.8855 30.554 39.4167 29.2425 39.4167 27.875H36.6667ZM30.7083 14.2812C32.2886 14.2812 33.8041 14.9233 34.9215 16.0661C36.0389 17.2089 36.6667 18.7588 36.6667 20.375H39.4167C39.4167 18.0129 38.4992 15.7476 36.8661 14.0773C35.2329 12.4071 33.0179 11.4687 30.7083 11.4687V14.2812ZM0 27.875C0 29.2425 0.531174 30.554 1.47667 31.521C2.42217 32.488 3.70453 33.0312 5.04167 33.0312V30.2187C3.77667 30.2187 2.75 29.1687 2.75 27.875H0Z"/>
</mask>
<path d="M1.375 1.625V0.21875C1.01033 0.21875 0.660591 0.366908 0.402728 0.630631C0.144866 0.894354 0 1.25204 0 1.625H1.375ZM21.5417 1.625H22.9167C22.9167 1.25204 22.7718 0.894354 22.5139 0.630631C22.2561 0.366908 21.9063 0.21875 21.5417 0.21875V1.625ZM21.5417 12.875V11.4687C21.177 11.4687 20.8273 11.6169 20.5694 11.8806C20.3115 12.1444 20.1667 12.502 20.1667 12.875H21.5417ZM1.375 3.03125H21.5417V0.21875H1.375V3.03125ZM20.1667 1.625V31.625H22.9167V1.625H20.1667ZM2.75 27.875V1.625H0V27.875H2.75ZM21.5417 14.2812H30.7083V11.4687H21.5417V14.2812ZM36.6667 20.375V27.875H39.4167V20.375H36.6667ZM22.9167 31.625V12.875H20.1667V31.625H22.9167ZM32.329 33.2825C32.1162 33.5002 31.8635 33.6729 31.5855 33.7907C31.3074 33.9085 31.0093 33.9692 30.7083 33.9692C30.4073 33.9692 30.1093 33.9085 29.8312 33.7907C29.5531 33.6729 29.3005 33.5002 29.0877 33.2825L27.1443 35.27C28.0898 36.2369 29.3722 36.7801 30.7093 36.7801C32.0463 36.7801 33.3287 36.2369 34.2742 35.27L32.329 33.2825ZM29.0877 29.9675C29.3005 29.7498 29.5531 29.5771 29.8312 29.4593C30.1093 29.3414 30.4073 29.2808 30.7083 29.2808C31.0093 29.2808 31.3074 29.3414 31.5855 29.4593C31.8635 29.5771 32.1162 29.7498 32.329 29.9675L34.2723 27.98C33.3268 27.0131 32.0445 26.4698 30.7074 26.4698C29.3703 26.4698 28.088 27.0131 27.1425 27.98L29.0877 29.9675ZM10.329 33.2825C10.1162 33.5002 9.86353 33.6729 9.58546 33.7907C9.30738 33.9085 9.00933 33.9692 8.70833 33.9692C8.40734 33.9692 8.10929 33.9085 7.83121 33.7907C7.55314 33.6729 7.30048 33.5002 7.08767 33.2825L5.14433 35.27C6.08982 36.2369 7.37216 36.7801 8.70925 36.7801C10.0463 36.7801 11.3287 36.2369 12.2742 35.27L10.329 33.2825ZM7.08767 29.9675C7.30048 29.7498 7.55314 29.5771 7.83121 29.4593C8.10929 29.3414 8.40734 29.2808 8.70833 29.2808C9.00933 29.2808 9.30738 29.3414 9.58546 29.4593C9.86353 29.5771 10.1162 29.7498 10.329 29.9675L12.2723 27.98C11.3268 27.0131 10.0445 26.4698 8.70742 26.4698C7.37032 26.4698 6.08799 27.0131 5.1425 27.98L7.08767 29.9675ZM32.329 29.9675C32.7763 30.425 33 31.0231 33 31.625H35.75C35.75 30.3069 35.2568 28.985 34.2742 27.9781L32.329 29.9675ZM33 31.625C33 32.2269 32.7763 32.825 32.329 33.2825L34.2742 35.27C34.7432 34.792 35.1134 34.2239 35.367 33.5984C35.6206 32.9728 35.7507 32.3022 35.75 31.625H33ZM27.0417 30.2187H21.5417V33.0312H27.0417V30.2187ZM29.0877 33.2825C28.8741 33.0654 28.7048 32.8071 28.5896 32.5226C28.4744 32.2381 28.4156 31.9329 28.4167 31.625H25.6667C25.6667 32.9431 26.1598 34.265 27.1425 35.2719L29.0877 33.2825ZM28.4167 31.625C28.4167 31.0231 28.6403 30.425 29.0877 29.9675L27.1425 27.98C26.6735 28.458 26.3033 29.0261 26.0497 29.6516C25.7961 30.2772 25.6659 30.9478 25.6667 31.625H28.4167ZM7.08767 33.2825C6.87406 33.0654 6.70475 32.8071 6.58956 32.5226C6.47437 32.2381 6.4156 31.9329 6.41667 31.625H3.66667C3.66667 32.9431 4.15983 34.265 5.1425 35.2719L7.08767 33.2825ZM6.41667 31.625C6.41667 31.0231 6.64033 30.425 7.08767 29.9675L5.14433 27.98C4.6753 28.458 4.30329 29.0261 4.04969 29.6516C3.7961 30.2772 3.66593 30.9478 3.66667 31.625H6.41667ZM21.5417 30.2187H12.375V33.0312H21.5417V30.2187ZM10.329 29.9675C10.7763 30.425 11 31.0231 11 31.625H13.75C13.75 30.3069 13.2568 28.985 12.2742 27.9781L10.329 29.9675ZM11 31.625C11 32.2269 10.7763 32.825 10.329 33.2825L12.2723 35.27C12.7414 34.792 13.1134 34.2239 13.367 33.5984C13.6206 32.9728 13.7507 32.3022 13.75 31.625H11ZM36.6667 27.875C36.6667 29.1687 35.64 30.2187 34.375 30.2187V33.0312C35.7121 33.0312 36.9945 32.488 37.94 31.521C38.8855 30.554 39.4167 29.2425 39.4167 27.875H36.6667ZM30.7083 14.2812C32.2886 14.2812 33.8041 14.9233 34.9215 16.0661C36.0389 17.2089 36.6667 18.7588 36.6667 20.375H39.4167C39.4167 18.0129 38.4992 15.7476 36.8661 14.0773C35.2329 12.4071 33.0179 11.4687 30.7083 11.4687V14.2812ZM0 27.875C0 29.2425 0.531174 30.554 1.47667 31.521C2.42217 32.488 3.70453 33.0312 5.04167 33.0312V30.2187C3.77667 30.2187 2.75 29.1687 2.75 27.875H0Z" fill="black"/>
<path d="M20.1667 31.625V32.125H22.9167V31.625V31.125H20.1667V31.625ZM0 27.875V28.375H2.75V27.875V27.375H0V27.875ZM30.7083 14.2812H31.2083V11.4687H30.7083H30.2083V14.2812H30.7083ZM36.6667 27.875V28.375H39.4167V27.875V27.375H36.6667V27.875ZM39.4167 20.375V19.875H36.6667V20.375V20.875H39.4167V20.375ZM34.2742 35.27L34.6315 34.9203L32.6863 32.9328L32.329 33.2825L31.9717 33.6322L33.9168 35.6197L34.2742 35.27ZM27.1425 27.98L26.7852 28.3297L28.7303 30.3172L29.0877 29.9675L29.445 29.6178L27.4998 27.6303L27.1425 27.98ZM33 31.625V32.125H35.75V31.625V31.125H33V31.625ZM21.5417 30.2187H21.0417V33.0312H21.5417H22.0417V30.2187H21.5417ZM28.4167 31.625V31.125H25.6667V31.625V32.125H28.4167V31.625ZM6.41667 31.625V31.125H3.66667V31.625V32.125H6.41667V31.625ZM11 31.625V32.125H13.75V31.625V31.125H11V31.625ZM1.375 1.625V2.625H2.375V1.625H1.375ZM21.5417 1.625H20.5417V2.625H21.5417V1.625ZM21.5417 12.875V13.875H22.5417V12.875H21.5417ZM1.375 3.03125H0.375V4.03125H1.375V3.03125ZM21.5417 3.03125V4.03125H22.5417V3.03125H21.5417ZM20.1667 1.625V0.625H19.1667V1.625H20.1667ZM2.75 1.625H3.75V0.625H2.75V1.625ZM0 27.875H-1H0ZM21.5417 14.2812H20.5417V15.2812H21.5417V14.2812ZM30.7083 11.4687V10.4687V11.4687ZM22.9167 12.875H23.9167V11.875H22.9167V12.875ZM32.329 33.2825L31.614 32.5834L31.6139 32.5835L32.329 33.2825ZM29.0877 33.2825L29.8028 32.5835L29.8004 32.5811L29.0877 33.2825ZM27.1443 35.27L26.4293 34.5709L25.7457 35.27L26.4293 35.9691L27.1443 35.27ZM30.7093 36.7801L30.7093 37.7801L30.7093 36.7801ZM34.2742 35.27L33.5604 34.5696L33.5592 34.5709L34.2742 35.27ZM29.0877 29.9675L29.8027 30.6666L29.8028 30.6665L29.0877 29.9675ZM32.329 29.9675L31.6139 30.6665L31.614 30.6666L32.329 29.9675ZM34.2723 27.98L34.9873 28.6791L35.6709 27.98L34.9873 27.2809L34.2723 27.98ZM30.7074 26.4698L30.7074 25.4698L30.7074 26.4698ZM27.1425 27.98L27.8563 28.6804L27.8575 28.6791L27.1425 27.98ZM10.329 33.2825L9.61399 32.5834L9.6139 32.5835L10.329 33.2825ZM7.08767 33.2825L7.80277 32.5835L7.80043 32.5811L7.08767 33.2825ZM5.14433 35.27L4.42933 34.5709L3.74573 35.27L4.42934 35.9691L5.14433 35.27ZM8.70925 36.7801L8.70925 37.7801L8.70925 36.7801ZM12.2742 35.27L12.9892 35.9691L13.6731 35.2697L12.9888 34.5705L12.2742 35.27ZM7.08767 29.9675L7.80267 30.6666L7.80277 30.6665L7.08767 29.9675ZM10.329 29.9675L9.6139 30.6665L9.61399 30.6666L10.329 29.9675ZM12.2723 27.98L12.9873 28.6791L13.6709 27.98L12.9873 27.2809L12.2723 27.98ZM8.70742 26.4698L8.70742 25.4698L8.70742 26.4698ZM5.1425 27.98L4.42751 27.2809L3.74357 27.9803L4.42782 28.6794L5.1425 27.98ZM35.75 31.625L34.75 31.625L34.75 31.6261L35.75 31.625ZM34.2742 27.9781L34.9898 27.2797L34.2748 26.5471L33.5592 27.279L34.2742 27.9781ZM27.0417 30.2187H28.0417V29.2187H27.0417V30.2187ZM27.0417 33.0312V34.0312H28.0417V33.0312H27.0417ZM28.4167 31.625L29.4167 31.6284V31.625H28.4167ZM25.6667 31.625L26.6667 31.625L26.6667 31.6239L25.6667 31.625ZM27.1425 35.2719L26.4268 35.9703L27.1418 36.7029L27.8575 35.971L27.1425 35.2719ZM6.41667 31.625L7.41667 31.6284V31.625H6.41667ZM3.66667 31.625L4.66667 31.625L4.66667 31.6239L3.66667 31.625ZM5.1425 35.2719L4.42684 35.9703L5.14183 36.7029L5.85751 35.971L5.1425 35.2719ZM5.14433 27.98L5.85934 27.2809L5.14561 26.5509L4.43058 27.2796L5.14433 27.98ZM12.375 30.2187V29.2187H11.375V30.2187H12.375ZM12.375 33.0312H11.375V34.0312H12.375V33.0312ZM13.75 31.625L12.75 31.625L12.75 31.6261L13.75 31.625ZM12.2742 27.9781L12.9898 27.2797L12.2748 26.5471L11.5592 27.279L12.2742 27.9781ZM12.2723 35.27L11.5573 35.9691L12.2711 36.6991L12.9861 35.9704L12.2723 35.27ZM34.375 30.2187V29.2187H33.375V30.2187H34.375ZM34.375 33.0312H33.375V34.0312H34.375V33.0312ZM5.04167 33.0312V34.0312H6.04167V33.0312H5.04167ZM5.04167 30.2187H6.04167V29.2187H5.04167V30.2187ZM1.375 1.625H2.375V0.21875H1.375H0.375V1.625H1.375ZM1.375 0.21875V-0.78125C0.737767 -0.78125 0.131301 -0.522147 -0.312278 -0.068487L0.402728 0.630631L1.11773 1.32975C1.18988 1.25596 1.28289 1.21875 1.375 1.21875V0.21875ZM0.402728 0.630631L-0.312278 -0.068487C-0.755111 0.38441 -1 0.993983 -1 1.625H0H1C1 1.51009 1.04484 1.4043 1.11773 1.32975L0.402728 0.630631ZM0 1.625V2.625H1.375V1.625V0.625H0V1.625ZM21.5417 1.625V2.625H22.9167V1.625V0.625H21.5417V1.625ZM22.9167 1.625H23.9167C23.9167 0.993982 23.6718 0.384409 23.2289 -0.068487L22.5139 0.630631L21.7989 1.32975C21.8718 1.4043 21.9167 1.5101 21.9167 1.625H22.9167ZM22.5139 0.630631L23.2289 -0.068487C22.7854 -0.522147 22.1789 -0.78125 21.5417 -0.78125V0.21875V1.21875C21.6338 1.21875 21.7268 1.25596 21.7989 1.32975L22.5139 0.630631ZM21.5417 0.21875H20.5417V1.625H21.5417H22.5417V0.21875H21.5417ZM21.5417 12.875H22.5417V11.4687H21.5417H20.5417V12.875H21.5417ZM21.5417 11.4687V10.4687C20.9044 10.4687 20.298 10.7279 19.8544 11.1815L20.5694 11.8806L21.2844 12.5797C21.3566 12.506 21.4496 12.4687 21.5417 12.4687V11.4687ZM20.5694 11.8806L19.8544 11.1815C19.4116 11.6344 19.1667 12.244 19.1667 12.875H20.1667H21.1667C21.1667 12.7601 21.2115 12.6543 21.2844 12.5797L20.5694 11.8806ZM20.1667 12.875V13.875H21.5417V12.875V11.875H20.1667V12.875ZM1.375 3.03125V4.03125H21.5417V3.03125V2.03125H1.375V3.03125ZM21.5417 3.03125H22.5417V0.21875H21.5417H20.5417V3.03125H21.5417ZM21.5417 0.21875V-0.78125H1.375V0.21875V1.21875H21.5417V0.21875ZM1.375 0.21875H0.375V3.03125H1.375H2.375V0.21875H1.375ZM20.1667 1.625H19.1667V31.625H20.1667H21.1667V1.625H20.1667ZM22.9167 31.625H23.9167V1.625H22.9167H21.9167V31.625H22.9167ZM22.9167 1.625V0.625H20.1667V1.625V2.625H22.9167V1.625ZM2.75 27.875H3.75V1.625H2.75H1.75V27.875H2.75ZM2.75 1.625V0.625H0V1.625V2.625H2.75V1.625ZM0 1.625H-1V27.875H0H1V1.625H0ZM21.5417 14.2812V15.2812H30.7083V14.2812V13.2812H21.5417V14.2812ZM30.7083 11.4687V10.4687H21.5417V11.4687V12.4687H30.7083V11.4687ZM21.5417 11.4687H20.5417V14.2812H21.5417H22.5417V11.4687H21.5417ZM36.6667 20.375H35.6667V27.875H36.6667H37.6667V20.375H36.6667ZM39.4167 27.875H40.4167V20.375H39.4167H38.4167V27.875H39.4167ZM22.9167 31.625H23.9167V12.875H22.9167H21.9167V31.625H22.9167ZM22.9167 12.875V11.875H20.1667V12.875V13.875H22.9167V12.875ZM20.1667 12.875H19.1667V31.625H20.1667H21.1667V12.875H20.1667ZM32.329 33.2825L31.6139 32.5835C31.4929 32.7072 31.3505 32.8042 31.1953 32.8699L31.5855 33.7907L31.9756 34.7115C32.3766 34.5416 32.7395 34.2931 33.0441 33.9815L32.329 33.2825ZM31.5855 33.7907L31.1953 32.8699C31.0402 32.9357 30.8748 32.9692 30.7083 32.9692V33.9692V34.9692C31.1438 34.9692 31.5745 34.8814 31.9756 34.7115L31.5855 33.7907ZM30.7083 33.9692V32.9692C30.5418 32.9692 30.3764 32.9357 30.2213 32.8699L29.8312 33.7907L29.4411 34.7115C29.8422 34.8814 30.2728 34.9692 30.7083 34.9692V33.9692ZM29.8312 33.7907L30.2213 32.8699C30.0662 32.8042 29.9238 32.7072 29.8028 32.5835L29.0877 33.2825L28.3726 33.9815C28.6772 34.2931 29.0401 34.5416 29.4411 34.7115L29.8312 33.7907ZM29.0877 33.2825L28.3727 32.5834L26.4293 34.5709L27.1443 35.27L27.8593 35.9691L29.8027 33.9816L29.0877 33.2825ZM27.1443 35.27L26.4293 35.9691C27.5606 37.126 29.0996 37.7801 30.7093 37.7801V36.7801V35.7801C29.6447 35.7801 28.6191 35.3479 27.8593 34.5709L27.1443 35.27ZM30.7093 36.7801L30.7093 37.7801C32.3189 37.7801 33.858 37.126 34.9892 35.9691L34.2742 35.27L33.5592 34.5709C32.7994 35.3479 31.7738 35.7801 30.7093 35.7801L30.7093 36.7801ZM29.0877 29.9675L29.8028 30.6665C29.9238 30.5427 30.0662 30.4458 30.2213 30.38L29.8312 29.4593L29.4411 28.5385C29.0401 28.7084 28.6772 28.9568 28.3726 29.2685L29.0877 29.9675ZM29.8312 29.4593L30.2213 30.38C30.3764 30.3143 30.5418 30.2808 30.7083 30.2808V29.2808V28.2808C30.2728 28.2808 29.8422 28.3686 29.4411 28.5385L29.8312 29.4593ZM30.7083 29.2808V30.2808C30.8748 30.2808 31.0402 30.3143 31.1953 30.38L31.5855 29.4593L31.9756 28.5385C31.5745 28.3686 31.1438 28.2808 30.7083 28.2808V29.2808ZM31.5855 29.4593L31.1953 30.38C31.3505 30.4458 31.4929 30.5427 31.6139 30.6665L32.329 29.9675L33.0441 29.2685C32.7395 28.9568 32.3766 28.7084 31.9756 28.5385L31.5855 29.4593ZM32.329 29.9675L33.044 30.6666L34.9873 28.6791L34.2723 27.98L33.5573 27.2809L31.614 29.2684L32.329 29.9675ZM34.2723 27.98L34.9873 27.2809C33.8561 26.124 32.3171 25.4698 30.7074 25.4698L30.7074 26.4698L30.7074 27.4698C31.772 27.4698 32.7976 27.9021 33.5573 28.6791L34.2723 27.98ZM30.7074 26.4698L30.7074 25.4698C29.0978 25.4698 27.5587 26.124 26.4275 27.2809L27.1425 27.98L27.8575 28.6791C28.6173 27.9021 29.6429 27.4698 30.7074 27.4698L30.7074 26.4698ZM10.329 33.2825L9.6139 32.5835C9.4929 32.7072 9.35047 32.8042 9.19533 32.8699L9.58546 33.7907L9.97559 34.7115C10.3766 34.5416 10.7395 34.2931 11.0441 33.9815L10.329 33.2825ZM9.58546 33.7907L9.19533 32.8699C9.04024 32.9357 8.87483 32.9692 8.70833 32.9692V33.9692V34.9692C9.14384 34.9692 9.57452 34.8814 9.97559 34.7115L9.58546 33.7907ZM8.70833 33.9692V32.9692C8.54184 32.9692 8.37643 32.9357 8.22134 32.8699L7.83121 33.7907L7.44108 34.7115C7.84215 34.8814 8.27283 34.9692 8.70833 34.9692V33.9692ZM7.83121 33.7907L8.22134 32.8699C8.0662 32.8042 7.92377 32.7072 7.80277 32.5835L7.08767 33.2825L6.37257 33.9815C6.67719 34.2931 7.04007 34.5416 7.44108 34.7115L7.83121 33.7907ZM7.08767 33.2825L6.37266 32.5834L4.42933 34.5709L5.14433 35.27L5.85934 35.9691L7.80267 33.9816L7.08767 33.2825ZM5.14433 35.27L4.42934 35.9691C5.56055 37.126 7.09961 37.7801 8.70925 37.7801L8.70925 36.7801L8.70925 35.7801C7.64471 35.7801 6.6191 35.3479 5.85933 34.5709L5.14433 35.27ZM8.70925 36.7801L8.70925 37.7801C10.3189 37.7801 11.858 37.126 12.9892 35.9691L12.2742 35.27L11.5592 34.5709C10.7994 35.3479 9.77379 35.7801 8.70925 35.7801L8.70925 36.7801ZM12.2742 35.27L12.9888 34.5705L11.0437 32.583L10.329 33.2825L9.61432 33.9819L11.5595 35.9694L12.2742 35.27ZM7.08767 29.9675L7.80277 30.6665C7.92377 30.5427 8.0662 30.4458 8.22134 30.38L7.83121 29.4593L7.44108 28.5385C7.04007 28.7084 6.67719 28.9568 6.37257 29.2685L7.08767 29.9675ZM7.83121 29.4593L8.22134 30.38C8.37643 30.3143 8.54184 30.2808 8.70833 30.2808V29.2808V28.2808C8.27283 28.2808 7.84215 28.3686 7.44108 28.5385L7.83121 29.4593ZM8.70833 29.2808V30.2808C8.87483 30.2808 9.04024 30.3143 9.19533 30.38L9.58546 29.4593L9.97559 28.5385C9.57452 28.3686 9.14384 28.2808 8.70833 28.2808V29.2808ZM9.58546 29.4593L9.19533 30.38C9.35047 30.4458 9.4929 30.5427 9.6139 30.6665L10.329 29.9675L11.0441 29.2685C10.7395 28.9568 10.3766 28.7084 9.97559 28.5385L9.58546 29.4593ZM10.329 29.9675L11.044 30.6666L12.9873 28.6791L12.2723 27.98L11.5573 27.2809L9.61399 29.2684L10.329 29.9675ZM12.2723 27.98L12.9873 27.2809C11.8561 26.124 10.3171 25.4698 8.70742 25.4698L8.70742 26.4698L8.70742 27.4698C9.77196 27.4698 10.7976 27.9021 11.5573 28.6791L12.2723 27.98ZM8.70742 26.4698L8.70742 25.4698C7.09777 25.4698 5.55871 26.124 4.42751 27.2809L5.1425 27.98L5.85749 28.6791C6.61727 27.9021 7.64288 27.4698 8.70742 27.4698L8.70742 26.4698ZM5.1425 27.98L4.42782 28.6794L6.37299 30.6669L7.08767 29.9675L7.80234 29.268L5.85718 27.2805L5.1425 27.98ZM32.329 29.9675L31.614 30.6666C31.8692 30.9276 32 31.2706 32 31.625H33H34C34 30.7756 33.6835 29.9224 33.044 29.2684L32.329 29.9675ZM35.75 31.625H36.75C36.75 30.0594 36.1641 28.4828 34.9898 27.2797L34.2742 27.9781L33.5585 28.6766C34.3496 29.4872 34.75 30.5543 34.75 31.625H35.75ZM34.2742 27.9781L33.5592 27.279L31.614 29.2684L32.329 29.9675L33.044 30.6666L34.9892 28.6772L34.2742 27.9781ZM33 31.625H32C32 31.9793 31.8692 32.3224 31.614 32.5834L32.329 33.2825L33.044 33.9816C33.6835 33.3276 34 32.4744 34 31.625H33ZM34.2742 35.27L34.9879 35.9704C35.5503 35.3973 35.992 34.7183 36.2937 33.9741L35.367 33.5984L34.4402 33.2227C34.2347 33.7295 33.9361 34.1868 33.5604 34.5696L34.2742 35.27ZM35.367 33.5984L36.2937 33.9741C36.596 33.2284 36.7509 32.4298 36.75 31.6239L35.75 31.625L34.75 31.6261C34.7506 32.1745 34.6451 32.7172 34.4402 33.2227L35.367 33.5984ZM27.0417 30.2187V29.2187H21.5417V30.2187V31.2187H27.0417V30.2187ZM21.5417 33.0312V34.0312H27.0417V33.0312V32.0312H21.5417V33.0312ZM27.0417 33.0312H28.0417V30.2187H27.0417H26.0417V33.0312H27.0417ZM29.0877 33.2825L29.8004 32.5811C29.6797 32.4584 29.5828 32.3112 29.5165 32.1473L28.5896 32.5226L27.6626 32.8978C27.8267 33.3031 28.0684 33.6725 28.3749 33.9839L29.0877 33.2825ZM28.5896 32.5226L29.5165 32.1473C29.4502 31.9835 29.416 31.8071 29.4167 31.6284L28.4167 31.625L27.4167 31.6215C27.4152 32.0588 27.4986 32.4926 27.6626 32.8978L28.5896 32.5226ZM25.6667 31.625H24.6667C24.6667 33.1905 25.2526 34.7672 26.4268 35.9703L27.1425 35.2719L27.8582 34.5734C27.0671 33.7628 26.6667 32.6957 26.6667 31.625H25.6667ZM27.1425 35.2719L27.8575 35.971L29.8027 33.9816L29.0877 33.2825L28.3727 32.5834L26.4275 34.5727L27.1425 35.2719ZM28.4167 31.625H29.4167C29.4167 31.2706 29.5475 30.9276 29.8027 30.6666L29.0877 29.9675L28.3727 29.2684C27.7332 29.9224 27.4167 30.7756 27.4167 31.625H28.4167ZM27.1425 27.98L26.4288 27.2796C25.8664 27.8527 25.4247 28.5317 25.123 29.2759L26.0497 29.6516L26.9764 30.0273C27.1819 29.5204 27.4806 29.0632 27.8563 28.6804L27.1425 27.98ZM26.0497 29.6516L25.123 29.2759C24.8207 30.0216 24.6658 30.8202 24.6667 31.6261L25.6667 31.625L26.6667 31.6239C26.6661 31.0754 26.7715 30.5328 26.9764 30.0273L26.0497 29.6516ZM7.08767 33.2825L7.80043 32.5811C7.67969 32.4584 7.5828 32.3112 7.51649 32.1473L6.58956 32.5226L5.66264 32.8978C5.8267 33.3031 6.06844 33.6725 6.37491 33.9839L7.08767 33.2825ZM6.58956 32.5226L7.51649 32.1473C7.45016 31.9835 7.41605 31.8071 7.41666 31.6284L6.41667 31.625L5.41667 31.6215C5.41516 32.0588 5.49859 32.4926 5.66264 32.8978L6.58956 32.5226ZM3.66667 31.625H2.66667C2.66667 33.1905 3.25261 34.7672 4.42684 35.9703L5.1425 35.2719L5.85816 34.5734C5.06706 33.7628 4.66667 32.6957 4.66667 31.625H3.66667ZM5.1425 35.2719L5.85751 35.971L7.80267 33.9816L7.08767 33.2825L6.37266 32.5834L4.42749 34.5727L5.1425 35.2719ZM6.41667 31.625H7.41667C7.41667 31.2706 7.54747 30.9276 7.80267 30.6666L7.08767 29.9675L6.37266 29.2684C5.7332 29.9224 5.41667 30.7756 5.41667 31.625H6.41667ZM7.08767 29.9675L7.80267 29.2684L5.85934 27.2809L5.14433 27.98L4.42933 28.6791L6.37266 30.6666L7.08767 29.9675ZM5.14433 27.98L4.43058 27.2796C3.86927 27.8516 3.42524 28.5303 3.12295 29.2759L4.04969 29.6516L4.97643 30.0273C5.18133 29.5219 5.48133 29.0643 5.85809 28.6804L5.14433 27.98ZM4.04969 29.6516L3.12295 29.2759C2.82067 30.0216 2.66579 30.8202 2.66667 31.6261L3.66667 31.625L4.66667 31.6239C4.66607 31.0754 4.77152 30.5328 4.97643 30.0273L4.04969 29.6516ZM21.5417 30.2187V29.2187H12.375V30.2187V31.2187H21.5417V30.2187ZM12.375 30.2187H11.375V33.0312H12.375H13.375V30.2187H12.375ZM12.375 33.0312V34.0312H21.5417V33.0312V32.0312H12.375V33.0312ZM10.329 29.9675L9.61399 30.6666C9.8692 30.9276 10 31.2706 10 31.625H11H12C12 30.7756 11.6835 29.9224 11.044 29.2684L10.329 29.9675ZM13.75 31.625H14.75C14.75 30.0594 14.1641 28.4828 12.9898 27.2797L12.2742 27.9781L11.5585 28.6766C12.3496 29.4872 12.75 30.5543 12.75 31.625H13.75ZM12.2742 27.9781L11.5592 27.279L9.614 29.2684L10.329 29.9675L11.044 30.6666L12.9892 28.6772L12.2742 27.9781ZM11 31.625H10C10 31.9793 9.8692 32.3224 9.61399 32.5834L10.329 33.2825L11.044 33.9816C11.6835 33.3276 12 32.4744 12 31.625H11ZM10.329 33.2825L9.61399 33.9816L11.5573 35.9691L12.2723 35.27L12.9873 34.5709L11.044 32.5834L10.329 33.2825ZM12.2723 35.27L12.9861 35.9704C13.5474 35.3984 13.9914 34.7197 14.2937 33.9741L13.367 33.5984L12.4402 33.2227C12.2353 33.7281 11.9353 34.1856 11.5586 34.5696L12.2723 35.27ZM13.367 33.5984L14.2937 33.9741C14.596 33.2284 14.7509 32.4298 14.75 31.6239L13.75 31.625L12.75 31.6261C12.7506 32.1745 12.6451 32.7172 12.4402 33.2227L13.367 33.5984ZM36.6667 27.875H35.6667C35.6667 28.6378 35.0667 29.2187 34.375 29.2187V30.2187V31.2187C36.2134 31.2187 37.6667 29.6997 37.6667 27.875H36.6667ZM34.375 30.2187H33.375V33.0312H34.375H35.375V30.2187H34.375ZM34.375 33.0312V34.0312C35.9847 34.0312 37.5238 33.377 38.655 32.2201L37.94 31.521L37.225 30.8219C36.4652 31.5989 35.4396 32.0312 34.375 32.0312V33.0312ZM37.94 31.521L38.655 32.2201C39.7855 31.064 40.4167 29.5006 40.4167 27.875H39.4167H38.4167C38.4167 28.9845 37.9855 30.0441 37.225 30.8219L37.94 31.521ZM30.7083 14.2812V15.2812C32.016 15.2812 33.2748 15.8123 34.2065 16.7652L34.9215 16.0661L35.6365 15.3669C34.3334 14.0342 32.5611 13.2812 30.7083 13.2812V14.2812ZM34.9215 16.0661L34.2065 16.7652C35.1389 17.7188 35.6667 19.0169 35.6667 20.375H36.6667H37.6667C37.6667 18.5008 36.9389 16.6989 35.6365 15.3669L34.9215 16.0661ZM39.4167 20.375H40.4167C40.4167 17.7549 39.3992 15.2376 37.5811 13.3782L36.8661 14.0773L36.1511 14.7764C37.5992 16.2575 38.4167 18.271 38.4167 20.375H39.4167ZM36.8661 14.0773L37.5811 13.3782C35.7622 11.518 33.2905 10.4687 30.7083 10.4687V11.4687V12.4687C32.7454 12.4687 34.7036 13.2961 36.1511 14.7764L36.8661 14.0773ZM0 27.875H-1C-1 29.5006 -0.368803 31.064 0.761664 32.2201L1.47667 31.521L2.19168 30.8219C1.43115 30.0441 1 28.9845 1 27.875H0ZM1.47667 31.521L0.761664 32.2201C1.89288 33.377 3.43197 34.0312 5.04167 34.0312V33.0312V32.0312C3.97709 32.0312 2.95146 31.5989 2.19168 30.8219L1.47667 31.521ZM5.04167 33.0312H6.04167V30.2187H5.04167H4.04167V33.0312H5.04167ZM5.04167 30.2187V29.2187C4.35002 29.2187 3.75 28.6378 3.75 27.875H2.75H1.75C1.75 29.6997 3.20332 31.2187 5.04167 31.2187V30.2187Z" fill="black" mask="url(#path-1-inside-1_2062_13387)"/>
<path d="M1.375 11H6.875M1.375 18.5H10.5417" stroke="black" stroke-width="1.5" stroke-linecap="round" stroke-linejoin="round"/>
</svg>
