<svg width="46" height="45" viewBox="0 0 46 45" fill="none" xmlns="http://www.w3.org/2000/svg">
<path d="M23 32.625C21.8687 32.6252 20.7788 32.1993 19.9474 31.4321C19.1159 30.6649 18.604 29.6127 18.5135 28.485C15.5124 27.4227 12.9831 25.3344 11.3721 22.5886C9.76099 19.8428 9.17177 16.6161 9.70841 13.4781C10.245 10.3401 11.873 7.4926 14.305 5.43821C16.7369 3.38381 19.8165 2.25464 23 2.25C26.386 2.24951 29.6486 3.52145 32.1408 5.81361C34.633 8.10576 36.1728 11.2508 36.455 14.625C36.4644 14.7714 36.4433 14.9181 36.3929 15.0558C36.3426 15.1936 36.2641 15.3193 36.1625 15.4251C36.061 15.5309 35.9385 15.6145 35.8029 15.6704C35.6673 15.7263 35.5216 15.7534 35.375 15.75C35.0736 15.7424 34.7858 15.6231 34.5675 15.4152C34.3492 15.2073 34.216 14.9256 34.1937 14.625C33.9934 12.6356 33.2664 10.7356 32.0877 9.12053C30.909 7.50547 29.3212 6.23371 27.4877 5.43619C25.6542 4.63868 23.6413 4.34422 21.6562 4.58312C19.671 4.82203 17.7855 5.58568 16.1935 6.79545C14.6016 8.00521 13.3609 9.61739 12.599 11.466C11.8372 13.3146 11.5818 15.3329 11.8591 17.313C12.1365 19.2931 12.9365 21.1635 14.1769 22.7317C15.4173 24.2999 17.0532 25.5091 18.9162 26.235C19.2552 25.5025 19.785 24.8747 20.45 24.4173C21.115 23.9599 21.8908 23.6898 22.6961 23.6353C23.5014 23.5807 24.3065 23.7438 25.0271 24.1074C25.7477 24.4709 26.3573 25.0216 26.7919 25.7017C27.2265 26.3818 27.4703 27.1663 27.4975 27.973C27.5248 28.7796 27.3346 29.5788 26.9469 30.2867C26.5592 30.9946 25.9882 31.5851 25.2938 31.9965C24.5994 32.4079 23.8071 32.625 23 32.625ZM11.7702 27H11.975C12.8525 27.8572 13.8267 28.6132 14.882 29.25H11.7702C10.508 29.25 9.5 30.2557 9.5 31.5C9.5 34.4452 10.8995 36.639 13.2642 38.1442C15.6717 39.681 19.0962 40.5 23 40.5C26.9037 40.5 30.3282 39.681 32.7357 38.1442C35.0982 36.6367 36.5 34.4475 36.5 31.5C36.5 30.9033 36.2629 30.331 35.841 29.909C35.419 29.487 34.8467 29.25 34.25 29.25H29.6577C29.7836 28.5053 29.7836 27.7447 29.6577 27H34.25C35.4435 27 36.5881 27.4741 37.432 28.318C38.2759 29.1619 38.75 30.3065 38.75 31.5C38.75 35.3047 36.8757 38.1735 33.9462 40.0432C31.0617 41.8815 27.1737 42.75 23 42.75C18.8262 42.75 14.9382 41.8815 12.0538 40.0432C9.12425 38.1757 7.25 35.3025 7.25 31.5C7.25 28.9957 9.28175 27 11.7702 27ZM32 15.75C32.0005 17.2724 31.6148 18.7701 30.8789 20.1029C30.1431 21.4357 29.0811 22.56 27.7925 23.3707C27.1918 22.7651 26.4818 22.2787 25.7 21.9375C27.1213 21.3172 28.2856 20.2264 28.9973 18.8486C29.7089 17.4708 29.9244 15.89 29.6076 14.3719C29.2908 12.8539 28.4609 11.4912 27.2576 10.5131C26.0542 9.53498 24.5507 9.00102 23 9.00102C21.4493 9.00102 19.9458 9.53498 18.7424 10.5131C17.5391 11.4912 16.7092 12.8539 16.3924 14.3719C16.0755 15.89 16.2911 17.4708 17.0027 18.8486C17.7144 20.2264 18.8787 21.3172 20.3 21.9375C19.5125 22.2817 18.8037 22.77 18.2075 23.3707C16.4984 22.296 15.2004 20.6778 14.522 18.7762C14.1759 17.8048 13.9993 16.7812 14 15.75C14 13.363 14.9482 11.0739 16.636 9.38604C18.3239 7.69821 20.6131 6.75 23 6.75C25.3869 6.75 27.6761 7.69821 29.364 9.38604C31.0518 11.0739 32 13.363 32 15.75Z" fill="#FEB139"/>
</svg>
