<svg width="134" height="166" viewBox="0 0 134 166" fill="none" xmlns="http://www.w3.org/2000/svg">
<path d="M70.3753 69.6135C70.6096 69.5435 70.849 69.4922 71.0914 69.4599L80.7659 49.7487L77.8123 45.3087L83.9122 39.9633L91.5805 49.3723L75.963 72.163C76.3472 73.0249 76.4606 73.9837 76.2882 74.9119C76.1157 75.84 75.6655 76.6935 74.9975 77.3589C74.3295 78.0242 73.4753 78.4699 72.5485 78.6367C71.6217 78.8034 70.6663 78.6832 69.8092 78.2922C68.9522 77.9012 68.2342 77.2578 67.7507 76.4476C67.2673 75.6375 67.0412 74.6989 67.1027 73.7568C67.1641 72.8147 67.5102 71.9137 68.0948 71.1735C68.6794 70.4334 69.4748 69.8893 70.3753 69.6135Z" fill="#A0616A"/>
<path d="M86.8905 42.6866C86.7587 42.8259 86.6075 42.9454 86.4416 43.0414L76.543 48.7952C76.3051 48.9335 76.0412 49.0209 75.7679 49.0517C75.4946 49.0825 75.2179 49.0561 74.9553 48.9741C74.6927 48.8922 74.4499 48.7565 74.2423 48.5757C74.0347 48.3948 73.8668 48.1727 73.7491 47.9235L68.9348 37.7249C68.73 37.2957 68.6859 36.8069 68.8106 36.3479C68.9353 35.8888 69.2204 35.49 69.614 35.2242L75.75 31.0387C76.1332 30.7776 76.5952 30.6588 77.0564 30.7028C77.5176 30.7468 77.949 30.9508 78.2762 31.2797L86.8527 39.9096C87.2175 40.2769 87.4255 40.7721 87.4325 41.2904C87.4396 41.8087 87.2452 42.3095 86.8905 42.6866Z" fill="#CCCCCC"/>
<path d="M100.789 155.634L95.5627 157.06L87.5907 137.526L95.3043 135.421L100.789 155.634Z" fill="#A0616A"/>
<path d="M91.4233 156.581L101.502 153.831L103.229 160.195L86.8038 164.676C86.5771 163.84 86.5167 162.968 86.6261 162.109C86.7356 161.25 87.0127 160.421 87.4416 159.669C87.8706 158.918 88.443 158.258 89.1262 157.728C89.8093 157.198 90.5899 156.809 91.4233 156.581Z" fill="#2F2E41"/>
<path d="M56.1107 159.633L50.6949 159.632L48.1179 138.685L56.1116 138.685L56.1107 159.633Z" fill="#A0616A"/>
<path d="M46.8257 158.081H57.2713V164.676H40.2489C40.2489 163.81 40.419 162.952 40.7495 162.152C41.0801 161.352 41.5645 160.625 42.1752 160.013C42.7859 159.4 43.511 158.915 44.3089 158.583C45.1068 158.252 45.9621 158.081 46.8257 158.081Z" fill="#2F2E41"/>
<path d="M61.8176 24.0845C67.8103 24.0845 72.6683 19.2133 72.6683 13.2043C72.6683 7.19541 67.8103 2.32422 61.8176 2.32422C55.8248 2.32422 50.9668 7.19541 50.9668 13.2043C50.9668 19.2133 55.8248 24.0845 61.8176 24.0845Z" fill="#A0616A"/>
<path d="M55.7791 144.697H48.3776C47.8716 144.696 47.3849 144.503 47.0161 144.155C46.6473 143.808 46.424 143.333 46.3915 142.827C44.186 107.671 45.4761 82.453 50.4514 63.4648C50.4731 63.3818 50.5 63.3001 50.5319 63.2204L50.9283 62.2267C51.0748 61.856 51.3292 61.5382 51.6585 61.3146C51.9878 61.0911 52.3766 60.9722 52.7743 60.9735H67.9947C68.2815 60.9733 68.565 61.0354 68.8256 61.1555C69.0862 61.2757 69.3177 61.451 69.5042 61.6695L71.5715 64.0882C71.6118 64.1354 71.6496 64.1834 71.6859 64.234C81.0081 77.2691 89.3624 102.753 99.038 137.007C99.1809 137.504 99.1242 138.038 98.88 138.495C98.6359 138.951 98.2236 139.294 97.731 139.45L89.7767 142.003C89.32 142.147 88.8269 142.122 88.3871 141.932C87.9472 141.743 87.5899 141.401 87.38 140.97L66.7385 98.0414C66.5942 97.7413 66.3573 97.4959 66.063 97.3414C65.7687 97.1869 65.4326 97.1315 65.1045 97.1835C64.7763 97.2355 64.4736 97.392 64.2411 97.63C64.0087 97.8679 63.8588 98.1747 63.8137 98.5047L57.7489 142.974C57.6823 143.451 57.4464 143.887 57.0846 144.204C56.7228 144.521 56.2593 144.696 55.7791 144.697Z" fill="#2F2E41"/>
<path d="M70.7366 64.2651C70.7158 64.2651 70.6951 64.2647 70.6741 64.2642L52.1861 63.6789C51.7107 63.6656 51.2561 63.4813 50.905 63.1598C50.5539 62.8382 50.3299 62.4008 50.2737 61.9273C47.9301 42.905 54.3577 37.809 57.2299 36.5012C57.47 36.3926 57.6779 36.2237 57.8337 36.0108C57.9894 35.7979 58.0877 35.5482 58.1189 35.286L58.3674 33.2922C58.4098 32.9401 58.5454 32.6058 58.7602 32.324C63.2636 26.4744 69.413 24.6012 72.6777 24.0055C72.9425 23.9578 73.2142 23.9645 73.4763 24.0254C73.7384 24.0862 73.9854 24.1998 74.2024 24.3593C74.4194 24.5187 74.6018 24.7208 74.7385 24.9531C74.8752 25.1855 74.9633 25.4433 74.9976 25.7108L75.37 28.5738C75.4079 28.8469 75.5166 29.1052 75.6851 29.323C85.0771 41.6344 74.614 59.8123 72.4211 63.3311C72.2419 63.6168 71.9934 63.8524 71.6988 64.0157C71.4043 64.179 71.0732 64.2648 70.7366 64.2651Z" fill="#CCCCCC"/>
<path d="M83.7092 14.4296C81.2886 11.0119 78.3859 7.96487 75.092 5.38368C72.3537 3.23898 69.3056 1.40667 65.9428 0.530194C62.5798 -0.346284 58.866 -0.19709 55.7979 1.43795C52.7295 3.073 49.5574 6.32164 49.538 9.80565C49.532 10.9249 49.8159 12.4392 50.9151 12.2455L51.2331 12.2878C53.8849 11.7508 56.5366 11.2137 59.1883 10.6767C60.3178 14.6068 61.4472 18.5369 62.5766 22.467C62.8147 23.2953 63.134 24.2216 63.9181 24.5748C64.6567 24.9075 65.5105 24.594 66.2578 24.2812C66.3807 24.2297 67.4367 21.853 67.4367 21.853C67.4631 21.7787 67.5088 21.7128 67.5692 21.6622C67.6295 21.6116 67.7022 21.578 67.7798 21.565C67.8573 21.552 67.937 21.56 68.0104 21.5881C68.0839 21.6163 68.1486 21.6636 68.1977 21.7252L68.825 22.5113C68.9448 22.6615 69.1102 22.7685 69.2961 22.8162C69.482 22.8638 69.6782 22.8495 69.8553 22.7754C74.1797 20.9653 78.5041 19.1552 82.8287 17.3451C83.4262 17.0949 84.0943 16.7682 84.2675 16.1425C84.4336 15.543 84.0682 14.9369 83.7092 14.4296Z" fill="#2F2E41"/>
<path d="M133.42 165.075H0.441787C0.324618 165.075 0.212254 165.028 0.129403 164.945C0.0465517 164.862 0 164.749 0 164.632C0 164.514 0.0465517 164.402 0.129403 164.319C0.212254 164.236 0.324618 164.189 0.441787 164.189H133.42C133.537 164.189 133.649 164.236 133.732 164.319C133.815 164.402 133.862 164.514 133.862 164.632C133.862 164.749 133.815 164.862 133.732 164.945C133.649 165.028 133.537 165.075 133.42 165.075Z" fill="#E4E4E4"/>
<path d="M61.328 96.0422C61.0276 96.041 60.7353 95.944 60.4935 95.7651L58.4825 94.3001C58.3156 94.1779 58.1144 94.1121 57.9078 94.1121C57.7012 94.1121 57.4999 94.1779 57.3331 94.3001L55.322 95.7651C55.0795 95.9418 54.7874 96.037 54.4876 96.037C54.1879 96.037 53.8958 95.9419 53.6532 95.7652C53.4107 95.5885 53.2301 95.3394 53.1375 95.0535C53.0448 94.7677 53.0448 94.4597 53.1374 94.1738L53.9055 91.8034C53.9698 91.6065 53.97 91.3942 53.9061 91.1972C53.8423 91.0002 53.7177 90.8286 53.5503 90.7072L51.5392 89.2419C51.2967 89.0652 51.1162 88.8161 51.0236 88.5302C50.9309 88.2443 50.9309 87.9363 51.0236 87.6505C51.1162 87.3646 51.2968 87.1154 51.5393 86.9387C51.7819 86.7621 52.0739 86.6669 52.3737 86.6669H54.8594C55.066 86.6673 55.2674 86.6019 55.4345 86.4801C55.6017 86.3584 55.726 86.1865 55.7895 85.9894L56.5576 83.619C56.6502 83.3331 56.8307 83.0839 57.0732 82.9071C57.3158 82.7304 57.6079 82.6353 57.9077 82.6353C58.2075 82.6353 58.4996 82.7304 58.7422 82.9071C58.9847 83.0839 59.1653 83.3331 59.2579 83.619L60.0261 85.9894C60.0895 86.1865 60.2138 86.3584 60.3809 86.4801C60.5481 86.6019 60.7494 86.6673 60.956 86.6669H63.4417C63.7415 86.6669 64.0336 86.7621 64.2761 86.9387C64.5187 87.1154 64.6992 87.3646 64.7918 87.6505C64.8845 87.9363 64.8845 88.2443 64.7919 88.5302C64.6993 88.8161 64.5187 89.0652 64.2762 89.2419L62.2652 90.7069C62.0978 90.8284 61.9733 91.0001 61.9094 91.1971C61.8456 91.3942 61.8458 91.6064 61.91 91.8034L62.6782 94.1738C62.7742 94.4594 62.7759 94.7684 62.683 95.0551C62.5901 95.3417 62.4075 95.5907 62.1624 95.7651C61.9206 95.9439 61.6284 96.041 61.328 96.0422Z" fill="#F59E0B"/>
<path d="M69.0126 91.3027C69.5807 90.9033 70.0544 90.3837 70.4006 89.7808C70.7467 89.1779 70.9568 88.5061 71.0161 87.813C71.0753 87.1198 70.9823 86.422 70.7435 85.7688C70.5047 85.1156 70.126 84.5229 69.634 84.0323L73.0681 42.4488L62.8433 43.8592L62.6488 84.2614C61.8817 85.1447 61.4644 86.2795 61.476 87.4508C61.4875 88.622 61.9272 89.7483 62.7116 90.6163C63.496 91.4842 64.5707 92.0335 65.732 92.16C66.8933 92.2865 68.0606 91.9815 69.0126 91.3027Z" fill="#A0616A"/>
<path d="M73.7363 48.437C73.5448 48.437 73.3542 48.4093 73.1706 48.3548L62.1939 45.1176C61.9301 45.0399 61.6852 44.9081 61.4748 44.7305C61.2643 44.553 61.0929 44.3336 60.9714 44.0862C60.8499 43.8388 60.7809 43.5689 60.7688 43.2934C60.7566 43.0179 60.8016 42.7429 60.9009 42.4857L64.9631 31.9631C65.1325 31.5187 65.4557 31.1502 65.8736 30.9248C66.2914 30.6994 66.7762 30.6322 67.2394 30.7354L74.4913 32.3161C74.9439 32.415 75.348 32.6692 75.6337 33.0348C75.9194 33.4005 76.0688 33.8547 76.0562 34.3191L75.7188 46.4976C75.7044 47.0158 75.4893 47.508 75.1193 47.87C74.7493 48.2319 74.2533 48.4353 73.7363 48.437Z" fill="#CCCCCC"/>
</svg>
