<svg width="171" height="59" viewBox="0 0 171 59" fill="none" xmlns="http://www.w3.org/2000/svg">
<mask id="mask0_2039_10231" style="mask-type:luminance" maskUnits="userSpaceOnUse" x="0" y="9" width="50" height="50">
<path d="M0.507812 9.1791H49.6786V58.3458H0.507812V9.1791Z" fill="white"/>
</mask>
<g mask="url(#mask0_2039_10231)">
<path d="M29.1145 58.3973H21.1643C20.843 58.3973 20.5593 58.1792 20.482 57.8581L19.1589 52.5429C18.1057 52.2098 17.0782 51.7856 16.1023 51.286L11.4151 54.1091C11.1314 54.2756 10.7863 54.238 10.5542 54.006L4.92877 48.3836C4.6967 48.1536 4.65901 47.8067 4.82563 47.5232L7.65222 42.8384C7.15038 41.863 6.72589 40.848 6.39265 39.7834L1.07469 38.461C0.767234 38.3837 0.535156 38.1022 0.535156 37.781V29.835C0.535156 29.5139 0.753349 29.2304 1.07469 29.1531L6.39265 27.8307C6.72589 26.78 7.15038 25.753 7.65222 24.7756L4.82563 20.0909C4.65901 19.8213 4.6967 19.4625 4.92877 19.2305L10.5542 13.6081C10.7863 13.3761 11.1314 13.3384 11.4151 13.505L16.1023 16.3301C17.0782 15.8285 18.1057 15.4062 19.1589 15.0712L20.482 9.75601C20.5593 9.44872 20.843 9.21677 21.1643 9.21677H29.1145C29.4358 9.21677 29.7175 9.43683 29.7949 9.75601L31.1179 15.0712C32.1712 15.4062 33.1987 15.8285 34.1746 16.3301L38.8618 13.505C39.1454 13.3384 39.4926 13.3761 39.7227 13.6081L45.3481 19.2305C45.5802 19.4625 45.6178 19.8074 45.4512 20.0909L42.6266 24.7756C43.1265 25.753 43.551 26.7661 43.8842 27.8307L49.2022 29.1531C49.5096 29.2304 49.7417 29.5139 49.7417 29.835V37.781C49.7417 38.1022 49.5235 38.3837 49.2022 38.461L43.8842 39.7834C43.551 40.8361 43.1265 41.863 42.6266 42.8384L45.4512 47.5232C45.6178 47.7928 45.5802 48.1536 45.3481 48.3836L39.7227 54.006C39.4926 54.238 39.1454 54.2756 38.8618 54.1091L34.1746 51.286C33.1987 51.7856 32.1712 52.2098 31.1179 52.5429L29.7949 57.8581C29.7175 58.1654 29.4358 58.3973 29.1145 58.3973ZM21.7158 56.9977H28.5611L29.8464 51.8371C29.9099 51.5933 30.0904 51.401 30.3344 51.3375C31.5662 50.9767 32.7484 50.489 33.8533 49.8863C34.0715 49.7713 34.3412 49.7713 34.5475 49.8982L39.1058 52.646L43.9497 47.8067L41.2004 43.2488C41.0715 43.0307 41.0715 42.775 41.1865 42.5569C41.7915 41.4527 42.2795 40.2711 42.6385 39.0379C42.7159 38.7941 42.8964 38.6157 43.1404 38.5502L48.3036 37.2675V30.4239L43.1404 29.1412C42.8964 29.0777 42.702 28.8973 42.6385 28.6535C42.2795 27.4203 41.7776 26.2407 41.1865 25.1365C41.0715 24.9184 41.0715 24.6488 41.2004 24.4426L43.9497 19.8847L39.1058 15.0454L34.5475 17.7932C34.3293 17.922 34.0715 17.922 33.8533 17.8051C32.7484 17.2024 31.5543 16.7147 30.3344 16.3558C30.0904 16.2904 29.9099 16.0981 29.8464 15.8543L28.5611 10.6937H21.7158L20.4304 15.8543C20.3669 16.0981 20.1864 16.2904 19.9425 16.3558C18.7107 16.7147 17.5284 17.2024 16.4236 17.8051C16.2054 17.922 15.9356 17.922 15.7313 17.7932L11.1711 15.0454L6.32918 19.8847L9.07643 24.4426C9.20536 24.6607 9.20536 24.9184 9.09031 25.1365C8.48731 26.2407 7.99935 27.4203 7.63834 28.6535C7.56098 28.8973 7.38246 29.0777 7.13848 29.1412L1.97523 30.4239V37.2675L7.13848 38.5502C7.38246 38.6157 7.57486 38.7941 7.63834 39.0379C7.99935 40.2711 8.49921 41.4527 9.09031 42.5569C9.20536 42.775 9.20536 43.0446 9.07643 43.2488L6.32918 47.8067L11.1711 52.646L15.7313 49.8982C15.9495 49.7713 16.2054 49.7713 16.4236 49.8863C17.5284 50.489 18.7226 50.9767 19.9425 51.3375C20.1864 51.401 20.3669 51.5933 20.4304 51.8371L21.7158 56.9977ZM25.1454 45.727C18.5817 45.727 13.2519 40.3999 13.2519 33.8398C13.2519 27.2796 18.5817 21.9525 25.1454 21.9525C31.709 21.9525 37.0389 27.2796 37.0389 33.8398C37.0389 40.3999 31.709 45.727 25.1454 45.727ZM25.1454 23.3522C19.3652 23.3522 14.6523 28.0508 14.6523 33.8398C14.6523 39.6287 19.3533 44.3273 25.1454 44.3273C30.9374 44.3273 35.6385 39.6287 35.6385 33.8398C35.6385 28.0508 30.9374 23.3522 25.1454 23.3522Z" fill="black"/>
</g>
<mask id="mask1_2039_10231" style="mask-type:luminance" maskUnits="userSpaceOnUse" x="8" y="17" width="34" height="34">
<path d="M8.33691 17.0279H41.7582V50.4315H8.33691V17.0279Z" fill="white"/>
</mask>
<g mask="url(#mask1_2039_10231)">
<mask id="mask2_2039_10231" style="mask-type:luminance" maskUnits="userSpaceOnUse" x="8" y="17" width="34" height="34">
<path d="M25.0485 17.0279C15.819 17.0279 8.33691 24.504 8.33691 33.7287C8.33691 42.9534 15.819 50.4315 25.0485 50.4315C34.2761 50.4315 41.7582 42.9534 41.7582 33.7287C41.7582 24.504 34.2761 17.0279 25.0485 17.0279Z" fill="white"/>
</mask>
<g mask="url(#mask2_2039_10231)">
<path d="M8.33691 17.0279H41.7582V50.4315H8.33691V17.0279Z" fill="white"/>
</g>
</g>
<mask id="mask3_2039_10231" style="mask-type:luminance" maskUnits="userSpaceOnUse" x="8" y="17" width="34" height="34">
<path d="M8.89648 17.3075H41.8179V50.2115H8.89648V17.3075Z" fill="white"/>
</mask>
<g mask="url(#mask3_2039_10231)">
<path d="M25.5803 50.1599C27.7285 50.1282 29.8629 49.6762 31.8226 48.8316C33.7844 47.989 35.5815 46.7698 37.0751 45.2551C38.5668 43.7405 39.7708 41.9364 40.5762 39.9757C41.3874 38.015 41.802 35.8917 41.802 33.7664C41.802 35.8917 41.3795 38.015 40.5682 39.9757C39.755 41.9364 38.5351 43.7326 37.0275 45.2155C35.52 46.7083 33.715 47.8879 31.7532 48.675C29.7915 49.464 27.675 49.8467 25.5724 49.8169C23.4698 49.7852 21.3831 49.3312 19.461 48.5045C17.5469 47.6758 15.7973 46.4665 14.3513 44.9816C12.8974 43.4986 11.7409 41.7322 10.9673 39.8111C10.1858 37.898 9.78711 35.8282 9.78711 33.7664C9.78711 31.6966 10.1858 29.6348 10.9673 27.7217C11.7489 25.8085 12.9053 24.0421 14.3513 22.5592C15.8053 21.0743 17.5469 19.8649 19.461 19.0362C21.391 18.1936 23.4777 17.7476 25.5803 17.7159C27.6829 17.6861 29.7994 18.0688 31.7612 18.8578C33.7229 19.6389 35.528 20.8245 37.0434 22.3173C38.5509 23.8082 39.7629 25.5964 40.5841 27.5571C41.4033 29.5178 41.8179 31.6431 41.8179 33.7664C41.8179 31.6431 41.4033 29.5178 40.592 27.5571C39.7788 25.5885 38.5827 23.7923 37.091 22.2777C35.5974 20.763 33.8003 19.5358 31.8385 18.7012C29.8629 17.8427 27.7285 17.3967 25.5803 17.357C23.4321 17.3273 21.2661 17.7099 19.2587 18.5128C17.2493 19.3098 15.3907 20.5132 13.8356 22.0279C12.2805 23.5425 11.0308 25.3783 10.1779 27.3866C9.33485 29.3929 8.89648 31.5797 8.89648 33.7585C8.89648 35.9373 9.33485 38.124 10.1858 40.1323C11.0308 42.1386 12.2884 43.9744 13.8435 45.4891C15.3986 47.0037 17.2493 48.2071 19.2666 49.0041C21.2661 49.809 23.4321 50.1916 25.5803 50.1599Z" fill="black"/>
</g>
<mask id="mask4_2039_10231" style="mask-type:luminance" maskUnits="userSpaceOnUse" x="36" y="28" width="2" height="4">
<path d="M36.5615 28.929H37.0693V31.4667H36.5615V28.929Z" fill="white"/>
</mask>
<g mask="url(#mask4_2039_10231)">
<mask id="mask5_2039_10231" style="mask-type:luminance" maskUnits="userSpaceOnUse" x="28" y="23" width="16" height="21">
<path d="M28.4111 27.0456L37.7538 23.9668L43.2066 40.4872L33.864 43.568L28.4111 27.0456Z" fill="white"/>
</mask>
<g mask="url(#mask5_2039_10231)">
<mask id="mask6_2039_10231" style="mask-type:luminance" maskUnits="userSpaceOnUse" x="28" y="23" width="16" height="21">
<path d="M28.4111 27.0456L37.7538 23.9668L43.2066 40.4872L33.864 43.568L28.4111 27.0456Z" fill="white"/>
</mask>
<g mask="url(#mask6_2039_10231)">
<path d="M36.9579 29.6408C36.954 29.3949 36.708 29.3037 36.708 29.3037L36.7298 31.316C36.7298 31.316 36.8528 31.3319 36.9778 31.3656L36.9579 29.6408Z" fill="black"/>
</g>
</g>
</g>
<mask id="mask7_2039_10231" style="mask-type:luminance" maskUnits="userSpaceOnUse" x="34" y="28" width="1" height="4">
<path d="M34.0225 28.929H34.5303V31.4667H34.0225V28.929Z" fill="white"/>
</mask>
<g mask="url(#mask7_2039_10231)">
<mask id="mask8_2039_10231" style="mask-type:luminance" maskUnits="userSpaceOnUse" x="28" y="23" width="16" height="21">
<path d="M28.4111 27.0456L37.7538 23.9668L43.2066 40.4872L33.864 43.568L28.4111 27.0456Z" fill="white"/>
</mask>
<g mask="url(#mask8_2039_10231)">
<mask id="mask9_2039_10231" style="mask-type:luminance" maskUnits="userSpaceOnUse" x="28" y="23" width="16" height="21">
<path d="M28.4111 27.0456L37.7538 23.9668L43.2066 40.4872L33.864 43.568L28.4111 27.0456Z" fill="white"/>
</mask>
<g mask="url(#mask9_2039_10231)">
<path d="M34.0645 29.6725C34.0605 29.4286 34.3045 29.3315 34.3045 29.3315L34.3283 31.3437C34.3283 31.3437 34.2073 31.3616 34.0824 31.3973L34.0645 29.6725Z" fill="black"/>
</g>
</g>
</g>
<mask id="mask10_2039_10231" style="mask-type:luminance" maskUnits="userSpaceOnUse" x="32" y="25" width="7" height="18">
<path d="M32.499 25.3763H38.5926V42.1247H32.499V25.3763Z" fill="white"/>
</mask>
<g mask="url(#mask10_2039_10231)">
<mask id="mask11_2039_10231" style="mask-type:luminance" maskUnits="userSpaceOnUse" x="28" y="23" width="16" height="21">
<path d="M28.4111 27.0456L37.7538 23.9668L43.2066 40.4872L33.864 43.568L28.4111 27.0456Z" fill="white"/>
</mask>
<g mask="url(#mask11_2039_10231)">
<mask id="mask12_2039_10231" style="mask-type:luminance" maskUnits="userSpaceOnUse" x="28" y="23" width="16" height="21">
<path d="M28.4111 27.0456L37.7538 23.9668L43.2066 40.4872L33.864 43.568L28.4111 27.0456Z" fill="white"/>
</mask>
<g mask="url(#mask12_2039_10231)">
<path d="M38.1603 26.778C38.1603 26.778 38.0333 26.6967 37.8925 26.6908L37.8905 26.4905C37.8905 26.4905 38.071 26.5084 38.1583 26.5797L38.1603 26.778ZM36.4564 26.6531L36.3235 26.6551L36.3195 26.3617H36.4544L36.4564 26.6531ZM36.018 26.6253C36.018 26.6253 35.5201 26.6154 34.9429 26.6392L34.9409 26.4053C34.9409 26.4053 35.5677 26.3656 36.016 26.3934L36.018 26.6253ZM34.6037 26.6729L34.4708 26.6749L34.4668 26.3835L34.6017 26.3815L34.6037 26.6729ZM33.0724 26.7463C32.9316 26.7542 32.8046 26.8375 32.8046 26.8375L32.8026 26.6392C32.8879 26.5659 33.0704 26.5441 33.0704 26.5441L33.0724 26.7463ZM38.075 26.4291C37.5176 26.3557 36.617 26.2705 35.4904 26.2824L35.4626 26.2843C34.3379 26.2962 33.4394 26.4013 32.882 26.4866C32.7808 26.5024 32.6915 26.5559 32.6261 26.6293L32.6301 26.9862C32.6995 26.9425 32.7768 26.9148 32.8582 26.9009C33.4215 26.8137 34.33 26.7086 35.4666 26.6947H35.4963C36.6329 26.6828 37.5434 26.7681 38.1087 26.8434C38.19 26.8533 38.2674 26.8811 38.3368 26.9207L38.3328 26.5639C38.2674 26.4925 38.1781 26.4429 38.075 26.4291ZM33.4235 42.1089L33.8797 42.1049L33.8777 41.8928L33.4215 41.8967L33.4235 42.1089ZM38.1543 26.1694C38.1543 26.1694 37.9778 26.092 37.8865 26.1158L37.8806 25.6698C37.8806 25.6698 38.0631 25.6896 38.1503 25.8898L38.1543 26.1694ZM36.4484 25.9374L36.3155 25.9394L36.3096 25.531L36.4445 25.529L36.4484 25.9374ZM36.0101 25.9414C36.0101 25.9414 35.5122 25.9156 34.935 25.9533L34.931 25.525C34.931 25.525 35.5578 25.4576 36.0061 25.5131L36.0101 25.9414ZM34.5958 25.9572L34.4629 25.9592L34.4569 25.5528L34.5918 25.5508L34.5958 25.9572ZM33.0664 26.1694C32.9732 26.1495 32.7987 26.2288 32.7987 26.2288L32.7947 25.9493C32.88 25.7491 33.0605 25.7233 33.0605 25.7233L33.0664 26.1694ZM37.9044 25.5151C37.4224 25.4517 36.5555 25.3664 35.4666 25.3783C34.3776 25.3902 33.5127 25.4953 33.0327 25.5706C32.7927 25.6083 32.6182 25.8145 32.6201 26.0564L32.6241 26.3716C32.6915 26.3299 32.7689 26.3022 32.8502 26.2883C33.4136 26.2011 34.324 26.096 35.4606 26.0821C35.4705 26.0821 35.4785 26.0821 35.4884 26.0821C36.625 26.0702 37.5374 26.1555 38.1027 26.2308C38.1841 26.2407 38.2614 26.2685 38.3308 26.3061L38.3269 25.9909C38.3249 25.751 38.1444 25.5468 37.9044 25.5151ZM35.5499 32.8624C35.3416 32.8663 35.173 33.0368 35.177 33.245L35.2127 36.4567C35.2146 36.6649 35.3872 36.8334 35.5955 36.8294C35.8038 36.8274 35.9724 36.6569 35.9684 36.4488L35.9327 33.2371C35.9307 33.0289 35.7581 32.8604 35.5499 32.8624ZM36.1033 36.4468C36.1053 36.7283 35.8791 36.9602 35.5955 36.9642C35.3138 36.9682 35.0818 36.7402 35.0778 36.4587L35.0421 33.247C35.0401 32.9655 35.2662 32.7335 35.5499 32.7295C35.8315 32.7256 36.0636 32.9536 36.0676 33.2351L36.1033 36.4468ZM34.8616 37.1327C34.8556 37.1664 34.8477 37.216 34.8318 37.2775C34.8021 37.4004 34.7465 37.5748 34.6374 37.7671C34.5839 37.8643 34.5164 37.9634 34.4292 38.0586C34.3458 38.1537 34.2427 38.2449 34.1237 38.3222C34.0642 38.3599 34.0027 38.3936 33.9352 38.4234C33.9035 38.4392 33.8698 38.4531 33.8361 38.467C33.8004 38.4789 33.7666 38.4908 33.7329 38.5007C33.6675 38.5225 33.6099 38.5463 33.5742 38.5839C33.5385 38.6216 33.5187 38.6811 33.5108 38.7445C33.5028 38.808 33.5048 38.8774 33.5048 38.9507C33.5048 39.0221 33.5048 39.0934 33.5048 39.1648C33.5068 39.3076 33.5048 39.4463 33.5048 39.5811C33.5028 39.8528 33.4989 40.1045 33.4929 40.3206C33.481 40.7528 33.4612 41.0423 33.4612 41.0423C33.4612 41.0423 33.4354 40.7528 33.4155 40.3206C33.4036 40.1045 33.3937 39.8528 33.3858 39.5831C33.3838 39.4483 33.3779 39.3076 33.3759 39.1668C33.3759 39.0954 33.3739 39.0241 33.3719 38.9527C33.3719 38.8813 33.3679 38.806 33.3779 38.7267C33.3838 38.687 33.3917 38.6474 33.4076 38.6077C33.4235 38.5681 33.4453 38.5264 33.479 38.4947C33.5445 38.4273 33.6258 38.3996 33.6932 38.3778C33.7627 38.3559 33.8242 38.3361 33.8857 38.3103C33.9471 38.2846 34.0067 38.2548 34.0622 38.2211C34.1733 38.1537 34.2725 38.0764 34.3577 37.9912C34.443 37.9059 34.5144 37.8167 34.572 37.7275C34.691 37.551 34.7624 37.3865 34.808 37.2695C34.8298 37.21 34.8457 37.1625 34.8536 37.1307C34.8636 37.099 34.8695 37.0792 34.8695 37.0832C34.8695 37.0792 34.8675 37.099 34.8616 37.1327ZM37.8409 38.239L37.8389 38.0387L37.3827 38.0427V38.0982C36.8888 37.8603 36.5555 37.3587 36.5516 36.7858L36.5476 36.3972L36.5079 32.563C36.506 32.2676 36.5516 31.9742 36.6389 31.6966C36.2778 31.6391 35.9109 31.6114 35.5439 31.6154H35.536C35.171 31.6193 34.804 31.655 34.443 31.7204C34.5383 31.998 34.5898 32.2894 34.5938 32.5848L34.6414 36.419L34.6454 36.8076C34.6533 37.3825 34.328 37.894 33.8361 38.1418V38.0824L33.3798 38.0883L33.3818 38.2905C33.2787 38.3282 33.2093 38.4273 33.2112 38.5383L33.2469 41.6985H33.3124V41.7282C33.3144 41.8055 33.3779 41.869 33.4552 41.867L33.844 41.863C33.9214 41.863 33.9828 41.7976 33.9828 41.7203V41.6747C34.1217 41.641 34.2506 41.5637 34.3419 41.4507C34.0086 41.1196 33.8004 40.6656 33.7944 40.16C33.7825 39.143 34.5978 38.3103 35.6153 38.2965C36.6329 38.2866 37.466 39.1014 37.4779 40.1184C37.4839 40.624 37.2835 41.0839 36.9582 41.4209C37.0514 41.53 37.1784 41.6053 37.3153 41.635L37.3172 41.6826C37.3172 41.7619 37.3807 41.8234 37.4581 41.8234L37.8469 41.8174C37.9242 41.8174 37.9877 41.754 37.9857 41.6767V41.645H38.0611L38.0254 38.4848C38.0234 38.3698 37.948 38.2727 37.8409 38.239ZM38.1682 27.4005C38.1682 27.4005 38.0412 27.3192 37.8984 27.3133L37.8964 27.113C37.8964 27.113 38.0789 27.1309 38.1662 27.2003L38.1682 27.4005ZM36.4643 27.2419L36.3294 27.2439L36.3274 26.9525L36.4603 26.9505L36.4643 27.2419ZM36.0239 27.226C36.0239 27.226 35.5261 27.2141 34.9508 27.2379L34.9469 27.004C34.9469 27.004 35.5757 26.9643 36.022 26.9921L36.0239 27.226ZM34.6116 27.2637H34.4768L34.4728 26.9723L34.6077 26.9703L34.6116 27.2637ZM33.0783 27.3668C32.9375 27.3767 32.8125 27.46 32.8125 27.46L32.8106 27.2617C32.8959 27.1884 33.0764 27.1666 33.0764 27.1666L33.0783 27.3668ZM38.0829 27.0417C37.5235 26.9683 36.623 26.8831 35.4983 26.8969H35.4685C34.3439 26.9088 33.4453 27.0139 32.8879 27.1011C32.7868 27.115 32.6975 27.1685 32.634 27.2419L32.638 27.5988C32.7054 27.5571 32.7828 27.5274 32.8641 27.5155C33.4274 27.4283 34.3379 27.3212 35.4745 27.3093L35.5023 27.3073C36.6389 27.2954 37.5513 27.3807 38.1146 27.456C38.1979 27.4659 38.2753 27.4937 38.3447 27.5333L38.3408 27.1765C38.2753 27.1051 38.1841 27.0555 38.0829 27.0417ZM35.6451 41.3377C34.9846 41.3436 34.4411 40.8143 34.4351 40.1541C34.4272 39.4919 34.9568 38.9507 35.6193 38.9428C36.2798 38.9348 36.8233 39.4642 36.8293 40.1263C36.8372 40.7865 36.3076 41.3297 35.6451 41.3377ZM35.6153 41.6033C34.808 41.6132 34.1455 40.965 34.1356 40.1561C34.1257 39.3492 34.7743 38.685 35.5836 38.6771C35.5955 38.6771 35.6094 38.6771 35.6233 38.6771C34.8318 38.7069 34.205 39.3611 34.2149 40.1561C34.2229 40.9511 34.8655 41.5894 35.655 41.6013C35.6431 41.6013 35.6292 41.6033 35.6153 41.6033ZM35.6133 38.4729C34.693 38.4848 33.9551 39.2382 33.965 40.1581C33.9749 41.078 34.7307 41.8155 35.651 41.8055C36.5714 41.7956 37.3093 41.0403 37.2994 40.1204C37.2895 39.2005 36.5337 38.463 35.6133 38.4729ZM38.2138 31.5281C38.2178 31.7363 37.948 31.6649 37.948 31.6649L37.9044 27.7375C38.067 27.7356 38.1722 27.8386 38.1722 27.8386L38.2138 31.5281ZM37.0633 31.4627C37.0455 31.4607 37.0296 31.4568 37.0118 31.4528C36.0378 31.2605 35.0262 31.2724 34.0562 31.4865C34.0404 31.4905 34.0245 31.4944 34.0067 31.4984L33.9868 29.6368C33.9848 29.4187 34.1594 29.2403 34.3756 29.2383L36.6428 29.2125C36.861 29.2106 37.0395 29.385 37.0415 29.6031L37.0633 31.4627ZM34.4827 27.6919H34.6156L34.6315 29.1431H34.4986L34.4827 27.6919ZM34.9548 27.7296C34.9548 27.7296 35.4785 27.6305 36.0299 27.7177L36.0458 29.1273L34.9707 29.1392L34.9548 27.7296ZM36.3354 27.6721L36.4683 27.6701L36.4841 29.1213L36.3512 29.1233L36.3354 27.6721ZM33.1279 31.7184C33.1279 31.7184 32.8601 31.7958 32.8582 31.5876L32.8165 27.8981C32.8165 27.8981 32.9197 27.793 33.0843 27.7911L33.1279 31.7184ZM38.0888 27.6543C37.5275 27.5809 36.623 27.4937 35.4904 27.5095H35.4765C34.3518 27.5214 33.4532 27.6265 32.8959 27.7137C32.7947 27.7296 32.7054 27.7811 32.64 27.8565L32.6836 31.6947C32.6856 31.77 32.7471 31.8315 32.8225 31.8315L33.1914 31.8255C33.3362 31.8255 33.479 31.8017 33.6159 31.7581C33.7111 31.7264 33.844 31.6887 34.0086 31.6471C34.0245 31.6431 34.0424 31.6391 34.0582 31.6352C35.0282 31.4052 36.0398 31.3933 37.0138 31.6015C37.0316 31.6054 37.0475 31.6094 37.0633 31.6134C37.23 31.6491 37.3629 31.6867 37.4601 31.7145C37.5989 31.7561 37.7417 31.7759 37.8865 31.774L38.2555 31.77C38.3308 31.768 38.3904 31.7066 38.3904 31.6312L38.3467 27.7911C38.2813 27.7177 38.192 27.6681 38.0888 27.6543ZM37.4263 42.0653L37.8845 42.0593L37.8806 41.8472L37.4244 41.8531L37.4263 42.0653Z" fill="black"/>
</g>
</g>
</g>
<mask id="mask13_2039_10231" style="mask-type:luminance" maskUnits="userSpaceOnUse" x="34" y="29" width="3" height="3">
<path d="M34.5303 29.4366H36.5615V31.4667H34.5303V29.4366Z" fill="white"/>
</mask>
<g mask="url(#mask13_2039_10231)">
<mask id="mask14_2039_10231" style="mask-type:luminance" maskUnits="userSpaceOnUse" x="28" y="23" width="16" height="21">
<path d="M28.4111 27.0456L37.7538 23.9668L43.2066 40.4872L33.864 43.568L28.4111 27.0456Z" fill="white"/>
</mask>
<g mask="url(#mask14_2039_10231)">
<mask id="mask15_2039_10231" style="mask-type:luminance" maskUnits="userSpaceOnUse" x="28" y="23" width="16" height="21">
<path d="M28.4111 27.0456L37.7538 23.9668L43.2066 40.4872L33.864 43.568L28.4111 27.0456Z" fill="white"/>
</mask>
<g mask="url(#mask15_2039_10231)">
<path d="M35.596 30.9116C35.586 30.9135 35.5761 30.9135 35.5662 30.9135C35.2568 30.9175 35.0029 30.6697 34.9989 30.3584C34.9949 30.0492 35.2429 29.7954 35.5543 29.7914C35.5642 29.7914 35.5741 29.7934 35.5841 29.7934C35.2865 29.8113 35.0544 30.0591 35.0584 30.3584C35.0604 30.6578 35.3004 30.8997 35.596 30.9116ZM35.5146 29.6804C35.1616 29.6844 34.8779 29.9877 34.8819 30.3604C34.8858 30.7331 35.1754 31.0305 35.5305 31.0265C35.8856 31.0226 36.1692 30.7173 36.1633 30.3465C36.1593 29.9738 35.8697 29.6764 35.5146 29.6804Z" fill="black"/>
</g>
</g>
</g>
<path d="M55.5059 50.2601V51.6479H57.9418V52.6312H55.5059V54.5424H54.292V49.2847H58.2671V50.2601H55.5059Z" fill="#002AED"/>
<path d="M59.2186 50.5932H59.7502V54.5424H59.2186V50.5932ZM59.4884 49.7288C59.3773 49.7288 59.2841 49.6931 59.2107 49.6178C59.1353 49.5444 59.0996 49.4552 59.0996 49.3482C59.0996 49.249 59.1353 49.1618 59.2107 49.0865C59.2841 49.0072 59.3773 48.9675 59.4884 48.9675C59.5995 48.9675 59.6907 49.0052 59.7661 49.0785C59.8395 49.1539 59.8772 49.2411 59.8772 49.3402C59.8772 49.4513 59.8395 49.5444 59.7661 49.6178C59.6907 49.6931 59.5995 49.7288 59.4884 49.7288Z" fill="#002AED"/>
<path d="M64.8417 48.9675V54.5424H64.3339V53.7652C64.1752 54.0309 63.9629 54.2331 63.6991 54.3758C63.4333 54.5146 63.1378 54.582 62.8105 54.582C62.4396 54.582 62.1043 54.4988 61.8028 54.3283C61.5013 54.1538 61.2653 53.9159 61.0967 53.6146C60.9261 53.3092 60.8428 52.9603 60.8428 52.5678C60.8428 52.1772 60.9261 51.8303 61.0967 51.5289C61.2653 51.2236 61.5013 50.9857 61.8028 50.8152C62.1043 50.6467 62.4396 50.5615 62.8105 50.5615C63.1279 50.5615 63.4155 50.6289 63.6753 50.7597C63.9332 50.8925 64.1454 51.0888 64.3101 51.3465V48.9675H64.8417ZM62.8502 54.1062C63.1239 54.1062 63.3738 54.0428 63.596 53.9159C63.8221 53.789 64.0006 53.6106 64.1276 53.3767C64.2545 53.1388 64.318 52.8691 64.318 52.5678C64.318 52.2664 64.2545 52.0008 64.1276 51.7668C64.0006 51.5289 63.8221 51.3465 63.596 51.2197C63.3738 51.0928 63.1239 51.0293 62.8502 51.0293C62.5685 51.0293 62.3186 51.0928 62.0964 51.2197C61.8742 51.3465 61.6997 51.5289 61.5727 51.7668C61.4458 52.0008 61.3823 52.2664 61.3823 52.5678C61.3823 52.8691 61.4458 53.1388 61.5727 53.3767C61.6997 53.6106 61.8742 53.789 62.0964 53.9159C62.3186 54.0428 62.5685 54.1062 62.8502 54.1062Z" fill="#002AED"/>
<path d="M69.7707 52.7343H66.4701C66.4959 53.1427 66.6526 53.4718 66.9382 53.7256C67.2238 53.9793 67.5848 54.1062 68.0252 54.1062C68.2672 54.1062 68.4933 54.0646 68.6996 53.9793C68.9059 53.8901 69.0824 53.7613 69.2312 53.5908L69.5327 53.9318C69.3582 54.1439 69.138 54.3045 68.8742 54.4155C68.6143 54.5265 68.3267 54.582 68.0093 54.582C67.6007 54.582 67.2417 54.4948 66.9303 54.3203C66.6169 54.1459 66.3749 53.908 66.2003 53.6066C66.0258 53.3013 65.9385 52.9544 65.9385 52.5678C65.9385 52.1832 66.0198 51.8362 66.1844 51.5289C66.353 51.2236 66.5831 50.9857 66.8747 50.8152C67.1703 50.6467 67.5015 50.5615 67.8665 50.5615C68.2315 50.5615 68.5588 50.6467 68.8504 50.8152C69.14 50.9857 69.3681 51.2236 69.5327 51.5289C69.6954 51.8303 69.7787 52.1772 69.7787 52.5678L69.7707 52.7343ZM67.8665 51.0214C67.4857 51.0214 67.1643 51.1443 66.9065 51.3862C66.6466 51.63 66.5018 51.9472 66.4701 52.3378H69.2709C69.2332 51.9472 69.0844 51.63 68.8266 51.3862C68.5727 51.1443 68.2513 51.0214 67.8665 51.0214Z" fill="#002AED"/>
<path d="M70.874 48.9675H71.4056V54.5424H70.874V48.9675Z" fill="#002AED"/>
<path d="M72.8954 50.5932H73.427V54.5424H72.8954V50.5932ZM73.1651 49.7288C73.0541 49.7288 72.9608 49.6931 72.8874 49.6178C72.8121 49.5444 72.7764 49.4552 72.7764 49.3482C72.7764 49.249 72.8121 49.1618 72.8874 49.0865C72.9608 49.0072 73.0541 48.9675 73.1651 48.9675C73.2762 48.9675 73.3675 49.0052 73.4428 49.0785C73.5162 49.1539 73.5539 49.2411 73.5539 49.3402C73.5539 49.4513 73.5162 49.5444 73.4428 49.6178C73.3675 49.6931 73.2762 49.7288 73.1651 49.7288Z" fill="#002AED"/>
<path d="M76.9955 54.3045C76.8944 54.3957 76.7694 54.4631 76.6226 54.5107C76.4738 54.5582 76.3211 54.582 76.1624 54.582C75.7915 54.582 75.5058 54.4829 75.3055 54.2807C75.1032 54.0805 75.004 53.797 75.004 53.4322V51.0452H74.2979V50.5932H75.004V49.7288H75.5356V50.5932H76.7416V51.0452H75.5356V53.4005C75.5356 53.6384 75.5931 53.8188 75.7102 53.9397C75.8312 54.0626 76.0037 54.1221 76.2259 54.1221C76.331 54.1221 76.4342 54.1062 76.5353 54.0745C76.6405 54.0388 76.7297 53.9853 76.8051 53.9159L76.9955 54.3045Z" fill="#002AED"/>
<path d="M81.285 50.5932L79.3094 55.0182C79.1507 55.3869 78.9642 55.6486 78.754 55.8033C78.5417 55.9559 78.2898 56.0332 78.0002 56.0332C77.8098 56.0332 77.6293 56.0035 77.4607 55.946C77.296 55.8865 77.1552 55.7973 77.0322 55.6764L77.2861 55.2799C77.4805 55.4801 77.7185 55.5812 78.0002 55.5812C78.1847 55.5812 78.3414 55.5297 78.4683 55.4306C78.5953 55.3294 78.7143 55.157 78.8254 54.9151L78.992 54.5344L77.2306 50.5932H77.786L79.2776 53.9476L80.7613 50.5932H81.285Z" fill="#002AED"/>
<path d="M90.702 49.2847V54.5424H89.7023L87.076 51.3545V54.5424H85.8779V49.2847H86.8856L89.496 52.4805V49.2847H90.702Z" fill="black"/>
<path d="M95.5041 52.7343H92.2035C92.2293 53.1427 92.386 53.4718 92.6716 53.7256C92.9572 53.9793 93.3182 54.1062 93.7586 54.1062C94.0006 54.1062 94.2267 54.0646 94.433 53.9793C94.6393 53.8901 94.8158 53.7613 94.9646 53.5908L95.2661 53.9318C95.0916 54.1439 94.8714 54.3045 94.6076 54.4155C94.3477 54.5265 94.0601 54.582 93.7427 54.582C93.3341 54.582 92.9751 54.4948 92.6637 54.3203C92.3503 54.1459 92.1083 53.908 91.9337 53.6066C91.7592 53.3013 91.6719 52.9544 91.6719 52.5678C91.6719 52.1832 91.7532 51.8362 91.9178 51.5289C92.0864 51.2236 92.3165 50.9857 92.6081 50.8152C92.9037 50.6467 93.2349 50.5615 93.5999 50.5615C93.9649 50.5615 94.2922 50.6467 94.5838 50.8152C94.8734 50.9857 95.1015 51.2236 95.2661 51.5289C95.4288 51.8303 95.5121 52.1772 95.5121 52.5678L95.5041 52.7343ZM93.5999 51.0214C93.2191 51.0214 92.8977 51.1443 92.6399 51.3862C92.38 51.63 92.2352 51.9472 92.2035 52.3378H95.0043C94.9666 51.9472 94.8178 51.63 94.56 51.3862C94.3061 51.1443 93.9847 51.0214 93.5999 51.0214Z" fill="black"/>
<path d="M99.1231 54.5424L97.8694 52.8929L96.6079 54.5424H96.0049L97.5679 52.5123L96.0763 50.5932H96.6793L97.8694 52.1396L99.0517 50.5932H99.6388L98.1551 52.5123L99.734 54.5424H99.1231Z" fill="black"/>
<path d="M104.183 50.5932V54.5424H103.667V53.8207C103.529 54.0646 103.336 54.2529 103.088 54.3838C102.844 54.5166 102.565 54.582 102.247 54.582C101.734 54.582 101.327 54.4393 101.025 54.1538C100.728 53.8644 100.581 53.4401 100.581 52.885V50.5932H101.113V52.8295C101.113 53.2478 101.216 53.565 101.422 53.7811C101.628 53.9932 101.922 54.0983 102.303 54.0983C102.715 54.0983 103.041 53.9714 103.279 53.7176C103.521 53.4639 103.644 53.113 103.644 52.6629V50.5932H104.183Z" fill="black"/>
<path d="M106.734 54.582C106.416 54.582 106.109 54.5384 105.813 54.4472C105.522 54.3521 105.294 54.2331 105.131 54.0904L105.369 53.6701C105.532 53.8029 105.738 53.9119 105.988 53.9952C106.242 54.0745 106.503 54.1142 106.773 54.1142C107.132 54.1142 107.4 54.0586 107.575 53.9476C107.749 53.8326 107.836 53.674 107.836 53.4718C107.836 53.3251 107.789 53.2101 107.694 53.1308C107.598 53.0476 107.475 52.9841 107.329 52.9405C107.186 52.8989 106.991 52.8572 106.749 52.8136C106.432 52.7561 106.174 52.6947 105.98 52.6312C105.783 52.5678 105.617 52.4627 105.48 52.314C105.341 52.1614 105.274 51.9532 105.274 51.6875C105.274 51.3604 105.411 51.0908 105.686 50.8787C105.96 50.6685 106.345 50.5615 106.837 50.5615C107.091 50.5615 107.345 50.5971 107.598 50.6646C107.852 50.7339 108.063 50.8212 108.233 50.9262L107.995 51.3545C107.672 51.1324 107.285 51.0214 106.837 51.0214C106.492 51.0214 106.234 51.0829 106.059 51.2038C105.889 51.3208 105.805 51.4774 105.805 51.6717C105.805 51.8263 105.853 51.9472 105.948 52.0365C106.047 52.1277 106.17 52.1931 106.313 52.2347C106.46 52.2783 106.662 52.32 106.916 52.3616C107.233 52.425 107.487 52.4865 107.678 52.544C107.868 52.6035 108.029 52.7066 108.162 52.8533C108.299 52.996 108.368 53.1982 108.368 53.456C108.368 53.8009 108.221 54.0745 107.932 54.2807C107.646 54.4829 107.245 54.582 106.734 54.582Z" fill="black"/>
<path d="M115.459 49.2847C115.923 49.2847 116.326 49.364 116.665 49.5226C117.008 49.6773 117.272 49.8953 117.458 50.1808C117.643 50.4663 117.736 50.8053 117.736 51.1959C117.736 51.5825 117.643 51.9175 117.458 52.203C117.272 52.4885 117.008 52.7085 116.665 52.8612C116.326 53.0158 115.923 53.0912 115.459 53.0912H114.396V54.5424H113.182V49.2847H115.459ZM115.387 52.0999C115.752 52.0999 116.03 52.0246 116.22 51.8699C116.411 51.7113 116.506 51.4873 116.506 51.1959C116.506 50.9005 116.411 50.6725 116.22 50.5139C116.03 50.3553 115.752 50.276 115.387 50.276H114.396V52.0999H115.387Z" fill="#FF3131"/>
<path d="M122.24 52.7343H118.94C118.966 53.1427 119.122 53.4718 119.408 53.7256C119.694 53.9793 120.055 54.1062 120.495 54.1062C120.737 54.1062 120.963 54.0646 121.169 53.9793C121.376 53.8901 121.552 53.7613 121.701 53.5908L122.002 53.9318C121.828 54.1439 121.608 54.3045 121.344 54.4155C121.084 54.5265 120.796 54.582 120.479 54.582C120.07 54.582 119.711 54.4948 119.4 54.3203C119.087 54.1459 118.845 53.908 118.67 53.6066C118.495 53.3013 118.408 52.9544 118.408 52.5678C118.408 52.1832 118.49 51.8362 118.654 51.5289C118.823 51.2236 119.053 50.9857 119.344 50.8152C119.64 50.6467 119.971 50.5615 120.336 50.5615C120.701 50.5615 121.029 50.6467 121.32 50.8152C121.61 50.9857 121.838 51.2236 122.002 51.5289C122.165 51.8303 122.248 52.1772 122.248 52.5678L122.24 52.7343ZM120.336 51.0214C119.955 51.0214 119.634 51.1443 119.376 51.3862C119.116 51.63 118.972 51.9472 118.94 52.3378H121.741C121.703 51.9472 121.554 51.63 121.296 51.3862C121.042 51.1443 120.721 51.0214 120.336 51.0214Z" fill="#FF3131"/>
<path d="M123.853 51.3624C123.979 51.0987 124.166 50.9005 124.416 50.7676C124.664 50.6309 124.971 50.5615 125.336 50.5615V51.0769L125.209 51.069C124.791 51.069 124.463 51.1998 124.225 51.4576C123.991 51.7113 123.876 52.0682 123.876 52.5281V54.5424H123.345V50.5932H123.853V51.3624Z" fill="#FF3131"/>
<path d="M127.667 49.3799C127.433 49.3799 127.257 49.4433 127.136 49.5702C127.019 49.6971 126.961 49.8835 126.961 50.1253V50.5932H128.183V51.0452H126.977V54.5424H126.445V51.0452H125.739V50.5932H126.445V50.1015C126.445 49.7427 126.549 49.4592 126.755 49.253C126.965 49.0429 127.263 48.9358 127.643 48.9358C127.79 48.9358 127.933 48.9576 128.072 48.9992C128.215 49.0429 128.334 49.1023 128.429 49.1816L128.246 49.5781C128.092 49.4473 127.899 49.3799 127.667 49.3799Z" fill="#FF3131"/>
<path d="M130.516 54.582C130.135 54.582 129.79 54.4948 129.485 54.3203C129.183 54.1459 128.945 53.908 128.771 53.6066C128.596 53.3013 128.509 52.9544 128.509 52.5678C128.509 52.1832 128.596 51.8362 128.771 51.5289C128.945 51.2236 129.183 50.9857 129.485 50.8152C129.79 50.6467 130.135 50.5615 130.516 50.5615C130.897 50.5615 131.24 50.6467 131.548 50.8152C131.853 50.9857 132.091 51.2236 132.262 51.5289C132.436 51.8362 132.524 52.1832 132.524 52.5678C132.524 52.9544 132.436 53.3013 132.262 53.6066C132.091 53.908 131.853 54.1459 131.548 54.3203C131.24 54.4948 130.897 54.582 130.516 54.582ZM130.516 54.1062C130.796 54.1062 131.048 54.0428 131.27 53.9159C131.496 53.789 131.671 53.6106 131.794 53.3767C131.921 53.1387 131.984 52.8691 131.984 52.5678C131.984 52.2664 131.921 52.0008 131.794 51.7668C131.671 51.5289 131.496 51.3465 131.27 51.2197C131.048 51.0928 130.796 51.0293 130.516 51.0293C130.234 51.0293 129.985 51.0928 129.762 51.2197C129.54 51.3465 129.366 51.5289 129.239 51.7668C129.112 52.0008 129.048 52.2664 129.048 52.5678C129.048 52.8691 129.112 53.1387 129.239 53.3767C129.366 53.6106 129.54 53.789 129.762 53.9159C129.985 54.0428 130.234 54.1062 130.516 54.1062Z" fill="#FF3131"/>
<path d="M134.125 51.3624C134.252 51.0987 134.438 50.9005 134.688 50.7676C134.936 50.6309 135.244 50.5615 135.609 50.5615V51.0769L135.482 51.069C135.063 51.069 134.736 51.1998 134.498 51.4576C134.264 51.7113 134.149 52.0682 134.149 52.5281V54.5424H133.617V50.5932H134.125V51.3624Z" fill="#FF3131"/>
<path d="M141.558 50.5615C142.054 50.5615 142.443 50.7042 142.724 50.9897C143.01 51.2752 143.153 51.6955 143.153 52.2506V54.5424H142.621V52.3061C142.621 51.8937 142.52 51.5825 142.32 51.3703C142.123 51.1542 141.846 51.0452 141.487 51.0452C141.074 51.0452 140.749 51.1721 140.511 51.4258C140.277 51.6756 140.162 52.0246 140.162 52.4726V54.5424H139.63V52.3061C139.63 51.8937 139.529 51.5825 139.329 51.3703C139.132 51.1542 138.852 51.0452 138.487 51.0452C138.079 51.0452 137.758 51.1721 137.52 51.4258C137.281 51.6756 137.162 52.0246 137.162 52.4726V54.5424H136.631V50.5932H137.139V51.3148C137.281 51.073 137.476 50.8866 137.726 50.7597C137.974 50.6289 138.261 50.5615 138.591 50.5615C138.918 50.5615 139.204 50.6328 139.448 50.7756C139.69 50.9144 139.872 51.1205 139.995 51.3941C140.138 51.1364 140.346 50.9322 140.622 50.7835C140.896 50.6368 141.209 50.5615 141.558 50.5615Z" fill="#FF3131"/>
<path d="M145.984 50.5615C146.502 50.5615 146.899 50.6923 147.174 50.95C147.448 51.2097 147.587 51.5904 147.587 52.092V54.5424H147.071V53.9238C146.954 54.13 146.78 54.2926 146.548 54.4076C146.314 54.5245 146.036 54.582 145.715 54.582C145.274 54.582 144.923 54.477 144.659 54.2648C144.399 54.0547 144.271 53.7771 144.271 53.4322C144.271 53.0951 144.392 52.8255 144.635 52.6233C144.877 52.4171 145.264 52.314 145.794 52.314H147.048V52.0682C147.048 51.7312 146.952 51.4734 146.762 51.299C146.575 51.1205 146.298 51.0293 145.929 51.0293C145.679 51.0293 145.439 51.073 145.207 51.1562C144.979 51.2355 144.782 51.3505 144.62 51.4972L144.374 51.0928C144.574 50.9243 144.814 50.7954 145.096 50.7042C145.375 50.609 145.671 50.5615 145.984 50.5615ZM145.794 54.1617C146.095 54.1617 146.353 54.0943 146.571 53.9555C146.788 53.8188 146.946 53.6185 147.048 53.3529V52.7105H145.81C145.131 52.7105 144.794 52.9464 144.794 53.4163C144.794 53.6502 144.881 53.8326 145.056 53.9635C145.235 54.0963 145.48 54.1617 145.794 54.1617Z" fill="#FF3131"/>
<path d="M151.053 50.5615C151.545 50.5615 151.936 50.7082 152.228 50.9976C152.523 51.2831 152.672 51.7014 152.672 52.2506V54.5424H152.14V52.3061C152.14 51.8937 152.037 51.5825 151.831 51.3703C151.625 51.1542 151.331 51.0452 150.95 51.0452C150.526 51.0452 150.191 51.1721 149.943 51.4258C149.693 51.6756 149.57 52.0246 149.57 52.4726V54.5424H149.038V50.5932H149.546V51.3228C149.693 51.0809 149.895 50.8925 150.149 50.7597C150.407 50.6289 150.708 50.5615 151.053 50.5615Z" fill="#FF3131"/>
<path d="M155.76 54.582C155.367 54.582 155.018 54.4988 154.712 54.3283C154.405 54.1538 154.165 53.9139 153.99 53.6066C153.816 53.3013 153.729 52.9544 153.729 52.5678C153.729 52.1832 153.816 51.8362 153.99 51.5289C154.165 51.2236 154.405 50.9857 154.712 50.8152C155.018 50.6467 155.367 50.5615 155.76 50.5615C156.103 50.5615 156.406 50.6289 156.672 50.7597C156.942 50.8925 157.152 51.0888 157.307 51.3465L156.91 51.6162C156.777 51.4219 156.611 51.2752 156.41 51.18C156.214 51.0809 155.998 51.0293 155.76 51.0293C155.474 51.0293 155.216 51.0928 154.99 51.2197C154.762 51.3465 154.585 51.5289 154.458 51.7668C154.332 52.0008 154.268 52.2664 154.268 52.5678C154.268 52.8751 154.332 53.1447 154.458 53.3767C154.585 53.6106 154.762 53.789 154.99 53.9159C155.216 54.0428 155.474 54.1062 155.76 54.1062C155.998 54.1062 156.214 54.0586 156.41 53.9635C156.611 53.8683 156.777 53.7236 156.91 53.5273L157.307 53.7969C157.152 54.0567 156.942 54.2529 156.672 54.3838C156.402 54.5166 156.097 54.582 155.76 54.582Z" fill="#FF3131"/>
<path d="M161.791 52.7343H158.491C158.516 53.1427 158.673 53.4718 158.959 53.7256C159.244 53.9793 159.605 54.1062 160.046 54.1062C160.288 54.1062 160.514 54.0646 160.72 53.9793C160.926 53.8901 161.103 53.7613 161.252 53.5908L161.553 53.9318C161.379 54.1439 161.158 54.3045 160.895 54.4155C160.635 54.5265 160.347 54.582 160.03 54.582C159.621 54.582 159.262 54.4948 158.951 54.3203C158.637 54.1459 158.395 53.908 158.221 53.6066C158.046 53.3013 157.959 52.9544 157.959 52.5678C157.959 52.1832 158.04 51.8362 158.205 51.5289C158.374 51.2236 158.604 50.9857 158.895 50.8152C159.191 50.6467 159.522 50.5615 159.887 50.5615C160.252 50.5615 160.579 50.6467 160.871 50.8152C161.16 50.9857 161.389 51.2236 161.553 51.5289C161.716 51.8303 161.799 52.1772 161.799 52.5678L161.791 52.7343ZM159.887 51.0214C159.506 51.0214 159.185 51.1443 158.927 51.3862C158.667 51.63 158.522 51.9472 158.491 52.3378H161.291C161.254 51.9472 161.105 51.63 160.847 51.3862C160.593 51.1443 160.272 51.0214 159.887 51.0214Z" fill="#FF3131"/>
<mask id="mask16_2039_10231" style="mask-type:luminance" maskUnits="userSpaceOnUse" x="81" y="52" width="3" height="2">
<path d="M81.4531 52.0849H83.042V53.6729H81.4531V52.0849Z" fill="white"/>
</mask>
<g mask="url(#mask16_2039_10231)">
<mask id="mask17_2039_10231" style="mask-type:luminance" maskUnits="userSpaceOnUse" x="81" y="52" width="3" height="2">
<path d="M82.2485 52.0849C81.8082 52.0849 81.4531 52.4398 81.4531 52.878C81.4531 53.3161 81.8082 53.6729 82.2485 53.6729C82.6869 53.6729 83.042 53.3161 83.042 52.878C83.042 52.4398 82.6869 52.0849 82.2485 52.0849Z" fill="white"/>
</mask>
<g mask="url(#mask17_2039_10231)">
<path d="M81.4531 52.0849H83.042V53.6729H81.4531V52.0849Z" fill="black"/>
</g>
</g>
<mask id="mask18_2039_10231" style="mask-type:luminance" maskUnits="userSpaceOnUse" x="109" y="52" width="2" height="2">
<path d="M109.406 52.0849H110.995V53.6729H109.406V52.0849Z" fill="white"/>
</mask>
<g mask="url(#mask18_2039_10231)">
<mask id="mask19_2039_10231" style="mask-type:luminance" maskUnits="userSpaceOnUse" x="109" y="52" width="2" height="2">
<path d="M110.2 52.0849C109.761 52.0849 109.406 52.4398 109.406 52.878C109.406 53.3161 109.761 53.6729 110.2 53.6729C110.638 53.6729 110.995 53.3161 110.995 52.878C110.995 52.4398 110.638 52.0849 110.2 52.0849Z" fill="white"/>
</mask>
<g mask="url(#mask19_2039_10231)">
<path d="M109.406 52.0849H110.995V53.6729H109.406V52.0849Z" fill="black"/>
</g>
</g>
<mask id="mask20_2039_10231" style="mask-type:luminance" maskUnits="userSpaceOnUse" x="10" y="3" width="9" height="10">
<path d="M10.1562 3.55269H18.281V12.1806H10.1562V3.55269Z" fill="white"/>
</mask>
<g mask="url(#mask20_2039_10231)">
<mask id="mask21_2039_10231" style="mask-type:luminance" maskUnits="userSpaceOnUse" x="8" y="2" width="12" height="11">
<path d="M8.94629 5.81475L15.9443 2.06381L19.5168 8.72114L12.5167 12.4741L8.94629 5.81475Z" fill="white"/>
</mask>
<g mask="url(#mask21_2039_10231)">
<mask id="mask22_2039_10231" style="mask-type:luminance" maskUnits="userSpaceOnUse" x="10" y="3" width="9" height="9">
<path d="M12.439 3.94324L14.6288 6.04274L17.2987 4.61334L15.9816 7.3413L18.1715 9.44277L15.1684 9.02843L13.8513 11.7584L13.3117 8.77268L10.3086 8.35833L12.9785 6.92695L12.439 3.94324Z" fill="white"/>
</mask>
<g mask="url(#mask22_2039_10231)">
<path d="M8.94629 5.81475L15.9443 2.06381L19.5168 8.72114L12.5167 12.4741L8.94629 5.81475Z" fill="#002AED"/>
</g>
</g>
</g>
<mask id="mask23_2039_10231" style="mask-type:luminance" maskUnits="userSpaceOnUse" x="21" y="0" width="9" height="8">
<path d="M21.083 0H29.0252V7.55541H21.083V0Z" fill="white"/>
</mask>
<g mask="url(#mask23_2039_10231)">
<mask id="mask24_2039_10231" style="mask-type:luminance" maskUnits="userSpaceOnUse" x="21" y="0" width="9" height="8">
<path d="M25.0482 0L25.9844 2.88656H29.0133L26.5616 4.66885L27.4979 7.55541L25.0482 5.77114L22.5965 7.55541L23.5327 4.66885L21.083 2.88656H24.1119L25.0482 0Z" fill="white"/>
</mask>
<g mask="url(#mask24_2039_10231)">
<path d="M21.083 0H29.0252V7.55541H21.083V0Z" fill="black"/>
</g>
</g>
<mask id="mask25_2039_10231" style="mask-type:luminance" maskUnits="userSpaceOnUse" x="31" y="3" width="10" height="10">
<path d="M31.9912 3.55269H40.1159V12.1806H31.9912V3.55269Z" fill="white"/>
</mask>
<g mask="url(#mask25_2039_10231)">
<mask id="mask26_2039_10231" style="mask-type:luminance" maskUnits="userSpaceOnUse" x="30" y="2" width="12" height="11">
<path d="M34.4604 2.10941L41.3771 6.01102L37.6618 12.591L30.7451 8.68743L34.4604 2.10941Z" fill="white"/>
</mask>
<g mask="url(#mask26_2039_10231)">
<mask id="mask27_2039_10231" style="mask-type:luminance" maskUnits="userSpaceOnUse" x="32" y="4" width="8" height="8">
<path d="M37.914 4.05624L37.311 7.03003L39.9472 8.51891L36.9361 8.86784L36.3331 11.8396L35.0755 9.08393L32.0645 9.43286L34.298 7.37896L33.0424 4.62126L35.6805 6.11014L37.914 4.05624Z" fill="white"/>
</mask>
<g mask="url(#mask27_2039_10231)">
<path d="M34.4604 2.10941L41.3771 6.01102L37.6618 12.591L30.7451 8.68743L34.4604 2.10941Z" fill="#FF3131"/>
</g>
</g>
</g>
<path d="M52.2354 57.9393H163.111" stroke="black" stroke-width="1.98718"/>
<mask id="mask28_2039_10231" style="mask-type:luminance" maskUnits="userSpaceOnUse" x="13" y="36" width="2" height="3">
<path d="M13.7109 36.0344H14.7265V38.572H13.7109V36.0344Z" fill="white"/>
</mask>
<g mask="url(#mask28_2039_10231)">
<mask id="mask29_2039_10231" style="mask-type:luminance" maskUnits="userSpaceOnUse" x="7" y="23" width="16" height="21">
<path d="M22.827 40.1838L13.5974 43.5878L7.57129 27.2657L16.8028 23.8617L22.827 40.1838Z" fill="white"/>
</mask>
<g mask="url(#mask29_2039_10231)">
<mask id="mask30_2039_10231" style="mask-type:luminance" maskUnits="userSpaceOnUse" x="7" y="23" width="16" height="21">
<path d="M22.827 40.1838L13.5974 43.5878L7.57129 27.2657L16.8028 23.8617L22.827 40.1838Z" fill="white"/>
</mask>
<g mask="url(#mask30_2039_10231)">
<path d="M14.1448 37.8782C14.1567 38.126 14.4066 38.2092 14.4066 38.2092L14.3134 36.1871C14.3134 36.1871 14.1924 36.1752 14.0654 36.1454L14.1448 37.8782Z" fill="black"/>
</g>
</g>
</g>
<mask id="mask31_2039_10231" style="mask-type:luminance" maskUnits="userSpaceOnUse" x="16" y="35" width="2" height="4">
<path d="M16.249 35.5269H17.2646V38.572H16.249V35.5269Z" fill="white"/>
</mask>
<g mask="url(#mask31_2039_10231)">
<mask id="mask32_2039_10231" style="mask-type:luminance" maskUnits="userSpaceOnUse" x="7" y="23" width="16" height="21">
<path d="M22.827 40.1838L13.5974 43.5878L7.57129 27.2657L16.8028 23.8617L22.827 40.1838Z" fill="white"/>
</mask>
<g mask="url(#mask32_2039_10231)">
<mask id="mask33_2039_10231" style="mask-type:luminance" maskUnits="userSpaceOnUse" x="7" y="23" width="16" height="21">
<path d="M22.827 40.1838L13.5974 43.5878L7.57129 27.2657L16.8028 23.8617L22.827 40.1838Z" fill="white"/>
</mask>
<g mask="url(#mask33_2039_10231)">
<path d="M17.0548 37.7453C17.0647 37.9912 16.8227 38.0982 16.8227 38.0982L16.7295 36.076C16.7295 36.076 16.8505 36.0542 16.9735 36.0126L17.0548 37.7453Z" fill="black"/>
</g>
</g>
</g>
<mask id="mask34_2039_10231" style="mask-type:luminance" maskUnits="userSpaceOnUse" x="12" y="24" width="7" height="19">
<path d="M12.1875 24.8688H18.7888V42.6323H12.1875V24.8688Z" fill="white"/>
</mask>
<g mask="url(#mask34_2039_10231)">
<mask id="mask35_2039_10231" style="mask-type:luminance" maskUnits="userSpaceOnUse" x="7" y="23" width="16" height="21">
<path d="M22.827 40.1838L13.5974 43.5878L7.57129 27.2657L16.8028 23.8617L22.827 40.1838Z" fill="white"/>
</mask>
<g mask="url(#mask35_2039_10231)">
<mask id="mask36_2039_10231" style="mask-type:luminance" maskUnits="userSpaceOnUse" x="7" y="23" width="16" height="21">
<path d="M22.827 40.1838L13.5974 43.5878L7.57129 27.2657L16.8028 23.8617L22.827 40.1838Z" fill="white"/>
</mask>
<g mask="url(#mask36_2039_10231)">
<path d="M13.0358 40.8004C13.0358 40.8004 13.1667 40.8757 13.3095 40.8777L13.3174 41.078C13.3174 41.078 13.1349 41.0681 13.0437 40.9987L13.0358 40.8004ZM14.7535 40.8658L14.8864 40.8599L14.9003 41.1533L14.7654 41.1593L14.7535 40.8658ZM15.1959 40.8777C15.1959 40.8777 15.6957 40.8718 16.2749 40.8262L16.2868 41.0621C16.2868 41.0621 15.6561 41.1236 15.2058 41.1117L15.1959 40.8777ZM16.6141 40.7806L16.749 40.7727L16.7629 41.0661L16.628 41.074L16.6141 40.7806ZM18.1534 40.6537C18.2942 40.6398 18.4172 40.5506 18.4172 40.5506L18.4271 40.7508C18.3438 40.8282 18.1613 40.8559 18.1613 40.8559L18.1534 40.6537ZM13.1329 41.1474C13.6983 41.2009 14.6067 41.2564 15.7374 41.2029H15.7652C16.8958 41.1493 17.7963 41.0125 18.3537 40.9075C18.4549 40.8876 18.5422 40.8321 18.6036 40.7548L18.5878 40.398C18.5203 40.4416 18.445 40.4733 18.3616 40.4892C17.8003 40.5962 16.8898 40.735 15.7473 40.7885H15.7175C14.575 40.842 13.6566 40.7885 13.0853 40.733C13.002 40.7251 12.9247 40.7013 12.8533 40.6636L12.8691 41.0205C12.9386 41.0899 13.0298 41.1374 13.1329 41.1474ZM17.2608 25.2197L16.8006 25.2415L16.8105 25.4537L17.2687 25.4319L17.2608 25.2197ZM13.0635 41.411C13.0635 41.411 13.242 41.4824 13.3353 41.4546L13.3551 41.9047C13.3551 41.9047 13.1726 41.8888 13.0754 41.6925L13.0635 41.411ZM14.7853 41.5855L14.9201 41.5795L14.94 41.9879L14.8051 41.9939L14.7853 41.5855ZM15.2276 41.5657C15.2276 41.5657 15.7275 41.5736 16.3067 41.5141L16.3265 41.9463C16.3265 41.9463 15.6977 42.0355 15.2474 41.9959L15.2276 41.5657ZM16.6478 41.4983L16.7827 41.4923L16.8006 41.9027L16.6677 41.9086L16.6478 41.4983ZM18.1792 41.2326C18.2744 41.2504 18.4469 41.1632 18.4469 41.1632L18.4588 41.4447C18.3815 41.6489 18.201 41.6807 18.201 41.6807L18.1792 41.2326ZM13.3373 42.0593C13.8232 42.1069 14.7 42.1624 15.7929 42.1109C16.8879 42.0613 17.7547 41.9245 18.2347 41.8333C18.4727 41.7877 18.6413 41.5736 18.6314 41.3317L18.6155 41.0125C18.5501 41.0581 18.4727 41.0899 18.3914 41.1057C17.8281 41.2128 16.9176 41.3516 15.7751 41.4031C15.7652 41.4051 15.7552 41.4051 15.7473 41.4051C14.6028 41.4586 13.6844 41.4031 13.1151 41.3476C13.0318 41.3397 12.9524 41.3159 12.881 41.2782L12.8969 41.5954C12.9068 41.8393 13.0953 42.0355 13.3373 42.0593ZM15.4458 34.5892C15.6561 34.5812 15.8187 34.4028 15.8088 34.1927L15.66 30.9651C15.6501 30.7569 15.4716 30.5944 15.2633 30.6043C15.053 30.6122 14.8904 30.7906 14.9003 31.0008L15.0491 34.2283C15.059 34.4365 15.2375 34.5991 15.4458 34.5892ZM14.7654 31.0067C14.7515 30.7232 14.9717 30.4814 15.2554 30.4695C15.541 30.4556 15.781 30.6756 15.7949 30.9591L15.9437 34.1867C15.9576 34.4702 15.7374 34.7121 15.4517 34.724C15.1681 34.7378 14.9281 34.5178 14.9142 34.2343L14.7654 31.0067ZM15.9893 30.2732C15.9933 30.2395 15.9992 30.1899 16.0131 30.1285C16.0409 30.0036 16.0885 29.8232 16.1916 29.6269C16.2432 29.5278 16.3087 29.4247 16.39 29.3275C16.4733 29.2284 16.5725 29.1332 16.6895 29.052C16.747 29.0123 16.8085 28.9746 16.874 28.9429C16.9077 28.9271 16.9394 28.9112 16.9751 28.8973C17.0089 28.8834 17.0426 28.8715 17.0763 28.8577C17.1418 28.8339 17.1993 28.8081 17.233 28.7685C17.2667 28.7288 17.2846 28.6713 17.2905 28.6059C17.2965 28.5405 17.2925 28.4711 17.2905 28.3977C17.2866 28.3264 17.2846 28.255 17.2806 28.1836C17.2747 28.0409 17.2727 27.9001 17.2667 27.7633C17.2588 27.4917 17.2548 27.2379 17.2548 27.0199C17.2489 26.5857 17.2588 26.2943 17.2588 26.2943C17.2588 26.2943 17.2945 26.5837 17.3302 27.0179C17.35 27.234 17.3679 27.4877 17.3857 27.7594C17.3937 27.8942 17.4036 28.0349 17.4115 28.1777C17.4155 28.249 17.4195 28.3204 17.4214 28.3918C17.4254 28.4631 17.4314 28.5385 17.4234 28.6198C17.4195 28.6594 17.4135 28.6991 17.3976 28.7407C17.3837 28.7804 17.3639 28.822 17.3322 28.8557C17.2687 28.9251 17.1874 28.9548 17.1199 28.9806C17.0505 29.0044 16.991 29.0262 16.9295 29.0559C16.868 29.0837 16.8085 29.1154 16.755 29.1511C16.6459 29.2225 16.5487 29.3037 16.4654 29.393C16.384 29.4822 16.3146 29.5753 16.2591 29.6646C16.146 29.847 16.0786 30.0155 16.0389 30.1344C16.019 30.1939 16.0052 30.2415 15.9972 30.2752C15.9873 30.3069 15.9833 30.3267 15.9833 30.3228C15.9833 30.3267 15.9853 30.3069 15.9893 30.2732ZM12.9544 29.2661L12.9643 29.4683L13.4225 29.4465L13.4206 29.391C13.9244 29.613 14.2775 30.1067 14.3033 30.6816L14.3211 31.0702L14.4937 34.9242C14.5076 35.2236 14.4719 35.519 14.3925 35.8025C14.7595 35.8461 15.1284 35.8619 15.4974 35.8461L15.5053 35.8441C15.8723 35.8282 16.2392 35.7787 16.5983 35.6994C16.4951 35.4258 16.4316 35.1344 16.4177 34.835L16.2353 30.9829L16.2174 30.5924C16.1896 30.0155 16.4991 29.4901 16.985 29.2225L16.987 29.2819L17.4472 29.2601L17.4373 29.0579C17.5385 29.0163 17.6039 28.9132 17.6 28.8022L17.4532 25.6262L17.3857 25.6301L17.3837 25.5984C17.3818 25.5211 17.3143 25.4596 17.237 25.4636L16.8462 25.4814C16.7688 25.4854 16.7073 25.5508 16.7113 25.6301L16.7133 25.6757C16.5744 25.7134 16.4495 25.7966 16.3602 25.9156C16.7054 26.2348 16.9315 26.6848 16.9553 27.1923C17.0029 28.2153 16.2134 29.0817 15.1899 29.1313C14.1684 29.1749 13.3016 28.3858 13.2539 27.3628C13.2301 26.8553 13.4146 26.3855 13.73 26.0365C13.6328 25.9295 13.5039 25.8581 13.363 25.8323L13.3611 25.7848C13.3571 25.7055 13.2916 25.646 13.2143 25.6499L12.8235 25.6678C12.7442 25.6718 12.6847 25.7372 12.6886 25.8145L12.6906 25.8462L12.6152 25.8502L12.762 29.0242C12.766 29.1392 12.8473 29.2363 12.9544 29.2661ZM13.006 40.1739C13.006 40.1739 13.1369 40.2513 13.2797 40.2513L13.2896 40.4535C13.2896 40.4535 13.1052 40.4436 13.0159 40.3742L13.006 40.1739ZM14.7258 40.2731L14.8606 40.2671L14.8745 40.5605L14.7396 40.5665L14.7258 40.2731ZM15.1681 40.275C15.1681 40.275 15.668 40.2691 16.2472 40.2255L16.2591 40.4594C16.2591 40.4594 15.6283 40.5209 15.178 40.509L15.1681 40.275ZM16.5883 40.1878L16.7212 40.1819L16.7351 40.4753L16.6002 40.4812L16.5883 40.1878ZM18.1236 40.0292C18.2664 40.0153 18.3894 39.9261 18.3894 39.9261L18.3974 40.1264C18.314 40.2017 18.1335 40.2314 18.1335 40.2314L18.1236 40.0292ZM13.1052 40.5308C13.6685 40.5863 14.577 40.6398 15.7096 40.5883L15.7374 40.5863C16.868 40.5348 17.7686 40.396 18.324 40.2909C18.4251 40.2711 18.5144 40.2156 18.5759 40.1382L18.56 39.7814C18.4926 39.825 18.4152 39.8587 18.3339 39.8726C17.7705 39.9796 16.8601 40.1184 15.7175 40.172L15.6898 40.1739C14.5472 40.2255 13.6288 40.172 13.0576 40.1164C12.9743 40.1085 12.8949 40.0847 12.8255 40.0471L12.8414 40.4039C12.9088 40.4753 13.002 40.5209 13.1052 40.5308ZM15.053 26.0742C15.7175 26.0445 16.2829 26.5579 16.3126 27.2221C16.3424 27.8862 15.8286 28.4493 15.1641 28.481C14.4996 28.5107 13.9363 27.9973 13.9046 27.3331C13.8748 26.669 14.3886 26.1039 15.053 26.0742ZM15.0729 25.8046C15.8861 25.7669 16.5764 26.3954 16.6121 27.2082C16.6498 28.021 16.023 28.709 15.2097 28.7466C15.1959 28.7466 15.184 28.7466 15.1701 28.7466C15.9635 28.6892 16.5705 28.0111 16.5328 27.2122C16.4971 26.4132 15.8286 25.7927 15.0352 25.8085C15.0471 25.8066 15.061 25.8066 15.0729 25.8046ZM15.1859 28.9508C16.1123 28.9092 16.8264 28.1241 16.7847 27.2003C16.7411 26.2764 15.9576 25.5607 15.0312 25.6024C14.1069 25.646 13.3908 26.4291 13.4345 27.3549C13.4761 28.2788 14.2616 28.9945 15.1859 28.9508ZM12.8156 36.0265C12.8057 35.8163 13.0774 35.8798 13.0774 35.8798L13.2599 39.825C13.0953 39.8329 12.9862 39.7338 12.9862 39.7338L12.8156 36.0265ZM13.976 36.0503C13.9918 36.0523 14.0077 36.0562 14.0256 36.0582C15.0134 36.2188 16.029 36.1712 16.997 35.9214C17.0128 35.9174 17.0287 35.9135 17.0465 35.9095L17.1318 37.779C17.1418 37.9971 16.9731 38.1835 16.753 38.1934L14.4758 38.2985C14.2576 38.3084 14.0712 38.1379 14.0613 37.9198L13.976 36.0503ZM16.7014 39.7517L16.5685 39.7576L16.5011 38.2985L16.634 38.2925L16.7014 39.7517ZM16.2253 39.7318C16.2253 39.7318 15.7017 39.8488 15.1443 39.7814L15.0788 38.3639L16.1599 38.3143L16.2253 39.7318ZM14.8408 39.8369L14.7059 39.8429L14.6385 38.3837L14.7734 38.3778L14.8408 39.8369ZM17.9213 35.6558C17.9213 35.6558 18.1871 35.5685 18.197 35.7787L18.3696 39.486C18.3696 39.486 18.2684 39.595 18.1038 39.603L17.9213 35.6558ZM13.0774 39.9162C13.6427 39.9697 14.5572 40.0252 15.6937 39.9717L15.7096 39.9697C16.8402 39.9182 17.7388 39.7814 18.2962 39.6743C18.3974 39.6565 18.4866 39.599 18.5481 39.5217L18.3696 35.6637C18.3656 35.5883 18.3021 35.5289 18.2248 35.5328L17.8539 35.5487C17.7091 35.5566 17.5662 35.5844 17.4314 35.6339C17.3342 35.6677 17.2032 35.7113 17.0386 35.7588C17.0227 35.7628 17.0069 35.7668 16.989 35.7727C16.023 36.0384 15.0054 36.086 14.0196 35.9095C14.0018 35.9056 13.9859 35.9036 13.968 35.8996C13.8014 35.8679 13.6665 35.8381 13.5674 35.8124C13.4265 35.7747 13.2817 35.7608 13.1369 35.7668L12.766 35.7846C12.6906 35.7886 12.6311 35.852 12.6351 35.9274L12.8136 39.7873C12.881 39.8587 12.9743 39.9063 13.0774 39.9162ZM13.2361 25.4041L12.7779 25.4259L12.7878 25.64L13.246 25.6182L13.2361 25.4041Z" fill="black"/>
</g>
</g>
</g>
<mask id="mask37_2039_10231" style="mask-type:luminance" maskUnits="userSpaceOnUse" x="14" y="36" width="3" height="3">
<path d="M14.7256 36.0344H16.249V38.0645H14.7256V36.0344Z" fill="white"/>
</mask>
<g mask="url(#mask37_2039_10231)">
<mask id="mask38_2039_10231" style="mask-type:luminance" maskUnits="userSpaceOnUse" x="7" y="23" width="16" height="21">
<path d="M22.827 40.1838L13.5974 43.5878L7.57129 27.2657L16.8028 23.8617L22.827 40.1838Z" fill="white"/>
</mask>
<g mask="url(#mask38_2039_10231)">
<mask id="mask39_2039_10231" style="mask-type:luminance" maskUnits="userSpaceOnUse" x="7" y="23" width="16" height="21">
<path d="M22.827 40.1838L13.5974 43.5878L7.57129 27.2657L16.8028 23.8617L22.827 40.1838Z" fill="white"/>
</mask>
<g mask="url(#mask39_2039_10231)">
<path d="M15.4702 36.5538C15.4801 36.5518 15.4901 36.5499 15.5 36.5499C15.8114 36.536 16.0752 36.7759 16.0911 37.0891C16.105 37.4004 15.863 37.664 15.5515 37.6779C15.5416 37.6779 15.5317 37.6779 15.5218 37.6779C15.8193 37.6482 16.0455 37.3924 16.0316 37.0911C16.0177 36.7898 15.7697 36.5558 15.4702 36.5538ZM15.5952 37.7889C15.9502 37.7731 16.226 37.4559 16.2081 37.0832C16.1903 36.7085 15.8888 36.419 15.5317 36.4369C15.1767 36.4527 14.9009 36.7679 14.9188 37.1426C14.9366 37.5154 15.2381 37.8048 15.5952 37.7889Z" fill="black"/>
</g>
</g>
</g>
<mask id="mask40_2039_10231" style="mask-type:luminance" maskUnits="userSpaceOnUse" x="17" y="25" width="17" height="18">
<path d="M17.2646 25.3763H33.0063V42.6323H17.2646V25.3763Z" fill="white"/>
</mask>
<g mask="url(#mask40_2039_10231)">
<mask id="mask41_2039_10231" style="mask-type:luminance" maskUnits="userSpaceOnUse" x="15" y="23" width="21" height="22">
<path d="M21.9483 23.2055L35.633 38.8793L29.6466 44.1013L15.9619 28.4275L21.9483 23.2055Z" fill="white"/>
</mask>
<g mask="url(#mask41_2039_10231)">
<mask id="mask42_2039_10231" style="mask-type:luminance" maskUnits="userSpaceOnUse" x="15" y="23" width="21" height="22">
<path d="M21.9483 23.2055L35.633 38.8793L29.6466 44.1013L15.9619 28.4275L21.9483 23.2055Z" fill="white"/>
</mask>
<g mask="url(#mask42_2039_10231)">
<path d="M30.4932 41.2742L31.4532 41.9047C30.8641 42.0791 30.2889 42.0177 29.8148 41.7223C29.7394 41.6747 29.67 41.6232 29.6026 41.5676C29.5827 41.5498 29.5609 41.528 29.5371 41.5042C29.4875 41.4546 29.4359 41.3912 29.3784 41.3159C29.3229 41.2425 29.2713 41.1513 29.2237 41.0502C29.1801 40.9491 29.1444 40.8341 29.1265 40.7112C29.1106 40.5883 29.1106 40.4574 29.1325 40.3246C29.1404 40.2572 29.1582 40.1898 29.1761 40.1224C29.186 40.0887 29.1979 40.055 29.2078 40.0213C29.2197 39.9876 29.2336 39.9539 29.2455 39.9202C29.3011 39.7854 29.3705 39.6525 29.4478 39.5237C29.5272 39.3968 29.6105 39.2679 29.7017 39.1529C29.791 39.034 29.8862 38.9289 29.9874 38.8397C30.0885 38.7505 30.1957 38.6771 30.3087 38.6236C30.4198 38.5701 30.5329 38.5324 30.6439 38.5086C30.753 38.4848 30.8562 38.4709 30.9514 38.463C30.999 38.4571 31.0426 38.4551 31.0843 38.4551C31.126 38.4511 31.1636 38.4511 31.1993 38.4491C31.3382 38.4491 31.4175 38.4471 31.4175 38.4471C31.4175 38.4471 31.3997 38.4412 31.364 38.4273C31.3283 38.4174 31.2747 38.3996 31.2073 38.3817C31.1379 38.3639 31.0545 38.3441 30.9554 38.3302C30.8562 38.3163 30.7431 38.3084 30.6182 38.3123C30.4912 38.3183 30.3543 38.3401 30.2135 38.3897C30.0707 38.4372 29.9299 38.5146 29.8009 38.6117C29.7017 38.687 29.6105 38.7743 29.5272 38.8694C29.0809 38.4214 28.6604 37.9912 28.2617 37.5768C28.2934 37.557 28.3271 37.5352 28.3589 37.5134C28.4085 37.5649 28.458 37.6125 28.4997 37.6561C28.7199 37.8702 28.8448 37.9931 28.8448 37.9931C28.8448 37.9931 28.7298 37.8603 28.5314 37.6264C28.4937 37.5828 28.4501 37.5332 28.4065 37.4836C28.5969 37.3548 28.7754 37.21 28.942 37.0594C28.9797 37.107 29.0115 37.1466 29.0392 37.1803C29.8069 38.1458 30.3643 38.1736 30.8542 38.1993C31.1974 38.2172 31.5207 38.235 31.9233 38.5681C32.5859 39.1212 32.6791 39.5891 32.6731 39.825L31.5048 39.1628L31.4552 39.1728C31.4275 39.1787 30.755 39.3254 30.3881 39.9618C30.0072 40.624 30.4595 41.2306 30.4793 41.2564L30.4932 41.2742ZM28.8111 39.7715C28.7873 39.6783 28.7457 39.5415 28.6663 39.3809C28.6266 39.3016 28.5751 39.2164 28.5116 39.1291C28.4461 39.0439 28.3668 38.9547 28.2875 38.8595C28.1248 38.6672 27.9403 38.4491 27.742 38.2112C27.6666 38.12 27.5853 38.0249 27.5039 37.9277C27.5396 37.9158 27.5734 37.9039 27.6091 37.892C27.6785 37.9813 27.7479 38.0685 27.8134 38.1537C28.0058 38.3976 28.1803 38.6216 28.3331 38.8218C28.4104 38.921 28.4838 39.0122 28.5473 39.1034C28.6088 39.1946 28.6564 39.2838 28.6941 39.367C28.7695 39.5336 28.7992 39.6743 28.8191 39.7695C28.8369 39.8647 28.8429 39.9162 28.8429 39.9162C28.8429 39.9162 28.8349 39.8647 28.8111 39.7715ZM26.4467 36.8928C26.4606 36.9682 26.4943 37.0514 26.5419 37.1307C26.5895 37.212 26.651 37.2894 26.7145 37.3627C26.7204 37.3706 26.7264 37.3766 26.7323 37.3825C26.6768 37.3449 26.6292 37.3032 26.5915 37.2616C26.1968 36.8274 26.2067 36.7521 27.2957 35.7688C27.3889 35.6835 27.4722 35.6042 27.5436 35.5308C27.5793 35.5011 27.7261 35.3861 27.8808 35.2731C28.0554 35.1443 28.2399 35.0253 28.2399 35.0253C28.2399 35.0253 28.0355 35.1046 27.8352 35.1938C28.1308 34.7874 28.0058 34.6486 28.0058 34.6486C27.8471 35.0451 27.5615 35.2652 26.7641 35.9392C26.5399 36.1296 26.3634 36.2664 26.2126 36.3496C26.2027 36.3477 26.1908 36.3457 26.1769 36.3417C26.1353 36.3318 26.0738 36.3139 26.0024 36.2802C25.931 36.2485 25.8496 36.2029 25.7683 36.1434C25.6791 36.076 25.5858 36.0047 25.4946 35.9333C25.3141 35.7886 25.1494 35.626 25.0661 35.4753C25.0245 35.4 25.0046 35.3306 24.9967 35.2811C24.9908 35.2295 24.9947 35.1998 24.9947 35.1998C24.9947 35.1998 24.9848 35.2275 24.9808 35.2811C24.9769 35.3326 24.9808 35.4099 25.0086 35.4991C25.0641 35.6776 25.201 35.8857 25.3538 36.0721C25.4271 36.1613 25.5005 36.2485 25.57 36.3278C25.441 36.2366 25.2982 36.0939 25.1217 35.8937C24.5702 35.2711 24.8321 35.0669 25.7703 34.2719C25.933 34.1351 26.0639 34.0122 26.1749 33.9032C26.1908 33.8893 26.2146 33.8695 26.2424 33.8457C26.3059 33.7922 26.3931 33.7228 26.4824 33.6574C26.6589 33.5245 26.8494 33.4076 26.8494 33.4076C26.8494 33.4076 26.6689 33.475 26.4784 33.5602C26.7264 33.2272 26.657 33.1082 26.657 33.1082C26.3436 33.5166 25.5462 34.2026 24.8321 34.7775C24.8083 34.7953 24.7845 34.8092 24.7626 34.8231C24.717 34.8132 24.6555 34.7914 24.5841 34.7596C24.5048 34.724 24.4135 34.6744 24.3223 34.607C24.2231 34.5317 24.12 34.4543 24.0188 34.3731C23.8185 34.2125 23.636 34.0321 23.5447 33.8655C23.4971 33.7823 23.4753 33.7049 23.4674 33.6474C23.4614 33.5919 23.4654 33.5582 23.4654 33.5582C23.4654 33.5582 23.4634 33.5662 23.4594 33.582C23.4555 33.5979 23.4515 33.6197 23.4495 33.6494C23.4436 33.7069 23.4495 33.7942 23.4793 33.8913C23.5388 34.0896 23.6935 34.3215 23.8621 34.5297C23.9355 34.6189 24.0089 34.7041 24.0803 34.7854C23.8343 34.6209 23.6241 34.3413 23.4773 34.153C23.0409 33.6058 23.4773 33.3084 23.9633 32.8941C24.2866 32.6185 24.5266 32.3945 24.7051 32.2121C24.723 32.1982 24.7428 32.1824 24.7686 32.1625C24.8341 32.113 24.9233 32.0495 25.0165 31.9901C25.1098 31.9306 25.207 31.8771 25.2804 31.8394C25.3557 31.8017 25.4073 31.7819 25.4073 31.7819C25.4073 31.7819 25.3518 31.7918 25.2704 31.8116C25.1931 31.8334 25.0899 31.8652 24.9868 31.9048C25.2585 31.5757 25.2268 31.4805 25.2268 31.4805C25.2268 31.4805 24.0724 32.5729 23.5229 32.9496C23.511 32.9575 23.4991 32.9635 23.4892 32.9694C23.4872 32.9694 23.4852 32.9694 23.4813 32.9674C23.4694 32.9655 23.4515 32.9615 23.4277 32.9536C23.3801 32.9377 23.3107 32.9119 23.2293 32.8683C23.148 32.8267 23.0568 32.7672 22.9655 32.6939C22.8644 32.6086 22.7652 32.5234 22.668 32.4302C22.6184 32.3846 22.5708 32.339 22.5272 32.2894C22.4815 32.2418 22.4399 32.1943 22.4022 32.1447C22.3645 32.0971 22.3308 32.0475 22.303 31.998C22.2733 31.9504 22.2495 31.9028 22.2336 31.8552C22.2157 31.8096 22.2019 31.766 22.1959 31.7264C22.188 31.6847 22.186 31.6491 22.184 31.6193C22.182 31.5896 22.186 31.5678 22.186 31.5519C22.186 31.5341 22.186 31.5261 22.186 31.5261C22.186 31.5261 22.184 31.5341 22.18 31.5499C22.178 31.5658 22.1681 31.5896 22.1642 31.6193C22.1602 31.6491 22.1542 31.6847 22.1542 31.7284C22.1523 31.772 22.1562 31.8215 22.1661 31.8731C22.182 31.9801 22.2237 32.0991 22.2832 32.22C22.3109 32.2795 22.3447 32.341 22.3824 32.4004C22.4181 32.4599 22.4577 32.5194 22.4974 32.5769C22.5767 32.6919 22.664 32.8049 22.7434 32.904C22.7612 32.9278 22.7791 32.9496 22.7989 32.9714C22.5291 32.8148 22.2832 32.4976 22.0888 32.109C22.0094 31.7878 22.0352 31.4726 22.1701 31.1851C22.2594 31.0662 22.3962 30.9334 22.6085 30.7946C23.3265 30.3247 23.6261 30.0848 24.1319 29.6943C24.6357 29.3037 25.2903 28.9033 25.8953 29.2086C26.2979 29.4128 26.4546 29.7161 26.7085 29.9223C26.6867 29.954 26.6669 29.9877 26.651 30.0254C26.5955 30.1364 26.5657 30.2514 26.5657 30.2514C26.5657 30.2514 26.6609 30.178 26.7601 30.1304C26.8117 30.1047 26.8613 30.0868 26.897 30.0769C26.9148 30.073 26.9307 30.069 26.9386 30.069C26.9426 30.069 26.9485 30.069 26.9466 30.069C26.9466 30.071 26.9485 30.071 26.9485 30.071V30.069C26.9862 30.0848 27.0259 30.0987 27.0715 30.1106C27.4405 30.2097 27.5952 30.293 27.7717 30.4972C27.8531 30.5884 27.9364 30.7034 28.0474 30.8561C28.097 30.9235 28.1308 30.9809 28.1546 31.0305C28.1308 30.9909 28.107 30.9532 28.0812 30.9195C28.0514 30.8779 28.0197 30.8442 27.9879 30.8085C27.9264 30.7411 27.865 30.6836 27.8094 30.636C27.7023 30.5408 27.619 30.4853 27.619 30.4853C27.619 30.4853 27.6626 30.5745 27.744 30.6935C27.7836 30.7549 27.8332 30.8223 27.8848 30.8937C27.9086 30.9294 27.9344 30.9671 27.9602 31.0028C27.986 31.0404 28.0098 31.0781 28.0296 31.1177C28.0494 31.1554 28.0673 31.1931 28.0772 31.2307C28.0851 31.2704 28.0931 31.3061 28.0911 31.3457C28.0891 31.3834 28.0851 31.4211 28.0752 31.4568C28.0673 31.4944 28.0534 31.5281 28.0435 31.5618C28.0316 31.5936 28.0157 31.6233 28.0058 31.6491C27.9959 31.6768 27.984 31.6986 27.976 31.7184C27.9582 31.7561 27.9502 31.7799 27.9502 31.7799C27.8907 31.8592 27.8431 31.9088 27.8431 31.9088C27.8431 31.9088 28.2756 31.7026 28.5156 31.9801C28.7437 32.2696 28.8984 32.452 28.9817 32.6364C28.9242 32.5412 28.8587 32.452 28.7913 32.3766C28.7199 32.2914 28.6445 32.222 28.581 32.1625C28.4521 32.0436 28.3549 31.9762 28.3549 31.9762C28.3549 31.9762 28.4144 32.0793 28.5156 32.22C28.5652 32.2894 28.6227 32.3707 28.6842 32.4579C28.7179 32.5015 28.7437 32.5491 28.7774 32.5927C28.8052 32.6403 28.8369 32.6859 28.8627 32.7335C28.8924 32.7811 28.9143 32.8306 28.9381 32.8782C28.9559 32.9278 28.9797 32.9754 28.9896 33.023C29.0055 33.0705 29.0095 33.1181 29.0174 33.1637C29.0174 33.2073 29.0234 33.2529 29.0174 33.2926C29.0154 33.3124 29.0134 33.3322 29.0115 33.3501C29.0075 33.3679 29.0035 33.3858 28.9996 33.4016C28.9916 33.4353 28.9837 33.4651 28.9738 33.4888C28.9579 33.5325 28.948 33.5602 28.948 33.5622C28.8706 33.7208 28.7794 33.808 28.7794 33.808C28.7794 33.808 29.2217 33.586 29.4439 33.8378C29.5252 33.9349 29.6045 34.0301 29.67 34.1312C29.6998 34.1788 29.7236 34.2363 29.7434 34.2997C29.7374 34.2898 29.7315 34.2799 29.7255 34.27C29.6958 34.2244 29.666 34.1827 29.6343 34.1451C29.5728 34.0677 29.5074 34.0043 29.4498 33.9508C29.3348 33.8477 29.2455 33.7902 29.2455 33.7902C29.2455 33.7902 29.2971 33.8814 29.3824 34.0083C29.424 34.0717 29.4736 34.1451 29.5252 34.2244C29.553 34.262 29.5728 34.3056 29.5986 34.3453C29.6224 34.3869 29.6442 34.4286 29.6621 34.4722C29.6819 34.5158 29.6998 34.5594 29.7097 34.605C29.7236 34.6486 29.7315 34.6922 29.7374 34.7359C29.7434 34.7815 29.7474 34.8231 29.7474 34.8647C29.7494 34.9064 29.7454 34.946 29.7454 34.9837C29.7434 35.0213 29.7374 35.055 29.7355 35.0868C29.7335 35.1165 29.7275 35.1443 29.7255 35.1661C29.7196 35.1998 29.7176 35.2236 29.7176 35.2335C29.6522 35.4773 29.5431 35.7291 29.3844 35.9551C28.4541 37.0514 27.7836 37.4321 27.3234 37.4975C27.3036 37.4916 27.2838 37.4836 27.26 37.4737C27.1985 37.4499 27.129 37.4182 27.0596 37.3786C27.0239 37.3587 26.9942 37.3349 26.9525 37.3092C26.9148 37.2834 26.8752 37.2556 26.8375 37.2299C26.6887 37.1248 26.5538 37.0019 26.5022 36.877C26.4765 36.8155 26.4705 36.758 26.4705 36.7184C26.4725 36.6767 26.4784 36.6549 26.4784 36.6549C26.4784 36.6549 26.4685 36.6748 26.4566 36.7144C26.4447 36.7561 26.4348 36.8175 26.4467 36.8928ZM23.3563 35.5903C23.3523 35.5923 23.3484 35.5943 23.3444 35.5963C23.3424 35.5963 23.3424 35.5983 23.3404 35.5983L23.3384 35.6002C23.1103 35.7172 22.785 35.7688 22.4458 35.4278C22.303 35.285 22.1324 35.1026 21.9519 34.8964C21.4759 34.3493 20.9423 33.6455 20.73 33.1003C20.73 33.0983 20.73 33.0923 20.732 33.0864C20.732 33.0804 20.732 33.0705 20.734 33.0606C20.734 33.0547 20.734 33.0487 20.736 33.0408C20.738 33.0111 20.7459 32.9655 20.7618 32.908C20.7776 32.8525 20.8074 32.787 20.8431 32.7196C20.8808 32.6502 20.9264 32.5789 20.98 32.5095C21.0058 32.4758 21.0335 32.4421 21.0613 32.4084C21.0891 32.3766 21.1168 32.3449 21.1466 32.3152C21.1763 32.2855 21.2021 32.2557 21.2299 32.2299C21.2597 32.2042 21.2854 32.1784 21.3092 32.1566C21.3568 32.109 21.4025 32.0753 21.4302 32.0495C21.462 32.0238 21.4778 32.0099 21.4778 32.0099C21.4778 32.0099 21.458 32.0198 21.4243 32.0396C21.3886 32.0575 21.339 32.0832 21.2815 32.1169C21.2517 32.1348 21.22 32.1546 21.1863 32.1744C21.1525 32.1943 21.1208 32.218 21.0851 32.2418C21.0494 32.2656 21.0137 32.2914 20.978 32.3192C20.9403 32.3449 20.9046 32.3747 20.8689 32.4044C20.8213 32.446 20.7757 32.4897 20.732 32.5353C20.9244 32.2914 21.3568 31.885 21.6861 31.7204C21.6841 31.8176 21.6921 31.9147 21.706 32.0138C21.5532 32.2835 21.46 32.6879 21.8488 33.134C22.2376 33.582 22.4637 33.9607 22.5589 34.3076C22.5629 34.3195 22.5648 34.3314 22.5688 34.3433C22.5133 34.3849 22.4577 34.4345 22.4062 34.4861C22.3566 34.5356 22.3129 34.5872 22.2733 34.6387C22.2534 34.6625 22.2376 34.6883 22.2217 34.7121C22.2038 34.7359 22.1899 34.7596 22.178 34.7815C22.1523 34.8251 22.1344 34.8627 22.1225 34.8885C22.1106 34.9143 22.1047 34.9301 22.1047 34.9301C22.1047 34.9301 22.1146 34.9182 22.1344 34.8964C22.1523 34.8746 22.18 34.8449 22.2157 34.8112C22.2336 34.7933 22.2514 34.7775 22.2733 34.7596C22.2951 34.7418 22.3169 34.724 22.3427 34.7061C22.3903 34.6704 22.4419 34.6367 22.4974 34.607C22.6085 34.5475 22.7235 34.5039 22.8108 34.4821C22.8386 34.4742 22.8624 34.4702 22.8822 34.4642C22.914 34.4623 22.9457 34.4603 22.9794 34.4623C23.2055 34.4642 23.5665 35.1026 23.5685 35.3128C23.5725 35.515 23.4892 35.5071 23.3563 35.5903ZM21.5036 30.4853C21.341 30.295 21.1843 30.1404 21.0454 30.0274C20.9086 29.9124 20.7876 29.837 20.6983 29.7954C20.611 29.7557 20.5595 29.7478 20.5595 29.7478C20.5595 29.7478 20.613 29.7518 20.7023 29.7895C20.7935 29.8251 20.9205 29.8906 21.0653 30.0016C21.2101 30.1106 21.3747 30.2613 21.5473 30.4457C21.6623 30.5706 21.7833 30.7113 21.9083 30.862C21.8904 30.8858 21.8726 30.9076 21.8547 30.9294C21.7317 30.7688 21.6147 30.6181 21.5036 30.4853ZM21.4501 28.9211C21.4798 28.8894 21.5096 28.8557 21.5354 28.822C21.5889 28.7526 21.6345 28.6773 21.6683 28.5999C21.7397 28.4453 21.7754 28.2867 21.7913 28.134C21.8071 27.9814 21.8051 27.8367 21.7932 27.7019C21.7793 27.5651 21.7555 27.4402 21.7298 27.3272C21.702 27.2122 21.6703 27.1111 21.6405 27.0218C21.6107 26.9326 21.579 26.8573 21.5512 26.7958C21.4977 26.6729 21.458 26.6055 21.458 26.6055C21.458 26.6055 21.4699 26.6808 21.4878 26.8137C21.4957 26.8791 21.5056 26.9584 21.5155 27.0496C21.5255 27.1408 21.5334 27.2439 21.5393 27.3549C21.5453 27.4659 21.5493 27.5849 21.5453 27.7098C21.5413 27.8347 21.5294 27.9635 21.5056 28.0924C21.4818 28.2213 21.4421 28.3501 21.3846 28.4651C21.3549 28.5226 21.3231 28.5761 21.2835 28.6257C21.2636 28.6515 21.2438 28.6733 21.22 28.6971L21.1426 28.7764C21.0395 28.8795 20.9324 28.9786 20.8233 29.0638C20.7142 29.1491 20.5991 29.2224 20.4821 29.2799C20.3651 29.3374 20.246 29.3771 20.127 29.4068C20.008 29.4346 19.891 29.4485 19.7819 29.4584C19.6728 29.4663 19.5696 29.4703 19.4784 29.4683C19.3872 29.4683 19.3058 29.4683 19.2404 29.4643C19.1868 29.4623 19.1452 29.4604 19.1114 29.4604C18.9369 29.383 18.7683 29.2621 18.6056 29.0579C18.0939 28.4275 17.9768 27.9834 17.959 27.7494L19.1471 28.5226H19.1868C19.2166 28.5226 19.9049 28.5147 20.4642 27.799C20.9324 27.1963 20.7578 26.6888 20.5991 26.5044L20.5892 26.4905L19.4883 25.7471C19.772 25.5984 20.2183 25.5766 21.1208 26.0464C21.946 26.4747 22.0551 27.2379 21.9995 27.803C21.9321 28.4849 22.3923 29.0936 23.1004 29.9441C23.1044 29.9481 23.1083 29.954 23.1123 29.958C22.9536 30.073 22.7771 30.1959 22.5589 30.3386C22.5053 30.2672 22.4538 30.1979 22.4062 30.1324C22.2792 29.9599 22.1701 29.8113 22.0809 29.6864C21.9916 29.5615 21.9222 29.4643 21.8746 29.3969C21.8289 29.3275 21.8032 29.2918 21.8032 29.2918C21.8032 29.2918 21.825 29.3295 21.8646 29.4009C21.9063 29.4742 21.9658 29.5773 22.0451 29.7082C22.0848 29.7756 22.1304 29.8469 22.178 29.9262C22.2276 30.0036 22.2812 30.0888 22.3387 30.178C22.3824 30.2474 22.43 30.3188 22.4776 30.3941C22.4478 30.4139 22.4181 30.4338 22.3863 30.4536C22.3685 30.4635 22.3526 30.4754 22.3387 30.4853C21.8349 29.726 21.5631 29.2165 21.4302 28.9409C21.4362 28.935 21.4421 28.9271 21.4501 28.9211ZM30.6201 40.0946C30.874 39.6525 31.3203 39.49 31.4651 39.4463L32.8437 40.2294L32.8993 40.0827C32.9112 40.051 33.1909 39.2778 32.0939 38.3639C31.6238 37.9713 31.241 37.9515 30.8681 37.9337C30.392 37.9079 29.9398 37.8841 29.2475 37.0138C29.2178 36.9761 29.1801 36.9305 29.1364 36.875C29.3685 36.645 29.5649 36.4071 29.7176 36.189C30.2195 35.4714 30.3524 34.4504 30.0132 33.9131C29.9318 33.7842 29.8366 33.6712 29.7434 33.5602C29.5609 33.3441 29.4518 33.2034 29.4578 33.0705C29.4855 32.5531 29.2693 32.2775 28.9401 31.8592C28.8845 31.7878 28.823 31.7105 28.7556 31.6233C28.6147 31.4389 28.6147 31.3933 28.6167 31.3279C28.6227 31.1435 28.6088 30.9373 28.3767 30.6181C28.2557 30.4496 28.1684 30.3307 28.0792 30.2296C27.8193 29.9302 27.5714 29.8232 27.1767 29.7181C27.014 29.6745 26.9267 29.5853 26.7621 29.4029C26.6034 29.2284 26.407 29.0123 26.0778 28.8458C25.1613 28.3819 24.233 29.1035 23.8819 29.3731L23.7947 29.4425C23.6261 29.5714 23.4793 29.6864 23.3265 29.7994C23.3206 29.7914 23.3127 29.7815 23.3047 29.7736C22.545 28.8596 22.2138 28.362 22.2653 27.8287C22.3169 27.2994 22.2534 26.3339 21.2438 25.8085C20.2698 25.303 19.649 25.2514 19.167 25.642L19.0261 25.755L20.4067 26.6908C20.4543 26.7582 20.6606 27.1111 20.254 27.6344C19.8414 28.1638 19.3594 28.2411 19.2225 28.253L17.7705 27.3073L17.715 27.4699C17.7051 27.4957 17.5067 28.1241 18.3974 29.2264C18.8536 29.7914 19.3614 29.835 19.8493 29.8747C20.3611 29.9183 20.8451 29.958 21.339 30.5686C21.464 30.7232 21.6028 30.8937 21.7536 31.0821C21.7119 31.1554 21.6822 31.2248 21.6603 31.2922C21.5869 31.316 21.5136 31.3497 21.4342 31.3933C21.1149 31.5717 20.8034 31.8671 20.6844 31.9841C20.254 32.4104 20.2242 32.5808 20.2282 32.7196C20.252 33.4254 21.0117 34.4385 21.6464 35.1621C21.819 35.3623 21.9975 35.5527 22.1582 35.7152C22.4875 36.0463 22.8187 36.1038 23.0409 36.0939C23.2968 36.084 23.513 35.9809 23.6697 35.8738C23.7768 35.9452 23.874 36.0047 23.9434 36.0463C24.0505 36.2465 24.1795 36.4349 24.3282 36.6054C24.7686 37.1089 25.2863 37.3587 25.5105 37.4499C26.0044 37.9832 26.3753 38.2013 27.3433 37.9713C27.4881 38.1498 27.615 38.3084 27.7202 38.4372C27.7658 38.4927 27.8114 38.5483 27.857 38.6038C28.3093 39.1549 28.6663 39.5891 28.7298 40.4971C28.7695 41.0482 29.1404 41.6172 29.672 41.9483C30.2889 42.3309 31.0446 42.3725 31.8024 42.0653L32.0364 41.9681L30.6796 41.078C30.6162 40.9868 30.3563 40.5546 30.6201 40.0946Z" fill="black"/>
</g>
</g>
</g>
<mask id="mask43_2039_10231" style="mask-type:luminance" maskUnits="userSpaceOnUse" x="28" y="40" width="4" height="3">
<path d="M28.9443 40.6022H31.4833V42.1247H28.9443V40.6022Z" fill="white"/>
</mask>
<g mask="url(#mask43_2039_10231)">
<mask id="mask44_2039_10231" style="mask-type:luminance" maskUnits="userSpaceOnUse" x="15" y="23" width="21" height="22">
<path d="M21.9483 23.2055L35.633 38.8793L29.6466 44.1013L15.9619 28.4275L21.9483 23.2055Z" fill="white"/>
</mask>
<g mask="url(#mask44_2039_10231)">
<mask id="mask45_2039_10231" style="mask-type:luminance" maskUnits="userSpaceOnUse" x="15" y="23" width="21" height="22">
<path d="M21.9483 23.2055L35.633 38.8793L29.6466 44.1013L15.9619 28.4275L21.9483 23.2055Z" fill="white"/>
</mask>
<g mask="url(#mask45_2039_10231)">
<path d="M29.4064 40.9868C29.2675 40.8083 29.208 40.6636 29.208 40.6636C29.208 40.6636 29.21 40.7013 29.2298 40.7687C29.2477 40.8341 29.2814 40.9273 29.3369 41.0304C29.3647 41.0839 29.3984 41.1374 29.4381 41.1949C29.4778 41.2504 29.5234 41.306 29.571 41.3615C29.6226 41.417 29.6781 41.4685 29.7376 41.5201C29.7951 41.5716 29.8606 41.6212 29.93 41.6628C29.9975 41.7064 30.0709 41.7421 30.1443 41.7718C30.2196 41.8016 30.293 41.8234 30.3684 41.8393C30.4041 41.8472 30.4398 41.8531 30.4755 41.8611C30.5112 41.865 30.5449 41.869 30.5787 41.873C30.6144 41.8749 30.6461 41.8769 30.6778 41.8789C30.7096 41.8809 30.7413 41.8809 30.7711 41.8809C30.8286 41.8809 30.8821 41.8789 30.9298 41.8749C30.9774 41.871 31.019 41.867 31.0527 41.8611C31.1202 41.8511 31.1579 41.8432 31.1579 41.8432C31.1579 41.8432 31.1202 41.8353 31.0527 41.8274C31.019 41.8214 30.9793 41.8155 30.9317 41.8075C30.8861 41.8016 30.8345 41.7937 30.779 41.7837C30.7512 41.7778 30.7215 41.7718 30.6917 41.7679C30.662 41.7619 30.6302 41.754 30.5985 41.7481C30.5687 41.7401 30.537 41.7322 30.5033 41.7243C30.4715 41.7163 30.4378 41.7084 30.4041 41.6965C30.3386 41.6767 30.2712 41.6529 30.2057 41.6251C30.1403 41.5974 30.0748 41.5657 30.0114 41.528C29.9479 41.4923 29.8904 41.4507 29.8289 41.4071C29.8011 41.3833 29.7713 41.3615 29.7456 41.3377C29.7178 41.3139 29.692 41.2921 29.6662 41.2683C29.6146 41.2207 29.5651 41.1731 29.5234 41.1255C29.4798 41.078 29.4401 41.0324 29.4064 40.9868Z" fill="black"/>
</g>
</g>
</g>
<mask id="mask46_2039_10231" style="mask-type:luminance" maskUnits="userSpaceOnUse" x="17" y="27" width="3" height="3">
<path d="M17.7725 27.914H19.2958V29.4366H17.7725V27.914Z" fill="white"/>
</mask>
<g mask="url(#mask46_2039_10231)">
<mask id="mask47_2039_10231" style="mask-type:luminance" maskUnits="userSpaceOnUse" x="15" y="23" width="21" height="22">
<path d="M21.9483 23.2055L35.633 38.8793L29.6466 44.1013L15.9619 28.4275L21.9483 23.2055Z" fill="white"/>
</mask>
<g mask="url(#mask47_2039_10231)">
<mask id="mask48_2039_10231" style="mask-type:luminance" maskUnits="userSpaceOnUse" x="15" y="23" width="21" height="22">
<path d="M21.9483 23.2055L35.633 38.8793L29.6466 44.1013L15.9619 28.4275L21.9483 23.2055Z" fill="white"/>
</mask>
<g mask="url(#mask48_2039_10231)">
<path d="M18.8479 29.0401C18.8182 29.0083 18.7924 28.9707 18.7606 28.935C18.7289 28.9013 18.7031 28.8596 18.6714 28.822C18.6396 28.7823 18.6119 28.7407 18.5801 28.701C18.5504 28.6594 18.5226 28.6178 18.4928 28.5781C18.4671 28.5365 18.4373 28.4968 18.4115 28.4572C18.3857 28.4175 18.3599 28.3779 18.3361 28.3422C18.3123 28.3045 18.2905 28.2708 18.2687 28.2371C18.1874 28.1083 18.1318 28.021 18.1318 28.021C18.1318 28.021 18.1556 28.1241 18.2151 28.2669C18.231 28.3026 18.2469 28.3402 18.2667 28.3799C18.2866 28.4215 18.3064 28.4631 18.3322 28.5048C18.354 28.5484 18.3798 28.59 18.4076 28.6336C18.4353 28.6773 18.4651 28.7209 18.4948 28.7625C18.5266 28.8041 18.5563 28.8458 18.59 28.8854C18.6238 28.9251 18.6555 28.9647 18.6912 28.9984C18.7249 29.0321 18.7586 29.0678 18.7924 29.0956C18.8261 29.1253 18.8578 29.1531 18.8896 29.1749C18.9213 29.1987 18.9511 29.2185 18.9768 29.2383C19.0046 29.2542 19.0304 29.268 19.0482 29.278C19.0899 29.2998 19.1117 29.3117 19.1117 29.3117C19.1117 29.3117 19.0939 29.2918 19.0621 29.2601C19.0463 29.2462 19.0244 29.2284 19.0026 29.2046C18.9808 29.1828 18.957 29.157 18.9312 29.1312C18.9034 29.1035 18.8777 29.0718 18.8479 29.0401Z" fill="black"/>
</g>
</g>
</g>
<mask id="mask49_2039_10231" style="mask-type:luminance" maskUnits="userSpaceOnUse" x="21" y="35" width="3" height="2">
<path d="M21.835 35.0194H23.8661V36.0344H21.835V35.0194Z" fill="white"/>
</mask>
<g mask="url(#mask49_2039_10231)">
<mask id="mask50_2039_10231" style="mask-type:luminance" maskUnits="userSpaceOnUse" x="15" y="23" width="21" height="22">
<path d="M21.9483 23.2055L35.633 38.8793L29.6466 44.1013L15.9619 28.4275L21.9483 23.2055Z" fill="white"/>
</mask>
<g mask="url(#mask50_2039_10231)">
<mask id="mask51_2039_10231" style="mask-type:luminance" maskUnits="userSpaceOnUse" x="15" y="23" width="21" height="22">
<path d="M21.9483 23.2055L35.633 38.8793L29.6466 44.1013L15.9619 28.4275L21.9483 23.2055Z" fill="white"/>
</mask>
<g mask="url(#mask51_2039_10231)">
<path d="M22.2324 35.0967C22.2324 35.0967 22.8017 35.969 23.4781 35.4396C23.4781 35.4396 22.8652 35.6736 22.2324 35.0967Z" fill="black"/>
</g>
</g>
</g>
<path d="M68.2731 15.8741V18.7607H56.7366V21.6393H68.2731V24.5258H56.7366V30.291H53.8564V18.7607C53.8564 18.2333 53.9854 17.7496 54.2452 17.3094C54.5031 16.8713 54.8502 16.5224 55.2846 16.2627C55.723 16.0049 56.207 15.8741 56.7366 15.8741H68.2731Z" fill="#002AED"/>
<path d="M72.5999 30.291H69.7197V17.3174C69.7197 16.9209 69.8586 16.5838 70.1402 16.3023C70.4259 16.0168 70.7671 15.8741 71.1638 15.8741C71.5605 15.8741 71.9017 16.0208 72.1873 16.3103L81.2562 25.3744V15.8741H84.1363V28.8478C84.1363 29.2443 83.9955 29.5853 83.7158 29.8707C83.4342 30.1523 83.097 30.291 82.7002 30.291C82.3035 30.291 81.9584 30.1463 81.6688 29.8549L72.5999 20.7987V30.291Z" fill="black"/>
<path d="M97.1195 15.8741C97.6471 15.8741 98.1311 16.0049 98.5715 16.2627C99.0098 16.5224 99.357 16.8713 99.6108 17.3094C99.8687 17.7496 99.9996 18.2333 99.9996 18.7607V21.6393C99.9996 22.1686 99.8687 22.6524 99.6108 23.0905C99.357 23.5306 99.0098 23.8795 98.5715 24.1373C98.1311 24.397 97.6471 24.5258 97.1195 24.5258H88.4632V30.291H85.583V15.8741H97.1195ZM88.4632 21.6393H97.1195V18.7607H88.4632V21.6393Z" fill="#FF3131"/>
<path d="M55.8611 32.7641H62.5101C62.9108 32.7641 63.2817 32.8652 63.6209 33.0654C63.9581 33.2617 64.2259 33.5293 64.4222 33.8663C64.6226 34.1994 64.7237 34.5701 64.7237 34.9766V43.8345H62.5101V39.4095H55.8611V43.8345H53.6475V34.9766C53.6475 34.5701 53.7447 34.1994 53.941 33.8663C54.1414 33.5293 54.4092 33.2617 54.7424 33.0654C55.0796 32.8652 55.4525 32.7641 55.8611 32.7641ZM55.8611 34.9766V37.1891H62.5101V34.9766H55.8611Z" fill="black"/>
<path d="M74.6907 43.8345H68.0418C67.6332 43.8345 67.2603 43.7373 66.9231 43.5411C66.5898 43.3408 66.322 43.0732 66.1217 42.7401C65.9253 42.4031 65.8281 42.0304 65.8281 41.622V32.7641H68.0418V41.622H74.6907V32.7641H76.9044V41.622C76.9044 42.0304 76.8032 42.4031 76.6029 42.7401C76.4065 43.0732 76.1387 43.3408 75.8015 43.5411C75.4623 43.7373 75.0914 43.8345 74.6907 43.8345Z" fill="black"/>
<path d="M89.0841 32.7641V34.9766H84.6488V43.8345H82.4352V34.9766H78.0078V32.7641H89.0841Z" fill="black"/>
<path d="M99.0511 43.8345H92.4021C91.9935 43.8345 91.6206 43.7373 91.2834 43.5411C90.9502 43.3408 90.6824 43.0732 90.482 42.7401C90.2857 42.4031 90.1885 42.0304 90.1885 41.622V34.9766C90.1885 34.5701 90.2857 34.1994 90.482 33.8663C90.6824 33.5293 90.9502 33.2617 91.2834 33.0654C91.6206 32.8652 91.9935 32.7641 92.4021 32.7641H99.0511C99.4518 32.7641 99.8227 32.8652 100.162 33.0654C100.499 33.2617 100.767 33.5293 100.963 33.8663C101.164 34.1994 101.265 34.5701 101.265 34.9766V41.622C101.265 42.0185 101.164 42.3872 100.963 42.7243C100.767 43.0573 100.503 43.327 100.17 43.5331C99.8366 43.7354 99.4637 43.8345 99.0511 43.8345ZM92.4021 34.9766V41.622H99.0511V34.9766H92.4021Z" fill="black"/>
<path d="M111.232 32.7641C111.632 32.7641 112.003 32.8652 112.343 33.0654C112.68 33.2617 112.948 33.5293 113.144 33.8663C113.344 34.1994 113.445 34.5701 113.445 34.9766V37.1891C113.445 37.5975 113.344 37.9702 113.144 38.3072C112.948 38.6462 112.68 38.9158 112.343 39.1161C112.003 39.3123 111.632 39.4095 111.232 39.4095H104.583V43.8345H102.369V32.7641H111.232ZM104.583 37.1891H111.232V34.9766H104.583V37.1891Z" fill="black"/>
<path d="M116.763 32.7641H123.412C123.813 32.7641 124.184 32.8652 124.523 33.0654C124.86 33.2617 125.128 33.5293 125.325 33.8663C125.525 34.1994 125.626 34.5701 125.626 34.9766V43.8345H123.412V39.4095H116.763V43.8345H114.55V34.9766C114.55 34.5701 114.647 34.1994 114.843 33.8663C115.044 33.5293 115.311 33.2617 115.645 33.0654C115.982 32.8652 116.355 32.7641 116.763 32.7641ZM116.763 34.9766V37.1891H123.412V34.9766H116.763Z" fill="black"/>
<path d="M137.806 34.9766V37.1891C137.806 37.5975 137.705 37.9702 137.504 38.3072C137.308 38.6462 137.04 38.9158 136.703 39.1161C136.364 39.3123 135.993 39.4095 135.592 39.4095H133.37L135.592 41.622H137.806V43.8345H135.148C134.83 43.8345 134.563 43.7235 134.346 43.5014L130.244 39.4095H128.943V43.8345H126.729V32.7641H135.592C135.993 32.7641 136.364 32.8652 136.703 33.0654C137.04 33.2617 137.308 33.5293 137.504 33.8663C137.705 34.1994 137.806 34.5701 137.806 34.9766ZM135.592 34.9766H128.943V37.1891H135.592V34.9766Z" fill="black"/>
<path d="M149.986 32.7641V34.9766H145.551V43.8345H143.337V34.9766H138.91V32.7641H149.986Z" fill="black"/>
<path d="M162.167 32.7641V34.9766H153.304V37.1891H159.953C160.354 37.1891 160.725 37.2902 161.064 37.4904C161.401 37.6867 161.669 37.9543 161.866 38.2913C162.066 38.6304 162.167 39.0031 162.167 39.4095V41.622C162.167 42.0304 162.066 42.4031 161.866 42.7401C161.669 43.0732 161.401 43.3408 161.064 43.5411C160.725 43.7373 160.354 43.8345 159.953 43.8345H151.091V41.622H159.953V39.4095H153.304C152.896 39.4095 152.523 39.3123 152.186 39.1161C151.853 38.9158 151.585 38.6462 151.384 38.3072C151.188 37.9702 151.091 37.5975 151.091 37.1891V34.9766C151.091 34.5701 151.188 34.1994 151.384 33.8663C151.585 33.5293 151.853 33.2617 152.186 33.0654C152.523 32.8652 152.896 32.7641 153.304 32.7641H162.167Z" fill="black"/>
</svg>
