<svg width="259" height="219" viewBox="0 0 259 219" fill="none" xmlns="http://www.w3.org/2000/svg">
<g clip-path="url(#clip0_332_1204)">
<path d="M199.027 202.624H81.9992C81.2737 202.623 80.5781 202.334 80.0651 201.821C79.5521 201.308 79.2635 200.613 79.2627 199.887V119.976C79.2635 119.25 79.5521 118.555 80.0651 118.042C80.5781 117.529 81.2737 117.24 81.9992 117.239H199.027C199.752 117.24 200.448 117.529 200.961 118.042C201.474 118.555 201.762 119.25 201.763 119.976V199.887C201.762 200.613 201.474 201.308 200.961 201.821C200.448 202.334 199.752 202.623 199.027 202.624Z" fill="white"/>
<path d="M199.027 202.624H81.9992C81.2737 202.623 80.5781 202.334 80.0651 201.821C79.5521 201.308 79.2635 200.613 79.2627 199.887V119.976C79.2635 119.25 79.5521 118.555 80.0651 118.042C80.5781 117.529 81.2737 117.24 81.9992 117.239H199.027C199.752 117.24 200.448 117.529 200.961 118.042C201.474 118.555 201.762 119.25 201.763 119.976V199.887C201.762 200.613 201.474 201.308 200.961 201.821C200.448 202.334 199.752 202.623 199.027 202.624ZM81.9992 117.847C81.4349 117.848 80.8939 118.072 80.4949 118.471C80.0959 118.87 79.8714 119.411 79.8708 119.976V199.887C79.8714 200.451 80.0959 200.992 80.4949 201.391C80.8939 201.79 81.4349 202.015 81.9992 202.016H199.027C199.591 202.015 200.132 201.79 200.531 201.391C200.93 200.992 201.154 200.451 201.155 199.887V119.976C201.154 119.411 200.93 118.87 200.531 118.471C200.132 118.072 199.591 117.848 199.027 117.847H81.9992Z" fill="#3F3D56"/>
<path d="M154.059 202.143H126.966V157.289C126.967 156.226 127.39 155.206 128.142 154.453C128.895 153.701 129.915 153.278 130.978 153.277H150.047C151.111 153.278 152.131 153.701 152.883 154.453C153.635 155.206 154.058 156.226 154.059 157.289V202.143Z" fill="#E6E6E6"/>
<path d="M192.644 100.206H177.172V74.3478C177.173 73.6223 177.461 72.9267 177.974 72.4137C178.487 71.9007 179.183 71.6122 179.908 71.6113H189.908C190.633 71.6122 191.329 71.9007 191.842 72.4137C192.355 72.9267 192.644 73.6223 192.644 74.3478V100.206Z" fill="white"/>
<path d="M192.644 100.206H177.172V74.3478C177.173 73.6223 177.461 72.9267 177.974 72.4137C178.487 71.9007 179.183 71.6122 179.908 71.6113H189.908C190.633 71.6122 191.329 71.9007 191.842 72.4137C192.355 72.9267 192.644 73.6223 192.644 74.3478V100.206ZM177.78 99.5975H192.036V74.3478C192.036 73.7835 191.811 73.2425 191.412 72.8435C191.013 72.4445 190.472 72.2201 189.908 72.2194H179.908C179.344 72.2201 178.803 72.4445 178.404 72.8435C178.005 73.2425 177.781 73.7835 177.78 74.3478V99.5975Z" fill="#3F3D56"/>
<path d="M105.41 111.094C121.865 111.094 135.204 97.7544 135.204 81.2994C135.204 64.8443 121.865 51.5049 105.41 51.5049C88.9547 51.5049 75.6152 64.8443 75.6152 81.2994C75.6152 97.7544 88.9547 111.094 105.41 111.094Z" fill="#F2F2F2"/>
<path d="M185.372 67.0781C182.688 66.9937 180.3 64.5464 180.281 61.8618C180.261 59.1772 182.615 56.6961 185.297 56.5734C191.268 56.3003 196.157 49.892 194.843 44.0606C193.529 38.2291 186.364 34.5371 180.853 36.8515C176.625 38.627 172.352 33.0329 173.424 28.5744C174.495 24.1158 178.55 21.1218 182.302 18.4853C186.054 15.8489 190.067 12.7534 190.973 8.25816C191.879 3.76293 187.243 -1.62185 183.158 0.461879" fill="#E6E6E6"/>
<path d="M115.523 166.306H92.6366C91.7237 166.305 90.8485 165.942 90.203 165.296C89.5575 164.651 89.1944 163.775 89.1934 162.863V143.995C89.1944 143.082 89.5575 142.207 90.203 141.561C90.8485 140.916 91.7237 140.553 92.6366 140.552H115.523C116.436 140.553 117.311 140.916 117.956 141.561C118.602 142.207 118.965 143.082 118.966 143.995V162.863C118.965 163.775 118.602 164.651 117.956 165.296C117.311 165.942 116.436 166.305 115.523 166.306Z" fill="#E6E6E6"/>
<path d="M188.918 166.306H166.032C165.119 166.305 164.244 165.942 163.598 165.296C162.953 164.651 162.59 163.775 162.589 162.863V143.995C162.59 143.082 162.953 142.207 163.599 141.561C164.244 140.916 165.119 140.553 166.032 140.552H188.918C189.831 140.553 190.706 140.916 191.352 141.561C191.997 142.207 192.36 143.082 192.361 143.995V162.863C192.36 163.775 191.997 164.651 191.352 165.296C190.706 165.942 189.831 166.305 188.918 166.306Z" fill="#E6E6E6"/>
<path d="M70.5254 118.883V106.588C70.5254 105.643 70.775 104.716 71.2491 103.899C71.7231 103.082 72.4046 102.405 73.2246 101.936L141.538 62.8917C142.386 62.4071 143.35 62.1634 144.326 62.1871C145.303 62.2108 146.254 62.501 147.078 63.0262L208.024 101.899C208.783 102.383 209.408 103.051 209.841 103.841C210.274 104.63 210.501 105.516 210.501 106.416V118.883C210.501 120.304 209.936 121.667 208.931 122.671C207.927 123.676 206.564 124.241 205.143 124.241H75.8833C74.4623 124.241 73.0995 123.676 72.0947 122.671C71.0899 121.667 70.5254 120.304 70.5254 118.883Z" fill="#F59E0B"/>
<path opacity="0.2" d="M205.143 118.767H75.8833C74.4623 118.767 73.0995 118.202 72.0947 117.198C71.0899 116.193 70.5254 114.83 70.5254 113.409V118.274C70.5254 119.695 71.0899 121.058 72.0947 122.062C73.0995 123.067 74.4623 123.632 75.8833 123.632H205.143C206.564 123.632 207.927 123.067 208.931 122.062C209.936 121.058 210.501 119.695 210.501 118.274V113.409C210.501 114.83 209.936 116.193 208.931 117.198C207.927 118.202 206.564 118.767 205.143 118.767Z" fill="black"/>
<path d="M215.638 160.84C215.638 151.412 223.281 129.039 232.709 129.039C242.138 129.039 249.781 151.412 249.781 160.84C249.781 165.368 247.983 169.71 244.781 172.912C241.579 176.114 237.237 177.912 232.709 177.912C228.182 177.912 223.839 176.114 220.638 172.912C217.436 169.71 215.638 165.368 215.638 160.84Z" fill="#F2F2F2"/>
<path d="M232.709 202.261C232.629 202.261 232.551 202.229 232.494 202.172C232.437 202.115 232.405 202.037 232.405 201.957V140.657C232.405 140.576 232.437 140.499 232.494 140.442C232.551 140.385 232.629 140.353 232.709 140.353C232.79 140.353 232.867 140.385 232.924 140.442C232.981 140.499 233.013 140.576 233.013 140.657V201.957C233.013 202.037 232.981 202.115 232.924 202.172C232.867 202.229 232.79 202.261 232.709 202.261Z" fill="#3F3D56"/>
<path d="M232.709 167.841C232.65 167.841 232.592 167.823 232.542 167.79C232.492 167.758 232.453 167.711 232.43 167.656C232.406 167.602 232.4 167.541 232.41 167.483C232.421 167.424 232.448 167.37 232.489 167.327L241.168 158.22C241.195 158.191 241.228 158.168 241.265 158.152C241.301 158.136 241.34 158.127 241.38 158.126C241.42 158.125 241.46 158.132 241.497 158.146C241.535 158.161 241.569 158.182 241.597 158.21C241.626 158.237 241.65 158.27 241.666 158.307C241.682 158.343 241.691 158.383 241.692 158.422C241.693 158.462 241.686 158.502 241.671 158.539C241.657 158.577 241.635 158.611 241.608 158.64L232.929 167.746C232.901 167.776 232.867 167.8 232.829 167.816C232.791 167.832 232.75 167.841 232.709 167.841Z" fill="#3F3D56"/>
<path d="M232.71 152.487C232.634 152.487 232.56 152.458 232.504 152.407L225.005 145.55C224.975 145.523 224.951 145.491 224.934 145.454C224.917 145.418 224.907 145.379 224.906 145.339C224.904 145.299 224.91 145.259 224.923 145.221C224.937 145.184 224.958 145.149 224.985 145.12C225.012 145.09 225.044 145.066 225.081 145.05C225.117 145.033 225.156 145.023 225.196 145.021C225.236 145.02 225.276 145.026 225.314 145.039C225.351 145.053 225.386 145.074 225.415 145.101L232.915 151.958C232.96 152 232.992 152.054 233.006 152.113C233.02 152.173 233.015 152.235 232.993 152.293C232.971 152.35 232.932 152.399 232.881 152.433C232.831 152.468 232.771 152.487 232.71 152.487Z" fill="#3F3D56"/>
<path d="M7.26367 142.081C7.26367 128.211 18.5073 95.2991 32.3769 95.2991C46.2466 95.2991 57.4902 128.211 57.4902 142.081C57.4902 148.741 54.8444 155.129 50.1347 159.839C45.4251 164.548 39.0374 167.194 32.3769 167.194C25.7165 167.194 19.3288 164.548 14.6192 159.839C9.90953 155.129 7.26367 148.741 7.26367 142.081Z" fill="#F59E0B"/>
<path d="M32.3773 202.869C32.2967 202.869 32.2193 202.837 32.1623 202.78C32.1053 202.723 32.0732 202.646 32.0732 202.565V112.39C32.0732 112.309 32.1053 112.232 32.1623 112.175C32.2193 112.118 32.2967 112.086 32.3773 112.086C32.4579 112.086 32.5353 112.118 32.5923 112.175C32.6493 112.232 32.6813 112.309 32.6813 112.39V202.565C32.6813 202.646 32.6493 202.723 32.5923 202.78C32.5353 202.837 32.4579 202.869 32.3773 202.869Z" fill="#3F3D56"/>
<path d="M32.3773 152.235C32.3178 152.235 32.2596 152.218 32.2099 152.185C32.1602 152.152 32.1212 152.106 32.0978 152.051C32.0744 151.996 32.0675 151.936 32.0781 151.877C32.0886 151.819 32.1162 151.765 32.1572 151.722L44.9233 138.325C44.979 138.267 45.0555 138.233 45.1361 138.231C45.2168 138.229 45.2949 138.259 45.3532 138.315C45.4116 138.37 45.4455 138.447 45.4475 138.527C45.4494 138.608 45.4192 138.686 45.3636 138.745L32.5974 152.141C32.569 152.171 32.5349 152.195 32.4971 152.211C32.4592 152.227 32.4185 152.235 32.3773 152.235Z" fill="#3F3D56"/>
<path d="M32.3775 129.649C32.3016 129.649 32.2284 129.621 32.1724 129.57L21.1399 119.483C21.0804 119.428 21.0449 119.352 21.0413 119.272C21.0377 119.191 21.0663 119.113 21.1207 119.053C21.1751 118.993 21.2509 118.958 21.3315 118.954C21.412 118.951 21.4907 118.979 21.5503 119.034L32.5827 129.121C32.628 129.162 32.6597 129.216 32.6736 129.276C32.6876 129.336 32.6832 129.398 32.661 129.455C32.6388 129.512 32.5998 129.561 32.5493 129.596C32.4987 129.631 32.4388 129.649 32.3775 129.649Z" fill="#3F3D56"/>
<path d="M220.783 202.231C220.812 202.253 220.842 202.273 220.872 202.295H245.594C246.079 200.332 246.25 198.367 245.526 196.661C244.495 194.23 241.444 192.712 239.018 193.756C238.443 194.01 237.943 194.406 237.563 194.907C236.615 193.21 234.915 191.931 232.952 191.932C230.493 191.934 228.448 193.945 227.781 196.268C226.707 194.454 224.585 193.187 222.51 193.732C219.041 194.644 217.945 200.037 220.783 202.231Z" fill="#E6E6E6"/>
<path d="M8.39289 202.774C8.45094 202.819 8.51226 202.859 8.57105 202.903H58.4789C59.4568 198.941 59.8021 194.974 58.3414 191.53C56.2601 186.621 50.1007 183.558 45.2038 185.665C44.0436 186.178 43.0329 186.978 42.2669 187.989C40.3532 184.564 36.9205 181.981 32.9581 181.984C27.994 181.987 23.8666 186.047 22.5196 190.736C20.3507 187.075 16.0665 184.516 11.8789 185.617C4.87522 187.458 2.66297 198.345 8.39289 202.774Z" fill="#E6E6E6"/>
<path d="M258.999 202.017L0.566406 202.506L0.567557 203.114L259 202.625L258.999 202.017Z" fill="#3F3D56"/>
<path d="M87.7731 189.643C87.8348 189.402 87.8431 189.151 87.7973 188.908C87.7515 188.664 87.6528 188.433 87.5082 188.231C87.3635 188.03 87.1764 187.862 86.96 187.741C86.7437 187.619 86.5033 187.547 86.2559 187.528L76.6001 175.456L74.2109 177.683L84.4112 189.215C84.4076 189.632 84.5574 190.037 84.8322 190.352C85.1069 190.666 85.4876 190.869 85.902 190.922C86.3164 190.975 86.7358 190.874 87.0807 190.638C87.4255 190.402 87.6719 190.048 87.7731 189.643Z" fill="#FFB8B8"/>
<path d="M78.452 177.374L75.4004 179.711C75.3136 179.777 75.2135 179.824 75.1069 179.848C75.0002 179.873 74.8896 179.874 74.7826 179.851C74.6755 179.829 74.5745 179.784 74.4864 179.719C74.3984 179.654 74.3253 179.571 74.2723 179.476L72.4134 176.125C72.0758 175.679 71.929 175.117 72.0049 174.563C72.0809 174.008 72.3736 173.507 72.8188 173.168C73.2639 172.829 73.8253 172.68 74.3798 172.755C74.9343 172.829 75.4367 173.12 75.7769 173.565L78.5192 176.223C78.5977 176.299 78.6588 176.392 78.6985 176.494C78.7381 176.595 78.7554 176.705 78.749 176.814C78.7426 176.923 78.7128 177.03 78.6615 177.126C78.6103 177.223 78.5388 177.307 78.452 177.374Z" fill="#3F3D56"/>
<path d="M73.3277 170.086C75.4708 170.086 77.2081 168.349 77.2081 166.205C77.2081 164.062 75.4708 162.325 73.3277 162.325C71.1846 162.325 69.4473 164.062 69.4473 166.205C69.4473 168.349 71.1846 170.086 73.3277 170.086Z" fill="#FFB8B8"/>
<path d="M81.61 216.54H83.5472L83.3626 212.915H80.5039L81.61 216.54Z" fill="#FFB8B8"/>
<path d="M81.1162 215.908L84.9307 215.908C85.25 215.908 85.5662 215.971 85.8612 216.093C86.1561 216.215 86.4241 216.394 86.6498 216.62C86.8756 216.845 87.0546 217.113 87.1768 217.408C87.2989 217.703 87.3618 218.019 87.3618 218.339V218.418L81.1163 218.418L81.1162 215.908Z" fill="#2F2E41"/>
<path d="M60.959 213.798L62.6069 214.816L64.3552 211.635L62.3613 210.387L60.959 213.798Z" fill="#FFB8B8"/>
<path d="M60.8708 213L64.1161 215.005C64.3877 215.173 64.6237 215.392 64.8104 215.651C64.9971 215.91 65.131 216.203 65.2044 216.514C65.2779 216.825 65.2893 217.147 65.2383 217.462C65.1872 217.777 65.0745 218.079 64.9068 218.351L64.8653 218.418L59.5518 215.136L60.8708 213Z" fill="#2F2E41"/>
<path d="M81.4706 215.477C81.3266 215.477 81.186 215.433 81.0676 215.351C80.9491 215.27 80.8583 215.154 80.8074 215.019L73.801 198.268C73.786 198.227 73.7599 198.191 73.7257 198.164C73.6915 198.137 73.6505 198.12 73.6072 198.114C73.5639 198.109 73.52 198.116 73.4803 198.134C73.4407 198.152 73.4067 198.181 73.3823 198.217L63.7569 213.379C63.6628 213.521 63.5211 213.623 63.3576 213.669C63.1941 213.714 63.0197 213.7 62.8661 213.627L61.5491 213.013C61.3804 212.933 61.2495 212.791 61.1845 212.616C61.1194 212.441 61.1254 212.248 61.201 212.077L69.0868 194.499C68.9146 194.081 67.2351 189.779 69.8156 187.654L69.8336 187.643L76.831 184.522L77.0074 189.889L83.9819 214.088C84.0081 214.179 84.0159 214.275 84.0048 214.369C83.9936 214.463 83.9638 214.554 83.917 214.636C83.8702 214.719 83.8074 214.791 83.7323 214.849C83.6572 214.907 83.5713 214.949 83.4796 214.973L81.6528 215.454C81.5933 215.469 81.5321 215.477 81.4706 215.477Z" fill="#2F2E41"/>
<path d="M76.9367 176.67C76.6703 175.601 76.2926 174.523 75.7864 174.025C75.6003 173.844 75.4254 173.651 75.2627 173.448C74.9223 173.02 74.4939 172.669 74.0065 172.419C74.1849 172.32 74.2894 172.202 74.2894 172.074C74.2894 171.725 73.5114 171.442 72.5515 171.442C71.5917 171.442 70.8136 171.725 70.8136 172.074C70.816 172.115 70.8263 172.154 70.844 172.191C70.8617 172.227 70.8865 172.26 70.9169 172.287C70.2901 172.542 69.7455 172.965 69.3423 173.509C68.9392 174.052 68.6929 174.696 68.6305 175.37C68.406 177.774 68.3405 180.847 69.1271 182.791C69.7869 184.398 69.8394 186.191 69.2747 187.834C69.2364 187.948 69.2318 188.071 69.2613 188.188C69.2907 188.305 69.3531 188.411 69.4411 188.494C69.529 188.576 69.6388 188.632 69.7574 188.654C69.876 188.676 69.9985 188.664 70.1103 188.619L77.0535 185.821C77.1704 185.774 77.2706 185.693 77.3411 185.588C77.4116 185.484 77.4493 185.361 77.4493 185.235V180.985C77.4548 179.531 77.2827 178.082 76.9367 176.67Z" fill="#3F3D56"/>
<path d="M63.652 194.172C63.8937 194.116 64.1202 194.008 64.3154 193.855C64.5107 193.702 64.67 193.508 64.7821 193.286C64.8943 193.065 64.9565 192.822 64.9645 192.574C64.9724 192.326 64.9259 192.079 64.8282 191.851L70.2607 177.525L67.5058 176.813L62.481 190.992C62.1087 191.182 61.8189 191.501 61.6665 191.89C61.5141 192.279 61.5096 192.71 61.6539 193.102C61.7983 193.494 62.0814 193.82 62.4497 194.017C62.8179 194.214 63.2457 194.27 63.652 194.172Z" fill="#FFB8B8"/>
<path d="M70.2378 180.243L66.7567 178.614C66.6577 178.567 66.5698 178.5 66.4991 178.417C66.4283 178.333 66.3764 178.236 66.3468 178.131C66.3172 178.025 66.3106 177.915 66.3275 177.807C66.3444 177.699 66.3845 177.596 66.4448 177.504L68.5604 174.309C68.8009 173.805 69.2316 173.416 69.7582 173.228C70.2847 173.04 70.8643 173.069 71.3699 173.307C71.8755 173.546 72.2661 173.975 72.4561 174.501C72.646 175.026 72.6199 175.606 72.3835 176.113L71.2895 179.772C71.2582 179.877 71.2046 179.974 71.1325 180.056C71.0603 180.138 70.9713 180.204 70.8715 180.249C70.7717 180.293 70.6635 180.316 70.5541 180.315C70.4448 180.314 70.3369 180.29 70.2378 180.243Z" fill="#3F3D56"/>
<path d="M76.8915 165.25C77.0666 165.271 77.2438 165.239 77.4005 165.158C77.6868 164.971 77.6586 164.545 77.5617 164.217C77.3204 163.431 76.8848 162.718 76.2952 162.144C75.7056 161.57 74.981 161.154 74.1882 160.934C73.6358 160.788 72.9368 160.793 72.6208 161.27C71.8266 160.74 70.8691 160.514 69.9219 160.63C68.9748 160.746 68.1006 161.198 67.4581 161.904C66.8302 162.64 66.4116 163.532 66.246 164.486C65.9144 166.11 64.4944 169.462 65.281 170.921C65.8045 171.892 68.2134 171.136 69.2324 171.559C69.7399 171.779 70.294 171.872 70.8457 171.827C71.3973 171.783 71.9295 171.603 72.395 171.303C72.8506 170.989 73.193 170.536 73.3718 170.012C73.5505 169.489 73.556 168.921 73.3875 168.394C73.2092 168.006 73.0035 167.632 72.7721 167.273C72.5397 166.911 72.4449 166.477 72.5048 166.05C72.6475 165.401 75.7103 165.226 76.8915 165.25Z" fill="#2F2E41"/>
</g>
<defs>
<clipPath id="clip0_332_1204">
<rect width="258.434" height="218.418" fill="white" transform="translate(0.566406)"/>
</clipPath>
</defs>
</svg>
