<svg width="46" height="46" viewBox="0 0 46 46" fill="none" xmlns="http://www.w3.org/2000/svg">
<circle cx="23" cy="23" r="23" fill="#143F6B"/>
<path d="M17.3995 15.76C18.8898 14.2995 20.8963 13.4861 22.9829 13.4967C25.0696 13.5072 27.0677 14.3408 28.5432 15.8163C30.0187 17.2918 30.8523 19.2899 30.8628 21.3766C30.8734 23.4632 30.06 25.4697 28.5995 26.96L24.4135 31.146C24.0385 31.5209 23.5298 31.7316 22.9995 31.7316C22.4692 31.7316 21.9606 31.5209 21.5855 31.146L17.3995 26.96C15.9144 25.4747 15.0801 23.4604 15.0801 21.36C15.0801 19.2596 15.9144 17.2453 17.3995 15.76Z" stroke="#FFFBF5" stroke-width="1.5" stroke-linejoin="round"/>
<path d="M23 24.36C24.6569 24.36 26 23.0169 26 21.36C26 19.7031 24.6569 18.36 23 18.36C21.3431 18.36 20 19.7031 20 21.36C20 23.0169 21.3431 24.36 23 24.36Z" stroke="#FFFBF5" stroke-width="1.5" stroke-linecap="round" stroke-linejoin="round"/>
</svg>
