<svg width="45" height="45" viewBox="0 0 45 45" fill="none" xmlns="http://www.w3.org/2000/svg">
<mask id="path-1-inside-1_332_1045" fill="white">
<path d="M4.16699 5.625V4.21875C3.80232 4.21875 3.45258 4.36691 3.19472 4.63063C2.93686 4.89435 2.79199 5.25204 2.79199 5.625H4.16699ZM24.3337 5.625H25.7087C25.7087 5.25204 25.5638 4.89435 25.3059 4.63063C25.0481 4.36691 24.6983 4.21875 24.3337 4.21875V5.625ZM24.3337 16.875V15.4687C23.969 15.4687 23.6193 15.6169 23.3614 15.8806C23.1035 16.1444 22.9587 16.502 22.9587 16.875H24.3337ZM4.16699 7.03125H24.3337V4.21875H4.16699V7.03125ZM22.9587 5.625V35.625H25.7087V5.625H22.9587ZM5.54199 31.875V5.625H2.79199V31.875H5.54199ZM24.3337 18.2812H33.5003V15.4687H24.3337V18.2812ZM39.4587 24.375V31.875H42.2087V24.375H39.4587ZM25.7087 35.625V16.875H22.9587V35.625H25.7087ZM35.121 37.2825C34.9082 37.5002 34.6555 37.6729 34.3775 37.7907C34.0994 37.9085 33.8013 37.9692 33.5003 37.9692C33.1993 37.9692 32.9013 37.9085 32.6232 37.7907C32.3451 37.6729 32.0925 37.5002 31.8797 37.2825L29.9363 39.27C30.8818 40.2369 32.1642 40.7801 33.5012 40.7801C34.8383 40.7801 36.1207 40.2369 37.0662 39.27L35.121 37.2825ZM31.8797 33.9675C32.0925 33.7498 32.3451 33.5771 32.6232 33.4593C32.9013 33.3414 33.1993 33.2808 33.5003 33.2808C33.8013 33.2808 34.0994 33.3414 34.3775 33.4593C34.6555 33.5771 34.9082 33.7498 35.121 33.9675L37.0643 31.98C36.1188 31.0131 34.8365 30.4698 33.4994 30.4698C32.1623 30.4698 30.88 31.0131 29.9345 31.98L31.8797 33.9675ZM13.121 37.2825C12.9082 37.5002 12.6555 37.6729 12.3774 37.7907C12.0994 37.9085 11.8013 37.9692 11.5003 37.9692C11.1993 37.9692 10.9013 37.9085 10.6232 37.7907C10.3451 37.6729 10.0925 37.5002 9.87966 37.2825L7.93633 39.27C8.88182 40.2369 10.1641 40.7801 11.5012 40.7801C12.8383 40.7801 14.1207 40.2369 15.0662 39.27L13.121 37.2825ZM9.87966 33.9675C10.0925 33.7498 10.3451 33.5771 10.6232 33.4593C10.9013 33.3414 11.1993 33.2808 11.5003 33.2808C11.8013 33.2808 12.0994 33.3414 12.3774 33.4593C12.6555 33.5771 12.9082 33.7498 13.121 33.9675L15.0643 31.98C14.1188 31.0131 12.8365 30.4698 11.4994 30.4698C10.1623 30.4698 8.87998 31.0131 7.93449 31.98L9.87966 33.9675ZM35.121 33.9675C35.5683 34.425 35.792 35.0231 35.792 35.625H38.542C38.542 34.3069 38.0488 32.985 37.0662 31.9781L35.121 33.9675ZM35.792 35.625C35.792 36.2269 35.5683 36.825 35.121 37.2825L37.0662 39.27C37.5352 38.792 37.9054 38.2239 38.159 37.5984C38.4126 36.9728 38.5427 36.3022 38.542 35.625H35.792ZM29.8337 34.2187H24.3337V37.0312H29.8337V34.2187ZM31.8797 37.2825C31.6661 37.0654 31.4967 36.8071 31.3816 36.5226C31.2664 36.2381 31.2076 35.9329 31.2087 35.625H28.4587C28.4587 36.9431 28.9518 38.265 29.9345 39.2719L31.8797 37.2825ZM31.2087 35.625C31.2087 35.0231 31.4323 34.425 31.8797 33.9675L29.9345 31.98C29.4655 32.458 29.0953 33.0261 28.8417 33.6516C28.5881 34.2772 28.4579 34.9478 28.4587 35.625H31.2087ZM9.87966 37.2825C9.66606 37.0654 9.49674 36.8071 9.38155 36.5226C9.26637 36.2381 9.2076 35.9329 9.20866 35.625H6.45866C6.45866 36.9431 6.95183 38.265 7.93449 39.2719L9.87966 37.2825ZM9.20866 35.625C9.20866 35.0231 9.43233 34.425 9.87966 33.9675L7.93633 31.98C7.46729 32.458 7.09528 33.0261 6.84168 33.6516C6.58809 34.2772 6.45792 34.9478 6.45866 35.625H9.20866ZM24.3337 34.2187H15.167V37.0312H24.3337V34.2187ZM13.121 33.9675C13.5683 34.425 13.792 35.0231 13.792 35.625H16.542C16.542 34.3069 16.0488 32.985 15.0662 31.9781L13.121 33.9675ZM13.792 35.625C13.792 36.2269 13.5683 36.825 13.121 37.2825L15.0643 39.27C15.5334 38.792 15.9054 38.2239 16.159 37.5984C16.4126 36.9728 16.5427 36.3022 16.542 35.625H13.792ZM39.4587 31.875C39.4587 33.1687 38.432 34.2187 37.167 34.2187V37.0312C38.5041 37.0312 39.7865 36.488 40.732 35.521C41.6775 34.554 42.2087 33.2425 42.2087 31.875H39.4587ZM33.5003 18.2812C35.0806 18.2812 36.5961 18.9233 37.7135 20.0661C38.8309 21.2089 39.4587 22.7588 39.4587 24.375H42.2087C42.2087 22.0129 41.2912 19.7476 39.6581 18.0773C38.0249 16.4071 35.8099 15.4687 33.5003 15.4687V18.2812ZM2.79199 31.875C2.79199 33.2425 3.32317 34.554 4.26866 35.521C5.21416 36.488 6.49653 37.0312 7.83366 37.0312V34.2187C6.56866 34.2187 5.54199 33.1687 5.54199 31.875H2.79199Z"/>
</mask>
<path d="M4.16699 5.625V4.21875C3.80232 4.21875 3.45258 4.36691 3.19472 4.63063C2.93686 4.89435 2.79199 5.25204 2.79199 5.625H4.16699ZM24.3337 5.625H25.7087C25.7087 5.25204 25.5638 4.89435 25.3059 4.63063C25.0481 4.36691 24.6983 4.21875 24.3337 4.21875V5.625ZM24.3337 16.875V15.4687C23.969 15.4687 23.6193 15.6169 23.3614 15.8806C23.1035 16.1444 22.9587 16.502 22.9587 16.875H24.3337ZM4.16699 7.03125H24.3337V4.21875H4.16699V7.03125ZM22.9587 5.625V35.625H25.7087V5.625H22.9587ZM5.54199 31.875V5.625H2.79199V31.875H5.54199ZM24.3337 18.2812H33.5003V15.4687H24.3337V18.2812ZM39.4587 24.375V31.875H42.2087V24.375H39.4587ZM25.7087 35.625V16.875H22.9587V35.625H25.7087ZM35.121 37.2825C34.9082 37.5002 34.6555 37.6729 34.3775 37.7907C34.0994 37.9085 33.8013 37.9692 33.5003 37.9692C33.1993 37.9692 32.9013 37.9085 32.6232 37.7907C32.3451 37.6729 32.0925 37.5002 31.8797 37.2825L29.9363 39.27C30.8818 40.2369 32.1642 40.7801 33.5012 40.7801C34.8383 40.7801 36.1207 40.2369 37.0662 39.27L35.121 37.2825ZM31.8797 33.9675C32.0925 33.7498 32.3451 33.5771 32.6232 33.4593C32.9013 33.3414 33.1993 33.2808 33.5003 33.2808C33.8013 33.2808 34.0994 33.3414 34.3775 33.4593C34.6555 33.5771 34.9082 33.7498 35.121 33.9675L37.0643 31.98C36.1188 31.0131 34.8365 30.4698 33.4994 30.4698C32.1623 30.4698 30.88 31.0131 29.9345 31.98L31.8797 33.9675ZM13.121 37.2825C12.9082 37.5002 12.6555 37.6729 12.3774 37.7907C12.0994 37.9085 11.8013 37.9692 11.5003 37.9692C11.1993 37.9692 10.9013 37.9085 10.6232 37.7907C10.3451 37.6729 10.0925 37.5002 9.87966 37.2825L7.93633 39.27C8.88182 40.2369 10.1641 40.7801 11.5012 40.7801C12.8383 40.7801 14.1207 40.2369 15.0662 39.27L13.121 37.2825ZM9.87966 33.9675C10.0925 33.7498 10.3451 33.5771 10.6232 33.4593C10.9013 33.3414 11.1993 33.2808 11.5003 33.2808C11.8013 33.2808 12.0994 33.3414 12.3774 33.4593C12.6555 33.5771 12.9082 33.7498 13.121 33.9675L15.0643 31.98C14.1188 31.0131 12.8365 30.4698 11.4994 30.4698C10.1623 30.4698 8.87998 31.0131 7.93449 31.98L9.87966 33.9675ZM35.121 33.9675C35.5683 34.425 35.792 35.0231 35.792 35.625H38.542C38.542 34.3069 38.0488 32.985 37.0662 31.9781L35.121 33.9675ZM35.792 35.625C35.792 36.2269 35.5683 36.825 35.121 37.2825L37.0662 39.27C37.5352 38.792 37.9054 38.2239 38.159 37.5984C38.4126 36.9728 38.5427 36.3022 38.542 35.625H35.792ZM29.8337 34.2187H24.3337V37.0312H29.8337V34.2187ZM31.8797 37.2825C31.6661 37.0654 31.4967 36.8071 31.3816 36.5226C31.2664 36.2381 31.2076 35.9329 31.2087 35.625H28.4587C28.4587 36.9431 28.9518 38.265 29.9345 39.2719L31.8797 37.2825ZM31.2087 35.625C31.2087 35.0231 31.4323 34.425 31.8797 33.9675L29.9345 31.98C29.4655 32.458 29.0953 33.0261 28.8417 33.6516C28.5881 34.2772 28.4579 34.9478 28.4587 35.625H31.2087ZM9.87966 37.2825C9.66606 37.0654 9.49674 36.8071 9.38155 36.5226C9.26637 36.2381 9.2076 35.9329 9.20866 35.625H6.45866C6.45866 36.9431 6.95183 38.265 7.93449 39.2719L9.87966 37.2825ZM9.20866 35.625C9.20866 35.0231 9.43233 34.425 9.87966 33.9675L7.93633 31.98C7.46729 32.458 7.09528 33.0261 6.84168 33.6516C6.58809 34.2772 6.45792 34.9478 6.45866 35.625H9.20866ZM24.3337 34.2187H15.167V37.0312H24.3337V34.2187ZM13.121 33.9675C13.5683 34.425 13.792 35.0231 13.792 35.625H16.542C16.542 34.3069 16.0488 32.985 15.0662 31.9781L13.121 33.9675ZM13.792 35.625C13.792 36.2269 13.5683 36.825 13.121 37.2825L15.0643 39.27C15.5334 38.792 15.9054 38.2239 16.159 37.5984C16.4126 36.9728 16.5427 36.3022 16.542 35.625H13.792ZM39.4587 31.875C39.4587 33.1687 38.432 34.2187 37.167 34.2187V37.0312C38.5041 37.0312 39.7865 36.488 40.732 35.521C41.6775 34.554 42.2087 33.2425 42.2087 31.875H39.4587ZM33.5003 18.2812C35.0806 18.2812 36.5961 18.9233 37.7135 20.0661C38.8309 21.2089 39.4587 22.7588 39.4587 24.375H42.2087C42.2087 22.0129 41.2912 19.7476 39.6581 18.0773C38.0249 16.4071 35.8099 15.4687 33.5003 15.4687V18.2812ZM2.79199 31.875C2.79199 33.2425 3.32317 34.554 4.26866 35.521C5.21416 36.488 6.49653 37.0312 7.83366 37.0312V34.2187C6.56866 34.2187 5.54199 33.1687 5.54199 31.875H2.79199Z" fill="#FEB139"/>
<path d="M22.9587 36.125H25.7087V35.125H22.9587V36.125ZM2.79199 32.375H5.54199V31.375H2.79199V32.375ZM34.0003 18.2812V15.4687H33.0003V18.2812H34.0003ZM39.4587 32.375H42.2087V31.375H39.4587V32.375ZM42.2087 23.875H39.4587V24.875H42.2087V23.875ZM37.4235 38.9203L35.4783 36.9328L34.7637 37.6322L36.7088 39.6197L37.4235 38.9203ZM29.5772 32.3297L31.5223 34.3172L32.237 33.6178L30.2918 31.6303L29.5772 32.3297ZM35.792 36.125H38.542V35.125H35.792V36.125ZM23.8337 34.2187V37.0312H24.8337V34.2187H23.8337ZM31.2087 35.125H28.4587V36.125H31.2087V35.125ZM9.20866 35.125H6.45866V36.125H9.20866V35.125ZM13.792 36.125H16.542V35.125H13.792V36.125ZM4.16699 5.625V6.625H5.16699V5.625H4.16699ZM24.3337 5.625H23.3337V6.625H24.3337V5.625ZM24.3337 16.875V17.875H25.3337V16.875H24.3337ZM4.16699 7.03125H3.16699V8.03125H4.16699V7.03125ZM24.3337 7.03125V8.03125H25.3337V7.03125H24.3337ZM22.9587 5.625V4.625H21.9587V5.625H22.9587ZM5.54199 5.625H6.54199V4.625H5.54199V5.625ZM2.79199 31.875H1.79199H2.79199ZM24.3337 18.2812H23.3337V19.2812H24.3337V18.2812ZM33.5003 15.4687V14.4687V15.4687ZM25.7087 16.875H26.7087V15.875H25.7087V16.875ZM35.121 37.2825L34.406 36.5834L34.4059 36.5835L35.121 37.2825ZM31.8797 37.2825L32.5948 36.5835L32.5924 36.5811L31.8797 37.2825ZM29.9363 39.27L29.2213 38.5709L28.5377 39.27L29.2213 39.9691L29.9363 39.27ZM33.5012 40.7801V41.7801V40.7801ZM37.0662 39.27L36.3524 38.5696L36.3512 38.5709L37.0662 39.27ZM31.8797 33.9675L32.5947 34.6666L32.5948 34.6665L31.8797 33.9675ZM35.121 33.9675L34.4059 34.6665L34.406 34.6666L35.121 33.9675ZM37.0643 31.98L37.7793 32.6791L38.4629 31.98L37.7793 31.2809L37.0643 31.98ZM33.4994 30.4698V29.4698V30.4698ZM29.9345 31.98L30.6483 32.6804L30.6495 32.6791L29.9345 31.98ZM13.121 37.2825L12.406 36.5834L12.4059 36.5835L13.121 37.2825ZM9.87966 37.2825L10.5948 36.5835L10.5924 36.5811L9.87966 37.2825ZM7.93633 39.27L7.22132 38.5709L6.53772 39.27L7.22134 39.9691L7.93633 39.27ZM11.5012 40.7801V41.7801V40.7801ZM15.0662 39.27L15.7812 39.9691L16.4651 39.2697L15.7808 38.5705L15.0662 39.27ZM9.87966 33.9675L10.5947 34.6666L10.5948 34.6665L9.87966 33.9675ZM13.121 33.9675L12.4059 34.6665L12.406 34.6666L13.121 33.9675ZM15.0643 31.98L15.7793 32.6791L16.4629 31.98L15.7793 31.2809L15.0643 31.98ZM11.4994 30.4698V29.4698V30.4698ZM7.93449 31.98L7.2195 31.2809L6.53557 31.9803L7.21982 32.6794L7.93449 31.98ZM38.542 35.625H37.542L37.542 35.6261L38.542 35.625ZM37.0662 31.9781L37.7818 31.2797L37.0668 30.5471L36.3512 31.279L37.0662 31.9781ZM29.8337 34.2187H30.8337V33.2187H29.8337V34.2187ZM29.8337 37.0312V38.0312H30.8337V37.0312H29.8337ZM31.2087 35.625L32.2087 35.6284V35.625H31.2087ZM28.4587 35.625H29.4587L29.4587 35.6239L28.4587 35.625ZM29.9345 39.2719L29.2188 39.9703L29.9338 40.7029L30.6495 39.971L29.9345 39.2719ZM9.20866 35.625L10.2087 35.6284V35.625H9.20866ZM6.45866 35.625H7.45866L7.45866 35.6239L6.45866 35.625ZM7.93449 39.2719L7.21883 39.9703L7.93383 40.7029L8.6495 39.971L7.93449 39.2719ZM7.93633 31.98L8.65133 31.2809L7.93761 30.5509L7.22257 31.2796L7.93633 31.98ZM15.167 34.2187V33.2187H14.167V34.2187H15.167ZM15.167 37.0312H14.167V38.0312H15.167V37.0312ZM16.542 35.625H15.542L15.542 35.6261L16.542 35.625ZM15.0662 31.9781L15.7818 31.2797L15.0668 30.5471L14.3512 31.279L15.0662 31.9781ZM15.0643 39.27L14.3493 39.9691L15.063 40.6991L15.7781 39.9704L15.0643 39.27ZM37.167 34.2187V33.2187H36.167V34.2187H37.167ZM37.167 37.0312H36.167V38.0312H37.167V37.0312ZM7.83366 37.0312V38.0312H8.83366V37.0312H7.83366ZM7.83366 34.2187H8.83366V33.2187H7.83366V34.2187ZM5.16699 5.625V4.21875H3.16699V5.625H5.16699ZM4.16699 3.21875C3.52976 3.21875 2.92329 3.47785 2.47971 3.93151L3.90973 5.32975C3.98187 5.25596 4.07488 5.21875 4.16699 5.21875V3.21875ZM2.47971 3.93151C2.03688 4.38441 1.79199 4.99398 1.79199 5.625H3.79199C3.79199 5.51009 3.83683 5.4043 3.90973 5.32975L2.47971 3.93151ZM2.79199 6.625H4.16699V4.625H2.79199V6.625ZM24.3337 6.625H25.7087V4.625H24.3337V6.625ZM26.7087 5.625C26.7087 4.99398 26.4638 4.38441 26.0209 3.93151L24.5909 5.32975C24.6638 5.4043 24.7087 5.5101 24.7087 5.625H26.7087ZM26.0209 3.93151C25.5774 3.47785 24.9709 3.21875 24.3337 3.21875V5.21875C24.4258 5.21875 24.5188 5.25596 24.5909 5.32975L26.0209 3.93151ZM23.3337 4.21875V5.625H25.3337V4.21875H23.3337ZM25.3337 16.875V15.4687H23.3337V16.875H25.3337ZM24.3337 14.4687C23.6964 14.4687 23.09 14.7279 22.6464 15.1815L24.0764 16.5797C24.1485 16.506 24.2416 16.4687 24.3337 16.4687V14.4687ZM22.6464 15.1815C22.2036 15.6344 21.9587 16.244 21.9587 16.875H23.9587C23.9587 16.7601 24.0035 16.6543 24.0764 16.5797L22.6464 15.1815ZM22.9587 17.875H24.3337V15.875H22.9587V17.875ZM4.16699 8.03125H24.3337V6.03125H4.16699V8.03125ZM25.3337 7.03125V4.21875H23.3337V7.03125H25.3337ZM24.3337 3.21875H4.16699V5.21875H24.3337V3.21875ZM3.16699 4.21875V7.03125H5.16699V4.21875H3.16699ZM21.9587 5.625V35.625H23.9587V5.625H21.9587ZM26.7087 35.625V5.625H24.7087V35.625H26.7087ZM25.7087 4.625H22.9587V6.625H25.7087V4.625ZM6.54199 31.875V5.625H4.54199V31.875H6.54199ZM5.54199 4.625H2.79199V6.625H5.54199V4.625ZM1.79199 5.625V31.875H3.79199V5.625H1.79199ZM24.3337 19.2812H33.5003V17.2812H24.3337V19.2812ZM33.5003 14.4687H24.3337V16.4687H33.5003V14.4687ZM23.3337 15.4687V18.2812H25.3337V15.4687H23.3337ZM38.4587 24.375V31.875H40.4587V24.375H38.4587ZM43.2087 31.875V24.375H41.2087V31.875H43.2087ZM26.7087 35.625V16.875H24.7087V35.625H26.7087ZM25.7087 15.875H22.9587V17.875H25.7087V15.875ZM21.9587 16.875V35.625H23.9587V16.875H21.9587ZM34.4059 36.5835C34.2849 36.7072 34.1425 36.8042 33.9873 36.8699L34.7676 38.7115C35.1686 38.5416 35.5315 38.2931 35.8361 37.9815L34.4059 36.5835ZM33.9873 36.8699C33.8322 36.9357 33.6668 36.9692 33.5003 36.9692V38.9692C33.9358 38.9692 34.3665 38.8814 34.7676 38.7115L33.9873 36.8699ZM33.5003 36.9692C33.3338 36.9692 33.1684 36.9357 33.0133 36.8699L32.2331 38.7115C32.6341 38.8814 33.0648 38.9692 33.5003 38.9692V36.9692ZM33.0133 36.8699C32.8582 36.8042 32.7158 36.7072 32.5948 36.5835L31.1646 37.9815C31.4692 38.2931 31.8321 38.5416 32.2331 38.7115L33.0133 36.8699ZM31.1647 36.5834L29.2213 38.5709L30.6513 39.9691L32.5947 37.9816L31.1647 36.5834ZM29.2213 39.9691C30.3525 41.126 31.8916 41.7801 33.5012 41.7801V39.7801C32.4367 39.7801 31.4111 39.3479 30.6513 38.5709L29.2213 39.9691ZM33.5012 41.7801C35.1109 41.7801 36.6499 41.126 37.7812 39.9691L36.3512 38.5709C35.5914 39.3479 34.5658 39.7801 33.5012 39.7801V41.7801ZM32.5948 34.6665C32.7158 34.5427 32.8582 34.4458 33.0133 34.38L32.2331 32.5385C31.8321 32.7084 31.4692 32.9568 31.1646 33.2685L32.5948 34.6665ZM33.0133 34.38C33.1684 34.3143 33.3338 34.2808 33.5003 34.2808V32.2808C33.0648 32.2808 32.6341 32.3686 32.2331 32.5385L33.0133 34.38ZM33.5003 34.2808C33.6668 34.2808 33.8322 34.3143 33.9873 34.38L34.7676 32.5385C34.3665 32.3686 33.9358 32.2808 33.5003 32.2808V34.2808ZM33.9873 34.38C34.1425 34.4458 34.2849 34.5427 34.4059 34.6665L35.8361 33.2685C35.5315 32.9568 35.1686 32.7084 34.7676 32.5385L33.9873 34.38ZM35.836 34.6666L37.7793 32.6791L36.3493 31.2809L34.406 33.2684L35.836 34.6666ZM37.7793 31.2809C36.6481 30.124 35.1091 29.4698 33.4994 29.4698V31.4698C34.564 31.4698 35.5896 31.9021 36.3493 32.6791L37.7793 31.2809ZM33.4994 29.4698C31.8898 29.4698 30.3507 30.124 29.2195 31.2809L30.6495 32.6791C31.4093 31.9021 32.4349 31.4698 33.4994 31.4698V29.4698ZM12.4059 36.5835C12.2849 36.7072 12.1425 36.8042 11.9873 36.8699L12.7676 38.7115C13.1686 38.5416 13.5315 38.2931 13.8361 37.9815L12.4059 36.5835ZM11.9873 36.8699C11.8322 36.9357 11.6668 36.9692 11.5003 36.9692V38.9692C11.9358 38.9692 12.3665 38.8814 12.7676 38.7115L11.9873 36.8699ZM11.5003 36.9692C11.3338 36.9692 11.1684 36.9357 11.0133 36.8699L10.2331 38.7115C10.6341 38.8814 11.0648 38.9692 11.5003 38.9692V36.9692ZM11.0133 36.8699C10.8582 36.8042 10.7158 36.7072 10.5948 36.5835L9.16456 37.9815C9.46918 38.2931 9.83206 38.5416 10.2331 38.7115L11.0133 36.8699ZM9.16465 36.5834L7.22132 38.5709L8.65133 39.9691L10.5947 37.9816L9.16465 36.5834ZM7.22134 39.9691C8.35254 41.126 9.8916 41.7801 11.5012 41.7801V39.7801C10.4367 39.7801 9.41109 39.3479 8.65132 38.5709L7.22134 39.9691ZM11.5012 41.7801C13.1109 41.7801 14.6499 41.126 15.7812 39.9691L14.3512 38.5709C13.5914 39.3479 12.5658 39.7801 11.5012 39.7801V41.7801ZM15.7808 38.5705L13.8357 36.583L12.4063 37.9819L14.3515 39.9694L15.7808 38.5705ZM10.5948 34.6665C10.7158 34.5427 10.8582 34.4458 11.0133 34.38L10.2331 32.5385C9.83206 32.7084 9.46918 32.9568 9.16456 33.2685L10.5948 34.6665ZM11.0133 34.38C11.1684 34.3143 11.3338 34.2808 11.5003 34.2808V32.2808C11.0648 32.2808 10.6341 32.3686 10.2331 32.5385L11.0133 34.38ZM11.5003 34.2808C11.6668 34.2808 11.8322 34.3143 11.9873 34.38L12.7676 32.5385C12.3665 32.3686 11.9358 32.2808 11.5003 32.2808V34.2808ZM11.9873 34.38C12.1425 34.4458 12.2849 34.5427 12.4059 34.6665L13.8361 33.2685C13.5315 32.9568 13.1686 32.7084 12.7676 32.5385L11.9873 34.38ZM13.836 34.6666L15.7793 32.6791L14.3493 31.2809L12.406 33.2684L13.836 34.6666ZM15.7793 31.2809C14.6481 30.124 13.1091 29.4698 11.4994 29.4698V31.4698C12.564 31.4698 13.5896 31.9021 14.3493 32.6791L15.7793 31.2809ZM11.4994 29.4698C9.88976 29.4698 8.35071 30.124 7.2195 31.2809L8.64948 32.6791C9.40926 31.9021 10.4349 31.4698 11.4994 31.4698V29.4698ZM7.21982 32.6794L9.16498 34.6669L10.5943 33.268L8.64917 31.2805L7.21982 32.6794ZM34.406 34.6666C34.6612 34.9276 34.792 35.2706 34.792 35.625H36.792C36.792 34.7756 36.4755 33.9224 35.836 33.2684L34.406 34.6666ZM39.542 35.625C39.542 34.0594 38.9561 32.4828 37.7818 31.2797L36.3505 32.6766C37.1416 33.4872 37.542 34.5543 37.542 35.625H39.542ZM36.3512 31.279L34.406 33.2684L35.836 34.6666L37.7812 32.6772L36.3512 31.279ZM34.792 35.625C34.792 35.9793 34.6612 36.3224 34.406 36.5834L35.836 37.9816C36.4755 37.3276 36.792 36.4744 36.792 35.625H34.792ZM37.7799 39.9704C38.3423 39.3973 38.784 38.7183 39.0857 37.9741L37.2322 37.2227C37.0267 37.7295 36.7281 38.1868 36.3524 38.5696L37.7799 39.9704ZM39.0857 37.9741C39.388 37.2284 39.5429 36.4298 39.542 35.6239L37.542 35.6261C37.5426 36.1745 37.4371 36.7172 37.2322 37.2227L39.0857 37.9741ZM29.8337 33.2187H24.3337V35.2187H29.8337V33.2187ZM24.3337 38.0312H29.8337V36.0312H24.3337V38.0312ZM30.8337 37.0312V34.2187H28.8337V37.0312H30.8337ZM32.5924 36.5811C32.4717 36.4584 32.3748 36.3112 32.3085 36.1473L30.4546 36.8978C30.6187 37.3031 30.8604 37.6725 31.1669 37.9839L32.5924 36.5811ZM32.3085 36.1473C32.2422 35.9835 32.208 35.8071 32.2087 35.6284L30.2087 35.6215C30.2072 36.0588 30.2906 36.4926 30.4546 36.8978L32.3085 36.1473ZM27.4587 35.625C27.4587 37.1905 28.0446 38.7672 29.2188 39.9703L30.6502 38.5734C29.8591 37.7628 29.4587 36.6957 29.4587 35.625H27.4587ZM30.6495 39.971L32.5947 37.9816L31.1647 36.5834L29.2195 38.5727L30.6495 39.971ZM32.2087 35.625C32.2087 35.2706 32.3395 34.9276 32.5947 34.6666L31.1647 33.2684C30.5252 33.9224 30.2087 34.7756 30.2087 35.625H32.2087ZM29.2207 31.2796C28.6583 31.8527 28.2166 32.5317 27.9149 33.2759L29.7684 34.0273C29.9739 33.5204 30.2726 33.0632 30.6483 32.6804L29.2207 31.2796ZM27.9149 33.2759C27.6127 34.0216 27.4578 34.8202 27.4587 35.6261L29.4587 35.6239C29.4581 35.0754 29.5635 34.5328 29.7684 34.0273L27.9149 33.2759ZM10.5924 36.5811C10.4717 36.4584 10.3748 36.3112 10.3085 36.1473L8.45463 36.8978C8.61869 37.3031 8.86043 37.6725 9.1669 37.9839L10.5924 36.5811ZM10.3085 36.1473C10.2422 35.9835 10.208 35.8071 10.2087 35.6284L8.20867 35.6215C8.20716 36.0588 8.29058 36.4926 8.45463 36.8978L10.3085 36.1473ZM5.45866 35.625C5.45866 37.1905 6.0446 38.7672 7.21883 39.9703L8.65015 38.5734C7.85905 37.7628 7.45866 36.6957 7.45866 35.625H5.45866ZM8.6495 39.971L10.5947 37.9816L9.16465 36.5834L7.21949 38.5727L8.6495 39.971ZM10.2087 35.625C10.2087 35.2706 10.3395 34.9276 10.5947 34.6666L9.16465 33.2684C8.52519 33.9224 8.20866 34.7756 8.20866 35.625H10.2087ZM10.5947 33.2684L8.65133 31.2809L7.22132 32.6791L9.16465 34.6666L10.5947 33.2684ZM7.22257 31.2796C6.66126 31.8516 6.21723 32.5303 5.91494 33.2759L7.76843 34.0273C7.97332 33.5219 8.27332 33.0643 8.65008 32.6804L7.22257 31.2796ZM5.91494 33.2759C5.61267 34.0216 5.45778 34.8202 5.45866 35.6261L7.45866 35.6239C7.45806 35.0754 7.56351 34.5328 7.76843 34.0273L5.91494 33.2759ZM24.3337 33.2187H15.167V35.2187H24.3337V33.2187ZM14.167 34.2187V37.0312H16.167V34.2187H14.167ZM15.167 38.0312H24.3337V36.0312H15.167V38.0312ZM12.406 34.6666C12.6612 34.9276 12.792 35.2706 12.792 35.625H14.792C14.792 34.7756 14.4755 33.9224 13.836 33.2684L12.406 34.6666ZM17.542 35.625C17.542 34.0594 16.956 32.4828 15.7818 31.2797L14.3505 32.6766C15.1416 33.4872 15.542 34.5543 15.542 35.625H17.542ZM14.3512 31.279L12.406 33.2684L13.836 34.6666L15.7812 32.6772L14.3512 31.279ZM12.792 35.625C12.792 35.9793 12.6612 36.3224 12.406 36.5834L13.836 37.9816C14.4755 37.3276 14.792 36.4744 14.792 35.625H12.792ZM12.406 37.9816L14.3493 39.9691L15.7793 38.5709L13.836 36.5834L12.406 37.9816ZM15.7781 39.9704C16.3394 39.3984 16.7834 38.7197 17.0857 37.9741L15.2322 37.2227C15.0273 37.7281 14.7273 38.1856 14.3506 38.5696L15.7781 39.9704ZM17.0857 37.9741C17.388 37.2284 17.5429 36.4298 17.542 35.6239L15.542 35.6261C15.5426 36.1745 15.4371 36.7172 15.2322 37.2227L17.0857 37.9741ZM38.4587 31.875C38.4587 32.6378 37.8586 33.2187 37.167 33.2187V35.2187C39.0053 35.2187 40.4587 33.6997 40.4587 31.875H38.4587ZM36.167 34.2187V37.0312H38.167V34.2187H36.167ZM37.167 38.0312C38.7767 38.0312 40.3158 37.377 41.447 36.2201L40.017 34.8219C39.2572 35.5989 38.2316 36.0312 37.167 36.0312V38.0312ZM41.447 36.2201C42.5775 35.064 43.2087 33.5006 43.2087 31.875H41.2087C41.2087 32.9845 40.7775 34.0441 40.017 34.8219L41.447 36.2201ZM33.5003 19.2812C34.808 19.2812 36.0668 19.8123 36.9985 20.7652L38.4285 19.3669C37.1254 18.0342 35.3531 17.2812 33.5003 17.2812V19.2812ZM36.9985 20.7652C37.9309 21.7188 38.4587 23.0169 38.4587 24.375H40.4587C40.4587 22.5008 39.7309 20.6989 38.4285 19.3669L36.9985 20.7652ZM43.2087 24.375C43.2087 21.7549 42.1912 19.2376 40.3731 17.3782L38.943 18.7764C40.3912 20.2575 41.2087 22.271 41.2087 24.375H43.2087ZM40.3731 17.3782C38.5542 15.518 36.0825 14.4687 33.5003 14.4687V16.4687C35.5374 16.4687 37.4956 17.2961 38.943 18.7764L40.3731 17.3782ZM1.79199 31.875C1.79199 33.5006 2.42319 35.064 3.55366 36.2201L4.98367 34.8219C4.22314 34.0441 3.79199 32.9845 3.79199 31.875H1.79199ZM3.55366 36.2201C4.68487 37.377 6.22397 38.0312 7.83366 38.0312V36.0312C6.76909 36.0312 5.74345 35.5989 4.98367 34.8219L3.55366 36.2201ZM8.83366 37.0312V34.2187H6.83366V37.0312H8.83366ZM7.83366 33.2187C7.14201 33.2187 6.54199 32.6378 6.54199 31.875H4.54199C4.54199 33.6997 5.99531 35.2187 7.83366 35.2187V33.2187Z" fill="#FEB139" mask="url(#path-1-inside-1_332_1045)"/>
<path d="M4.16699 15H9.66699H4.16699ZM4.16699 22.5H13.3337H4.16699Z" fill="#FEB139"/>
<path d="M4.16699 15H9.66699M4.16699 22.5H13.3337" stroke="#FEB139" stroke-width="1.5" stroke-linecap="round" stroke-linejoin="round"/>
</svg>
