<svg width="45" height="45" viewBox="0 0 45 45" fill="none" xmlns="http://www.w3.org/2000/svg">
<path d="M22.5 0.825195L41.25 7.3877V22.5002C41.25 30.2383 36.5006 35.6477 32.07 39.0058C29.3974 41.0148 26.4643 42.6517 23.3513 43.8715L23.1881 43.9333L23.1413 43.9502L23.1281 43.9539L23.1225 43.9558C23.1206 43.9558 23.1188 43.9558 22.5 42.1877L21.8794 43.9577L21.8719 43.9539L21.8588 43.9502L21.8119 43.9315L21.6488 43.8715C20.7644 43.5295 19.8949 43.1504 19.0425 42.7352C16.8907 41.6899 14.8439 40.4411 12.93 39.0058C8.50125 35.6477 3.75 30.2383 3.75 22.5002V7.3877L22.5 0.825195ZM22.5 42.1877L21.8794 43.9577L22.5 44.1752L23.1206 43.9577L22.5 42.1877ZM22.5 40.1777L22.5169 40.1702C25.1113 39.0978 27.56 37.7025 29.805 36.0171C33.8138 32.9814 37.5 28.5433 37.5 22.5002V10.0502L22.5 4.8002L7.5 10.0502V22.5002C7.5 28.5433 11.1863 32.9777 15.195 36.0189C17.445 37.7075 19.8995 39.1049 22.5 40.1777ZM33.885 15.6433L20.6269 28.9014L12.6713 20.9477L15.3244 18.2946L20.625 23.5989L31.2319 12.9921L33.885 15.6433Z" fill="black"/>
</svg>
