<svg width="16" height="20" viewBox="0 0 16 20" fill="none" xmlns="http://www.w3.org/2000/svg">
<path d="M7.93196 6.98129L6.27776 8.46514C6.49643 9.21343 6.80187 9.93358 7.18787 10.6109C7.5905 11.2833 8.07565 11.9027 8.63205 12.4548L10.7743 11.7948C11.9745 11.4249 13.2846 11.8048 14.0827 12.7547L15.3029 14.2066C15.7969 14.7894 16.0446 15.5416 15.9934 16.3039C15.9422 17.0661 15.5963 17.7785 15.0288 18.2902C13.0386 20.106 9.97422 20.7199 7.67993 18.9181C5.66262 17.3317 3.95635 15.3858 2.64731 13.1787C1.33494 10.9824 0.456281 8.55473 0.0589882 6.02738C-0.381066 3.18366 1.70119 0.907879 4.29751 0.131955C5.84571 -0.332 7.49791 0.463922 8.06598 1.94778L8.73606 3.69761C9.17612 4.84949 8.86008 6.14937 7.93196 6.98129Z" fill="#F6F54D"/>
</svg>
