<svg width="178" height="350" viewBox="0 0 178 350" fill="none" xmlns="http://www.w3.org/2000/svg">
<path d="M69.7217 182.609H30.3213V225.825H69.7217V182.609Z" fill="#2F2E41"/>
<path d="M30.5233 136.191L19.547 166.526L8.57084 164.019L22.1133 133.209C21.1085 131.184 20.9378 128.565 21.8539 126.017C23.4567 121.557 27.7683 119.01 31.484 120.328C35.1998 121.645 36.9127 126.328 35.3099 130.788C34.3938 133.336 32.5919 135.256 30.5233 136.191Z" fill="#ED9DA0"/>
<path d="M31.2541 136.873C31.1534 136.873 31.0516 136.862 30.9513 136.838C30.5608 136.747 30.2369 136.489 30.063 136.131L26.6616 129.118C26.4659 128.714 26.4899 128.246 26.7258 127.864L34.5119 115.251C34.7227 114.909 35.0733 114.685 35.4732 114.635L36.8761 114.461C37.4171 114.395 37.9551 114.672 38.2091 115.153L41.3006 121.015C41.5184 121.429 41.4977 121.93 41.2467 122.325L32.3676 136.263C32.2856 136.391 32.1832 136.503 32.0634 136.596C31.8285 136.778 31.5445 136.873 31.2541 136.873Z" fill="black"/>
<path d="M31.5716 134.133C31.5308 134.133 31.4896 134.131 31.4481 134.126C31.0654 134.081 30.7432 133.83 30.6077 133.471L28.8919 128.932C28.7798 128.635 28.8109 128.31 28.9772 128.04L35.8031 116.958C35.9884 116.657 36.311 116.474 36.6663 116.469C37.0363 116.474 37.3495 116.64 37.5432 116.936L40.2637 121.111C40.4886 121.456 40.4835 121.9 40.251 122.24L32.4201 133.686C32.227 133.969 31.9095 134.133 31.5716 134.133Z" fill="#F59E0B"/>
<path d="M64.4409 115.747C64.8472 107.084 58.1054 99.7336 49.3826 99.33C40.6598 98.9264 33.2591 105.622 32.8528 114.286C32.5232 121.312 36.8956 127.474 43.2129 129.768L45.3261 149.95L61.4955 137.787C61.4955 137.787 58.3325 133.378 56.7541 128.498C61.1479 125.886 64.1847 121.209 64.4409 115.747Z" fill="#ED9DA0"/>
<path d="M60.1286 131.376L43.3406 136.82L42.6553 141.244L31.3491 198.753L35.8031 203.857C35.8031 203.857 31.1778 205.728 34.2613 209.812L32.5482 215.256C32.5482 215.256 50.0215 228.187 73.3192 216.618L65.4391 135.629L60.1286 131.376Z" fill="#F59E0B"/>
<path d="M36.317 214.576L32.5482 215.256L30.4926 223.764L28.4369 225.465L29.8073 228.187L28.4369 232.215C28.4369 232.215 22.9551 255.07 24.6681 275.487L24.3365 327.68L38.0301 330.954L40.771 326.19L42.1414 278.89L52.0772 243.16L61.3277 279.23L65.0965 283.314L77.0879 306.793C77.0879 306.793 87.3663 307.474 88.0516 297.265C88.0516 297.265 82.9124 272.084 76.4027 268.001L77.2436 221.429L73.3192 216.618L36.317 214.576Z" fill="#2F2E41"/>
<path d="M37.3448 328.572L38.3727 338.1L26.0386 336.738L26.7238 325.849L37.3448 328.572Z" fill="#ED9DA0"/>
<path d="M40.0857 335.718C40.0857 335.718 35.2891 341.162 31.5204 332.655C31.5204 332.655 30.4926 326.87 23.9829 329.593L15.3511 337.434C15.3511 337.434 5.48181 337.759 5.82442 343.885C5.82442 343.885 8.90794 350.01 25.3534 349.669C41.7988 349.329 40.0857 349.12 40.0857 349.12V335.718Z" fill="#2F2E41"/>
<path d="M75.7175 305.432L76.4027 311.898L73.6618 320.064C73.6618 320.064 68.8652 331.975 76.4027 331.975C83.9402 331.975 88.0516 324.115 88.0516 324.115C88.0516 324.115 90.4498 314.28 89.422 309.175C89.422 309.175 92.9811 298.959 87.6041 295.22L75.7175 305.432Z" fill="#2F2E41"/>
<path d="M43.6832 134.288L36.6596 139.713C36.6596 139.713 31.5204 140.734 29.4647 142.775C27.409 144.817 16.1028 137.671 13.3619 146.519L6.50965 157.748L0 166.595V179.88L6.85226 184.631C6.85226 184.631 23.9829 179.867 26.3812 175.443C26.3812 175.443 20.1564 204.708 22.5836 213.725L21.5028 222.743L29.8073 228.187L36.1457 174.101L44.5397 140.393L43.6832 134.288Z" fill="#2F2E41"/>
<path d="M54.6409 104.706C52.8143 105.461 50.6003 105.203 48.9993 104.048C45.0805 106.15 40.367 106.746 36.043 105.686C35.3989 107.384 34.1009 108.829 32.4747 109.658C32.4106 107.306 33.2227 104.941 34.7198 103.118C33.3607 103.725 32.0016 104.331 30.6425 104.938C31.6573 103.482 32.6721 102.026 33.6869 100.57L33.9184 100.372C32.6918 100.038 31.4652 99.7049 30.2386 99.3715C32.558 98.1841 35.2563 97.7408 37.8372 98.1232C37.3846 97.0626 36.3595 96.2635 35.2147 96.0789C37.9217 95.5098 40.6287 94.9406 43.3357 94.3715L43.2431 94.7025C46.874 93.8899 50.6103 93.0727 54.2875 93.6449C57.9647 94.217 61.6199 96.5096 62.6639 100.058L62.6812 99.8676C64.8859 99.9156 67.0413 101.039 68.3334 102.814C69.6255 104.589 70.0244 106.974 69.3793 109.069C68.6055 111.581 66.436 113.718 66.5495 116.343L66.45 116.363C67.1684 120.372 60.1085 126.237 56.7025 128.503C58.1456 127.835 59.8518 125.268 59.4434 123.739C59.0349 122.21 62.7434 116.463 61.1564 116.593C60.2655 116.666 55.43 115.325 54.7643 113.408C54.2034 111.792 53.6377 110.046 54.1294 108.408C54.3233 107.762 54.6745 107.17 54.8569 106.521C55.0393 105.872 55.0179 105.101 54.5491 104.613" fill="#2F2E41"/>
<path d="M23.7282 165.018L30.3212 141.074C30.3212 141.074 23.2188 145.838 18.8956 137.331L6.85225 157.408" fill="#2F2E41"/>
<path d="M79.6394 227.559L90.6157 197.224L101.592 199.73L88.0494 230.541C89.0543 232.566 89.2249 235.184 88.3089 237.733C86.706 242.192 82.3945 244.739 78.6787 243.422C74.9629 242.104 73.25 237.421 74.8529 232.962C75.7689 230.413 77.5708 228.494 79.6394 227.559Z" fill="#ED9DA0"/>
<path d="M56.7025 130.204C56.7025 130.204 66.8095 129.845 67.1522 135.629L87.0237 143.796L103.127 191.777C103.127 191.777 98.3299 220.361 92.8481 224.444L89.422 233.292C89.422 233.292 88.7368 226.486 78.4584 226.826L78.801 222.743C78.801 222.743 67.8374 231.59 59.2721 229.208C59.2721 229.208 49.3473 165.517 56.194 150.743C56.194 150.743 60.4712 131.225 56.7025 130.204Z" fill="#2F2E41"/>
<path d="M78.9683 222.779L78.6337 222.706L84.4491 196.205L78.2911 174.251L78.621 174.16L84.8017 196.195L78.9683 222.779Z" fill="white"/>
<path d="M177.102 34.0624C178.677 22.0148 170.188 10.9709 158.14 9.3953L87.7398 0.188235C75.6921 -1.38737 64.6483 7.10191 63.0727 19.1496L57.299 63.2971C56.2695 71.1691 61.8165 78.3853 69.6885 79.4148L71.7626 79.6861C78.4892 80.5658 83.229 86.7319 82.3493 93.4585C82.2779 94.004 82.966 94.3213 83.3471 93.9245C87.5122 89.5879 92.0669 86.6164 97.5748 84.7109C100.119 83.8305 102.854 83.7522 105.524 84.1014L147.65 89.6107C159.697 91.1863 170.741 82.697 172.317 70.6493L177.102 34.0624Z" fill="#FFB231"/>
<path d="M95.7754 17.8555L94.7998 25.3159L93.4076 25.1339L90.535 19.6147L89.8737 24.6717L88.5292 24.4958L89.5048 17.0354L90.897 17.2174L93.7659 22.8571L94.4428 17.6812L95.7754 17.8555Z" fill="#2F2F2F"/>
<path d="M101.938 23.2481C101.792 24.3586 101.475 25.1199 100.986 25.5319C100.505 25.937 99.753 26.0726 98.7297 25.9388C97.6905 25.8029 96.9903 25.4814 96.629 24.9743C96.2688 24.4592 96.1623 23.6384 96.3096 22.512C96.4538 21.4094 96.7702 20.6561 97.2587 20.252C97.7483 19.84 98.5047 19.701 99.528 19.8348C100.559 19.9696 101.255 20.2946 101.615 20.8097C101.976 21.3168 102.084 22.1296 101.938 23.2481ZM97.6914 22.6807C97.596 23.4104 97.6244 23.9023 97.7768 24.1562C97.9292 24.4101 98.3028 24.5759 98.8978 24.6537C99.4768 24.7295 99.8726 24.6643 100.085 24.4581C100.307 24.245 100.465 23.7775 100.559 23.0557C100.655 22.318 100.628 21.8222 100.475 21.5683C100.331 21.3154 99.9611 21.1501 99.3661 21.0722C98.7791 20.9955 98.3749 21.0636 98.1534 21.2767C97.9398 21.4908 97.7858 21.9588 97.6914 22.6807Z" fill="#2F2F2F"/>
<path d="M109.664 24.1496L110.24 19.7471L111.668 19.9339L111.092 24.3364C110.952 25.4073 110.594 26.1713 110.018 26.6284C109.443 27.0776 108.631 27.2338 107.584 27.0968C106.513 26.9568 105.765 26.6047 105.338 26.0407C104.912 25.4766 104.771 24.6393 104.917 23.5287L105.492 19.1262L106.92 19.313L106.344 23.7155C106.253 24.4135 106.309 24.909 106.513 25.2019C106.718 25.4869 107.134 25.6703 107.76 25.7523C108.395 25.8353 108.848 25.7614 109.12 25.5308C109.393 25.3001 109.574 24.8398 109.664 24.1496Z" fill="#2F2F2F"/>
<path d="M114.83 23.0462C114.409 22.9912 114.114 22.997 113.944 23.0635C113.783 23.1231 113.684 23.2917 113.648 23.5693C113.63 23.7042 113.648 23.8115 113.703 23.8912C113.758 23.9629 113.859 24.0205 114.007 24.0641L115.442 24.4696C115.902 24.5943 116.208 24.7836 116.36 25.0375C116.521 25.2924 116.568 25.6698 116.503 26.1695C116.408 26.8914 116.173 27.3931 115.798 27.6748C115.422 27.9564 114.833 28.0449 114.032 27.9401C113.572 27.8799 113.154 27.8051 112.779 27.7157C112.403 27.6262 112.09 27.5247 111.838 27.4111L111.999 26.1856C112.236 26.2812 112.53 26.3761 112.881 26.4704C113.233 26.5568 113.591 26.6238 113.956 26.6715C114.369 26.7255 114.653 26.7102 114.809 26.6258C114.974 26.5424 115.074 26.3579 115.112 26.0723C115.13 25.9295 115.109 25.8178 115.047 25.737C114.986 25.6484 114.873 25.5812 114.71 25.5357L113.251 25.127C112.853 25.0185 112.575 24.8289 112.417 24.5581C112.26 24.2794 112.213 23.902 112.275 23.4261C112.359 22.7836 112.615 22.333 113.045 22.0745C113.482 21.817 114.101 21.7406 114.902 21.8454C115.227 21.8879 115.524 21.9348 115.791 21.9859C116.059 22.0371 116.332 22.1051 116.612 22.19L116.458 23.368C116.256 23.3093 116.009 23.2528 115.717 23.1986C115.435 23.1374 115.139 23.0866 114.83 23.0462Z" fill="#2F2F2F"/>
<path d="M122.069 27.4179L121.923 28.5363C121.709 28.6294 121.382 28.6915 120.942 28.7228C120.512 28.7471 120.066 28.7292 119.606 28.669C118.67 28.5466 118.027 28.2205 117.677 27.6906C117.334 27.1617 117.235 26.35 117.378 25.2553C117.516 24.2003 117.831 23.4588 118.322 23.031C118.814 22.6031 119.524 22.4499 120.452 22.5712C121.348 22.6885 121.958 22.9579 122.283 23.3795C122.607 23.801 122.71 24.464 122.591 25.3683C122.569 25.5349 122.545 25.689 122.519 25.8308C122.493 25.9646 122.452 26.1529 122.396 26.3957L118.708 25.9133C118.651 26.4061 118.713 26.7652 118.894 26.9905C119.082 27.2168 119.446 27.3652 119.985 27.4358C120.342 27.4825 120.715 27.5029 121.103 27.4972C121.491 27.4915 121.813 27.465 122.069 27.4179ZM120.295 23.773C119.811 23.7097 119.461 23.7608 119.246 23.9263C119.039 24.0928 118.902 24.426 118.837 24.9257L121.324 25.2509L121.356 25.0011C121.401 24.5955 121.347 24.3059 121.192 24.1324C121.038 23.9509 120.739 23.8311 120.295 23.773Z" fill="#2F2F2F"/>
<path d="M127.973 21.6064L129.353 21.7869L128.318 29.6995L127.105 29.5408L127.093 28.9826L127.033 28.9748C126.782 29.1678 126.495 29.2997 126.171 29.3703C125.856 29.434 125.5 29.4399 125.103 29.388C124.318 29.2853 123.786 28.9737 123.507 28.4531C123.236 27.9336 123.172 27.1305 123.314 26.0437C123.454 24.9728 123.761 24.2264 124.236 23.8044C124.72 23.3755 125.442 23.2238 126.402 23.3493C126.655 23.3825 126.891 23.4335 127.108 23.5022C127.334 23.564 127.53 23.6381 127.696 23.7243L127.973 21.6064ZM126.43 24.6117C125.819 24.5318 125.399 24.6019 125.168 24.8218C124.946 25.0428 124.788 25.5103 124.694 26.2242C124.604 26.9143 124.626 27.3933 124.761 27.6609C124.903 27.9297 125.24 28.0988 125.771 28.1683C126.025 28.2015 126.266 28.2088 126.495 28.1903C126.724 28.1638 126.937 28.1109 127.132 28.0317L127.534 24.9618C127.377 24.8686 127.209 24.7942 127.031 24.7387C126.852 24.6831 126.652 24.6407 126.43 24.6117Z" fill="#2F2F2F"/>
<path d="M132.665 32.1075L131.284 31.927L132.29 24.2404L133.492 24.3976L133.505 24.9439L133.564 24.9517C133.814 24.7666 134.101 24.6387 134.425 24.5681C134.749 24.4975 135.105 24.4876 135.494 24.5385C136.287 24.6422 136.819 24.9539 137.09 25.4734C137.37 25.986 137.439 26.7857 137.297 27.8724C137.156 28.9512 136.844 29.7051 136.36 30.134C135.877 30.555 135.156 30.7027 134.196 30.5771C133.926 30.5419 133.683 30.4899 133.466 30.4212C133.248 30.3604 133.064 30.2879 132.914 30.2037L132.665 32.1075ZM135.917 27.6919C136.007 27.0018 135.978 26.5179 135.828 26.2402C135.688 25.9556 135.36 25.7796 134.844 25.7121C134.599 25.68 134.361 25.6771 134.132 25.7036C133.902 25.7301 133.686 25.7825 133.482 25.8607L133.08 28.9305C133.215 29.0127 133.371 29.0815 133.549 29.1371C133.736 29.1937 133.948 29.2376 134.186 29.2687C134.796 29.3486 135.213 29.282 135.434 29.069C135.665 28.849 135.826 28.39 135.917 27.6919Z" fill="#2F2F2F"/>
<path d="M139.325 31.2479C138.722 31.169 138.297 30.9642 138.05 30.6333C137.811 30.2956 137.734 29.8094 137.817 29.1748C137.902 28.5244 138.129 28.0861 138.497 27.8599C138.873 27.6348 139.474 27.5762 140.299 27.6841C140.529 27.7142 140.761 27.7567 140.996 27.8116C141.231 27.8665 141.433 27.9252 141.603 27.9877L141.668 27.488C141.708 27.1786 141.643 26.9401 141.471 26.7724C141.299 26.6047 141.007 26.4939 140.595 26.44C140.222 26.3912 139.887 26.3595 139.591 26.345C139.302 26.3314 139.023 26.3353 138.754 26.3566L138.905 25.2024C139.216 25.1704 139.548 25.1614 139.901 25.1753C140.263 25.1823 140.686 25.2175 141.17 25.2808C141.892 25.3752 142.409 25.6123 142.723 25.9922C143.037 26.3641 143.151 26.8792 143.065 27.5376L142.539 31.5594L141.266 31.3929L141.275 30.8615L141.251 30.8584C140.973 31.0156 140.659 31.1319 140.31 31.2073C139.97 31.2758 139.642 31.2894 139.325 31.2479ZM140.336 28.6935C139.908 28.6375 139.608 28.6507 139.436 28.733C139.265 28.8075 139.161 28.9835 139.125 29.2611C139.089 29.5308 139.127 29.7335 139.239 29.8691C139.359 29.9978 139.578 30.0829 139.895 30.1244C140.125 30.1544 140.371 30.1544 140.633 30.1241C140.905 30.0869 141.142 30.0292 141.346 29.951L141.478 28.9396C141.292 28.883 141.105 28.8343 140.916 28.7935C140.736 28.7538 140.543 28.7205 140.336 28.6935Z" fill="#2F2F2F"/>
<path d="M145.195 31.9067L143.815 31.7262L144.583 25.8482L145.857 26.0147L145.854 26.4985L145.89 26.5031C146.206 26.367 146.521 26.271 146.835 26.2153C147.149 26.1595 147.449 26.1503 147.734 26.1876C147.813 26.198 147.865 26.2048 147.889 26.2079C147.92 26.212 147.944 26.2191 147.959 26.2291L147.784 27.5618C147.739 27.5397 147.676 27.5234 147.597 27.5131C147.527 27.4958 147.4 27.4752 147.218 27.4514C146.94 27.4151 146.679 27.4051 146.435 27.4216C146.191 27.4381 145.968 27.4775 145.766 27.5399L145.195 31.9067Z" fill="#2F2F2F"/>
<path d="M151.866 31.4721L151.712 32.65C151.57 32.6879 151.373 32.7106 151.122 32.7181C150.878 32.7346 150.657 32.7299 150.458 32.7039C149.705 32.6054 149.187 32.3722 148.904 32.0044C148.622 31.6288 148.532 31.0562 148.632 30.2867L148.984 27.5976L148.199 27.4949L148.35 26.3408L149.171 26.4481L149.545 25.069L150.699 25.2199L150.515 26.624L152.395 26.8698L152.244 28.024L150.364 27.7781L150.019 30.4196C149.973 30.7687 150.017 31.0165 150.151 31.1631C150.286 31.3098 150.547 31.4085 150.936 31.4593C151.071 31.477 151.23 31.4898 151.415 31.4978C151.6 31.4978 151.751 31.4893 151.866 31.4721Z" fill="#2F2F2F"/>
<path d="M89.3362 37.462C89.6614 37.5045 90.0111 37.5139 90.3854 37.4903C90.7675 37.4676 91.1131 37.416 91.4222 37.3354L91.2557 38.6086C90.7966 38.726 90.3884 38.7937 90.031 38.8115C89.6806 38.8383 89.319 38.8273 88.9461 38.7785C87.7642 38.6239 86.9776 38.2225 86.5864 37.5743C86.1962 36.9182 86.0918 35.896 86.2734 34.5079C86.4466 33.1831 86.8508 32.2517 87.486 31.7135C88.1222 31.1674 89.055 30.9747 90.2846 31.1355C90.6495 31.1833 90.9736 31.2337 91.2571 31.2869C91.5406 31.3402 91.7948 31.4016 92.0197 31.4714L91.8563 32.7207C91.5579 32.6575 91.2665 32.6033 90.982 32.558C90.7064 32.5058 90.4179 32.46 90.1165 32.4206C89.3153 32.3158 88.7476 32.4312 88.4132 32.7667C88.0869 33.1032 87.8614 33.7474 87.7369 34.6993C87.6124 35.6512 87.6532 36.3261 87.8594 36.7242C88.0744 37.1154 88.5667 37.3613 89.3362 37.462Z" fill="#2F2F2F"/>
<path d="M97.8738 36.8358C97.7286 37.9464 97.4112 38.7076 96.9216 39.1196C96.441 39.5247 95.6891 39.6604 94.6658 39.5265C93.6266 39.3906 92.9264 39.0691 92.5651 38.562C92.2049 38.0469 92.0984 37.2262 92.2457 36.0998C92.3899 34.9972 92.7063 34.2438 93.1948 33.8398C93.6844 33.4278 94.4408 33.2887 95.4641 33.4225C96.4953 33.5574 97.191 33.8823 97.5513 34.3974C97.9126 34.9045 98.0201 35.7173 97.8738 36.8358ZM93.6275 36.2684C93.5321 36.9982 93.5605 37.49 93.7129 37.7439C93.8653 37.9978 94.2389 38.1637 94.8338 38.2415C95.4129 38.3172 95.8087 38.252 96.0212 38.0458C96.2427 37.8327 96.4007 37.3653 96.4951 36.6434C96.5916 35.9057 96.5636 35.4099 96.4113 35.156C96.2669 34.9031 95.8972 34.7378 95.3022 34.66C94.7152 34.5832 94.311 34.6514 94.0895 34.8644C93.8759 35.0786 93.7219 35.5465 93.6275 36.2684Z" fill="#2F2F2F"/>
<path d="M99.9273 40.1057L98.547 39.9252L99.3158 34.0473L100.589 34.2138L100.591 34.6618L100.627 34.6665C100.961 34.5166 101.272 34.4161 101.562 34.3652C101.86 34.3073 102.143 34.296 102.413 34.3313C102.738 34.3739 103.009 34.4617 103.226 34.5949C103.451 34.7212 103.622 34.8969 103.738 35.1218L103.773 35.1264C104.092 34.9744 104.428 34.8692 104.783 34.8107C105.146 34.7453 105.495 34.7344 105.828 34.7779C106.399 34.8526 106.807 35.0633 107.052 35.41C107.297 35.7567 107.38 36.2355 107.3 36.8463L106.757 40.9989L105.377 40.8184L105.897 36.8443C105.932 36.5746 105.882 36.3664 105.748 36.2198C105.622 36.0742 105.4 35.9806 105.083 35.9391C104.893 35.9142 104.695 35.9126 104.491 35.9343C104.286 35.9559 104.095 35.9955 103.919 36.0531C103.921 36.0938 103.92 36.1379 103.913 36.1855C103.907 36.2331 103.898 36.3045 103.885 36.3997L103.342 40.5523L101.962 40.3718L102.482 36.3977C102.517 36.128 102.468 35.9198 102.333 35.7732C102.207 35.6276 101.986 35.534 101.668 35.4925C101.502 35.4707 101.32 35.4712 101.123 35.4939C100.936 35.5097 100.733 35.5517 100.514 35.6199L99.9273 40.1057Z" fill="#2F2F2F"/>
<path d="M112.846 40.3309L112.7 41.4494C112.486 41.5424 112.159 41.6046 111.719 41.6358C111.288 41.6601 110.843 41.6422 110.383 41.582C109.447 41.4596 108.804 41.1335 108.454 40.6036C108.111 40.0747 108.012 39.263 108.155 38.1683C108.293 37.1133 108.608 36.3718 109.099 35.944C109.591 35.5161 110.301 35.3629 111.229 35.4842C112.125 35.6015 112.735 35.8709 113.059 36.2925C113.384 36.714 113.486 37.377 113.368 38.2813C113.346 38.4479 113.322 38.602 113.296 38.7438C113.27 38.8776 113.229 39.0659 113.173 39.3087L109.485 38.8263C109.428 39.3191 109.49 39.6782 109.671 39.9035C109.859 40.1298 110.223 40.2782 110.762 40.3488C111.119 40.3955 111.491 40.416 111.88 40.4102C112.268 40.4045 112.59 40.378 112.846 40.3309ZM111.072 36.686C110.588 36.6227 110.238 36.6738 110.023 36.8393C109.816 37.0058 109.679 37.339 109.614 37.8387L112.101 38.1639L112.133 37.9141C112.178 37.5085 112.123 37.2189 111.969 37.0454C111.815 36.8639 111.516 36.7441 111.072 36.686Z" fill="#2F2F2F"/>
<path d="M116.785 37.4211C116.364 37.3661 116.069 37.3719 115.899 37.4384C115.738 37.498 115.639 37.6666 115.603 37.9443C115.585 38.0791 115.604 38.1864 115.658 38.2661C115.713 38.3378 115.814 38.3955 115.962 38.439L117.397 38.8445C117.857 38.9692 118.163 39.1585 118.316 39.4124C118.476 39.6673 118.523 40.0447 118.458 40.5444C118.364 41.2663 118.128 41.768 117.753 42.0497C117.377 42.3314 116.789 42.4198 115.987 42.315C115.527 42.2548 115.11 42.18 114.734 42.0906C114.358 42.0011 114.045 41.8996 113.794 41.786L113.954 40.5605C114.191 40.6561 114.486 40.7511 114.836 40.8453C115.188 40.9317 115.546 40.9987 115.911 41.0464C116.324 41.1004 116.608 41.0851 116.764 41.0007C116.929 40.9173 117.029 40.7328 117.067 40.4472C117.085 40.3044 117.064 40.1927 117.002 40.1119C116.941 40.0233 116.828 39.9562 116.665 39.9106L115.206 39.5019C114.808 39.3934 114.531 39.2038 114.372 38.933C114.215 38.6543 114.168 38.2769 114.23 37.801C114.314 37.1585 114.571 36.7079 115 36.4494C115.437 36.1919 116.056 36.1156 116.857 36.2203C117.182 36.2629 117.479 36.3097 117.746 36.3608C118.014 36.412 118.288 36.48 118.567 36.565L118.413 37.7429C118.211 37.6842 117.964 37.6277 117.673 37.5735C117.39 37.5124 117.094 37.4615 116.785 37.4211Z" fill="#2F2F2F"/>
<path d="M128.096 37.8112L129.607 38.0088L127.232 43.6767L125.614 43.4651L125.087 39.354L123.627 43.2052L122.033 42.9967L121.195 36.9087L122.706 37.1063L123.02 41.8309L124.717 37.3693L126.038 37.542L126.578 42.2962L128.096 37.8112Z" fill="#2F2F2F"/>
<path d="M131.9 37.4616L130.437 37.2702L130.594 36.0684L132.058 36.2598L131.9 37.4616ZM130.987 44.1678L129.607 43.9872L130.375 38.1093L131.756 38.2898L130.987 44.1678Z" fill="#2F2F2F"/>
<path d="M136.124 43.5326L135.97 44.7105C135.828 44.7484 135.631 44.7711 135.38 44.7786C135.136 44.7951 134.915 44.7903 134.716 44.7644C133.963 44.6659 133.445 44.4327 133.162 44.0649C132.88 43.6892 132.79 43.1167 132.89 42.3472L133.242 39.6581L132.457 39.5554L132.608 38.4012L133.429 38.5086L133.803 37.1295L134.957 37.2804L134.773 38.6845L136.653 38.9303L136.502 40.0845L134.622 39.8386L134.277 42.4801C134.231 42.8292 134.276 43.077 134.41 43.2236C134.544 43.3703 134.805 43.469 135.194 43.5198C135.329 43.5375 135.488 43.5503 135.673 43.5583C135.858 43.5583 136.009 43.5498 136.124 43.5326Z" fill="#2F2F2F"/>
<path d="M138.133 45.1023L136.753 44.9218L137.788 37.0092L139.168 37.1897L138.844 39.6646C139.201 39.5258 139.553 39.4305 139.898 39.3789C140.244 39.3273 140.571 39.3217 140.881 39.3622C141.539 39.4483 142.01 39.6752 142.292 40.043C142.584 40.4038 142.688 40.9055 142.604 41.5481L142.072 45.6174L140.691 45.4369L141.2 41.546C141.24 41.2446 141.185 41.0156 141.036 40.8589C140.896 40.6954 140.648 40.5903 140.291 40.5436C140.045 40.5114 139.783 40.5055 139.506 40.5258C139.229 40.546 138.966 40.5882 138.715 40.6522L138.133 45.1023Z" fill="#2F2F2F"/>
<path d="M147.768 46.4713C146.752 46.3385 146.078 45.9759 145.744 45.3836C145.41 44.7913 145.331 43.8209 145.507 42.4724C145.692 41.0604 146.096 40.0684 146.719 39.4964C147.343 38.9244 148.245 38.7157 149.427 38.8703C149.634 38.8973 149.846 38.9372 150.065 38.99C150.285 39.035 150.449 39.0766 150.557 39.1149L150.398 40.3286C150.211 40.2799 150.023 40.2391 149.834 40.2063C149.644 40.1734 149.454 40.1446 149.264 40.1197C148.598 40.0325 148.103 40.1131 147.78 40.3613C147.466 40.6026 147.23 41.084 147.071 41.8055C147.411 41.6725 147.732 41.5895 148.035 41.5565C148.338 41.5235 148.66 41.5293 149.001 41.5739C149.675 41.6621 150.15 41.9218 150.424 42.353C150.7 42.7763 150.785 43.3845 150.682 44.1778C150.574 45.0028 150.263 45.6197 149.75 46.0286C149.238 46.4295 148.577 46.5771 147.768 46.4713ZM149.294 44.0568C149.353 43.6046 149.311 43.2804 149.167 43.0841C149.032 42.8809 148.75 42.7513 148.322 42.6953C148.1 42.6662 147.858 42.6668 147.596 42.6971C147.334 42.7274 147.101 42.7816 146.897 42.8598C146.795 43.7017 146.811 44.2848 146.946 44.609C147.082 44.9254 147.396 45.1157 147.888 45.18C148.301 45.2339 148.624 45.1673 148.858 44.9801C149.093 44.7929 149.238 44.4851 149.294 44.0568Z" fill="#2F2F2F"/>
<path d="M73.8845 50.819L72.5043 50.6385L73.273 44.7606L74.5462 44.9271L74.5481 45.3751L74.5838 45.3798C74.918 45.2299 75.2297 45.1294 75.5187 45.0785C75.8168 45.0206 76.1006 45.0094 76.3703 45.0446C76.6956 45.0872 76.9665 45.175 77.183 45.3082C77.4085 45.4346 77.5792 45.6102 77.695 45.8351L77.7307 45.8398C78.0491 45.6878 78.3856 45.5825 78.7402 45.524C79.1037 45.4586 79.4521 45.4477 79.7852 45.4912C80.3564 45.5659 80.7645 45.7766 81.0096 46.1233C81.2547 46.4701 81.3373 46.9488 81.2575 47.5596L80.7144 51.7123L79.3341 51.5317L79.8539 47.5576C79.8891 47.2879 79.8397 47.0797 79.7056 46.9331C79.5794 46.7875 79.3577 46.6939 79.0404 46.6525C78.85 46.6276 78.6525 46.6259 78.448 46.6476C78.2435 46.6693 78.0527 46.7089 77.8758 46.7664C77.8785 46.8071 77.8768 46.8512 77.8705 46.8988C77.8643 46.9464 77.855 47.0178 77.8425 47.113L77.2995 51.2656L75.9192 51.0851L76.4389 47.111C76.4742 46.8413 76.4248 46.6331 76.2907 46.4865C76.1645 46.3409 75.9428 46.2473 75.6255 46.2058C75.4589 46.1841 75.2773 46.1845 75.0807 46.2072C74.893 46.223 74.6899 46.265 74.4712 46.3332L73.8845 50.819Z" fill="#2F2F2F"/>
<path d="M87.7385 49.6295C87.5933 50.7401 87.2759 51.5014 86.7863 51.9133C86.3058 52.3184 85.5538 52.4541 84.5305 52.3203C83.4914 52.1844 82.7912 51.8628 82.4299 51.3557C82.0696 50.8406 81.9632 50.0199 82.1105 48.8935C82.2547 47.7909 82.571 47.0375 83.0596 46.6335C83.5491 46.2215 84.3055 46.0824 85.3288 46.2162C86.36 46.3511 87.0558 46.6761 87.416 47.1911C87.7773 47.6983 87.8848 48.5111 87.7385 49.6295ZM83.4923 49.0621C83.3968 49.7919 83.4253 50.2837 83.5777 50.5376C83.73 50.7915 84.1037 50.9574 84.6986 51.0352C85.2777 51.1109 85.6735 51.0457 85.886 50.8395C86.1075 50.6264 86.2654 50.159 86.3598 49.4371C86.4563 48.6994 86.4284 48.2036 86.276 47.9497C86.1316 47.6968 85.7619 47.5315 85.167 47.4537C84.58 47.3769 84.1757 47.4451 83.9542 47.6582C83.7407 47.8723 83.5867 48.3403 83.4923 49.0621Z" fill="#2F2F2F"/>
<path d="M89.792 52.8994L88.4118 52.7189L89.1805 46.841L90.3704 46.9966L90.3521 47.5993L90.3878 47.604C90.6976 47.3944 91.0184 47.2548 91.3502 47.1852C91.691 47.1088 92.0795 47.0991 92.5158 47.1562C93.1663 47.2412 93.6408 47.4687 93.9393 47.8385C94.2379 48.2084 94.3457 48.7106 94.2627 49.3452L93.7305 53.4145L92.3503 53.234L92.8591 49.3431C92.8965 49.0576 92.8293 48.8309 92.6576 48.6633C92.4948 48.4887 92.231 48.3775 91.8661 48.3298C91.6044 48.2956 91.3458 48.2981 91.0906 48.3373C90.8364 48.3686 90.5934 48.4377 90.3616 48.5445L89.792 52.8994Z" fill="#2F2F2F"/>
<path d="M98.7753 52.7672L98.6212 53.9452C98.4791 53.9831 98.2825 54.0058 98.0314 54.0133C97.7872 54.0298 97.5659 54.025 97.3676 53.9991C96.614 53.9006 96.0959 53.6674 95.8132 53.2996C95.5315 52.9239 95.441 52.3514 95.5417 51.5819L95.8933 48.8928L95.108 48.7901L95.259 47.6359L96.08 47.7433L96.454 46.3642L97.6082 46.5151L97.4245 47.9191L99.3045 48.165L99.1536 49.3192L97.2736 49.0733L96.9281 51.7148C96.8825 52.0639 96.9267 52.3117 97.0608 52.4583C97.195 52.6049 97.4564 52.7037 97.845 52.7545C97.9799 52.7721 98.1396 52.785 98.3241 52.793C98.5097 52.793 98.66 52.7844 98.7753 52.7672Z" fill="#2F2F2F"/>
<path d="M100.784 54.337L99.4041 54.1565L100.439 46.2439L101.819 46.4244L101.496 48.8993C101.853 48.7605 102.204 48.6652 102.549 48.6136C102.895 48.562 103.223 48.5564 103.532 48.5969C104.19 48.683 104.661 48.9099 104.944 49.2777C105.235 49.6385 105.339 50.1402 105.255 50.7828L104.723 54.8521L103.343 54.6716L103.851 50.7807C103.891 50.4793 103.836 50.2503 103.687 50.0936C103.547 49.9301 103.299 49.825 102.942 49.7783C102.696 49.7461 102.434 49.7402 102.157 49.7604C101.88 49.7807 101.617 49.8229 101.366 49.8869L100.784 54.337Z" fill="#2F2F2F"/>
<path d="M108.811 50.4975C108.39 50.4425 108.095 50.4482 107.925 50.5148C107.764 50.5744 107.665 50.743 107.629 51.0206C107.611 51.1555 107.63 51.2628 107.684 51.3424C107.739 51.4142 107.84 51.4718 107.988 51.5153L109.423 51.9209C109.883 52.0456 110.189 52.2349 110.342 52.4888C110.502 52.7437 110.549 53.1211 110.484 53.6208C110.39 54.3427 110.155 54.8444 109.779 55.1261C109.403 55.4077 108.815 55.4962 108.013 55.3914C107.553 55.3312 107.136 55.2564 106.76 55.1669C106.384 55.0775 106.071 54.976 105.82 54.8624L105.98 53.6369C106.217 53.7325 106.512 53.8274 106.862 53.9217C107.214 54.008 107.572 54.0751 107.937 54.1228C108.35 54.1767 108.634 54.1615 108.79 54.077C108.955 53.9936 109.055 53.8091 109.093 53.5236C109.111 53.3808 109.09 53.269 109.028 53.1883C108.967 53.0996 108.854 53.0325 108.691 52.9869L107.232 52.5783C106.834 52.4698 106.557 52.2802 106.398 52.0094C106.241 51.7307 106.194 51.3533 106.256 50.8774C106.34 50.2348 106.597 49.7843 107.026 49.5258C107.463 49.2683 108.082 49.1919 108.883 49.2967C109.208 49.3392 109.505 49.3861 109.772 49.4372C110.04 49.4883 110.314 49.5564 110.593 49.6413L110.439 50.8193C110.237 50.7606 109.99 50.7041 109.699 50.6499C109.416 50.5887 109.12 50.5379 108.811 50.4975Z" fill="#2F2F2F"/>
<path d="M114.369 56.1137L113.334 48.3902L114.881 48.5925L115.343 52.925C115.352 53.0392 115.362 53.1777 115.373 53.3405C115.384 53.5033 115.404 53.9698 115.432 54.74C115.656 54.0188 115.794 53.5771 115.848 53.4146C115.901 53.2522 115.947 53.121 115.984 53.021L117.594 48.9473L119.093 49.1434L119.615 53.4837C119.632 53.5989 119.645 53.7419 119.655 53.9126C119.666 54.0754 119.687 54.5339 119.718 55.2883C119.869 54.8079 119.987 54.428 120.072 54.1486C120.166 53.8624 120.231 53.6732 120.268 53.5812L121.806 49.4982L123.305 49.6943L120.319 56.8918L118.689 56.6786L118.253 53.4387C118.216 53.1031 118.183 52.7437 118.152 52.3605C118.122 51.9694 118.094 51.5098 118.066 50.9817C117.944 51.3611 117.813 51.7473 117.672 52.1405C117.541 52.5267 117.402 52.9159 117.253 53.308L116.011 56.3284L114.369 56.1137Z" fill="#2F2F2F"/>
<path d="M124.08 57.4925C123.477 57.4137 123.052 57.2089 122.805 56.878C122.566 56.5403 122.489 56.0541 122.572 55.4195C122.657 54.769 122.884 54.3307 123.252 54.1046C123.628 53.8795 124.229 53.8209 125.054 53.9288C125.284 53.9589 125.517 54.0014 125.751 54.0563C125.986 54.1112 126.188 54.1699 126.358 54.2324L126.423 53.7327C126.463 53.4233 126.398 53.1848 126.226 53.0171C126.054 52.8494 125.762 52.7386 125.35 52.6847C124.977 52.6359 124.642 52.6042 124.346 52.5896C124.057 52.5761 123.778 52.58 123.509 52.6013L123.66 51.4471C123.971 51.4151 124.303 51.4061 124.656 51.42C125.018 51.427 125.441 51.4622 125.925 51.5255C126.647 51.6199 127.165 51.857 127.478 52.2368C127.792 52.6088 127.907 53.1239 127.82 53.7823L127.294 57.8041L126.021 57.6375L126.03 57.1062L126.006 57.1031C125.728 57.2603 125.414 57.3766 125.065 57.452C124.726 57.5205 124.397 57.534 124.08 57.4925ZM125.091 54.9382C124.663 54.8822 124.363 54.8953 124.191 54.9777C124.02 55.0522 123.916 55.2282 123.88 55.5058C123.844 55.7755 123.882 55.9782 123.994 56.1138C124.114 56.2424 124.333 56.3275 124.65 56.369C124.88 56.3991 125.126 56.399 125.388 56.3688C125.66 56.3316 125.897 56.2739 126.101 56.1957L126.233 55.1843C126.047 55.1277 125.86 55.079 125.671 55.0382C125.491 54.9985 125.298 54.9652 125.091 54.9382Z" fill="#2F2F2F"/>
<path d="M129.95 58.1514L128.57 57.9708L129.339 52.0929L130.612 52.2594L130.609 52.7431L130.645 52.7478C130.961 52.6117 131.276 52.5157 131.59 52.46C131.904 52.4042 132.204 52.395 132.489 52.4323C132.568 52.4427 132.62 52.4494 132.644 52.4526C132.676 52.4567 132.699 52.4638 132.714 52.4738L132.539 53.8064C132.494 53.7844 132.431 53.7681 132.352 53.7577C132.282 53.7405 132.155 53.7199 131.973 53.6961C131.695 53.6597 131.434 53.6498 131.19 53.6663C130.946 53.6828 130.723 53.7222 130.521 53.7845L129.95 58.1514Z" fill="#2F2F2F"/>
<path d="M134.156 58.7015L132.776 58.521L133.545 52.643L134.818 52.8095L134.815 53.2933L134.851 53.2979C135.167 53.1618 135.482 53.0658 135.796 53.0101C136.11 52.9543 136.41 52.9451 136.695 52.9824C136.775 52.9928 136.826 52.9996 136.85 53.0027C136.882 53.0068 136.905 53.0139 136.92 53.0239L136.746 54.3566C136.7 54.3345 136.638 54.3182 136.558 54.3079C136.488 54.2906 136.362 54.27 136.179 54.2462C135.902 54.2099 135.641 54.1999 135.397 54.2164C135.152 54.2329 134.929 54.2723 134.728 54.3347L134.156 58.7015Z" fill="#2F2F2F"/>
<path d="M138.163 59.3344C137.56 59.2555 137.135 59.0507 136.888 58.7198C136.65 58.3821 136.572 57.8959 136.655 57.2613C136.74 56.6109 136.967 56.1726 137.335 55.9464C137.712 55.7213 138.312 55.6627 139.137 55.7706C139.367 55.8007 139.6 55.8432 139.835 55.8981C140.069 55.953 140.272 56.0118 140.441 56.0742L140.506 55.5745C140.547 55.2651 140.481 55.0266 140.309 54.8589C140.138 54.6912 139.846 54.5804 139.433 54.5265C139.06 54.4777 138.726 54.446 138.429 54.4315C138.14 54.4179 137.861 54.4218 137.592 54.4431L137.743 53.2889C138.054 53.2569 138.386 53.2479 138.739 53.2618C139.101 53.2688 139.524 53.304 140.008 53.3673C140.73 53.4617 141.248 53.6988 141.561 54.0787C141.876 54.4506 141.99 54.9657 141.904 55.6241L141.378 59.6459L140.104 59.4794L140.113 58.948L140.09 58.9449C139.811 59.1021 139.497 59.2184 139.148 59.2938C138.809 59.3623 138.48 59.3759 138.163 59.3344ZM139.175 56.78C138.746 56.724 138.446 56.7372 138.274 56.8195C138.103 56.894 137.999 57.07 137.963 57.3476C137.928 57.6173 137.966 57.82 138.077 57.9556C138.197 58.0843 138.416 58.1694 138.733 58.2109C138.963 58.2409 139.21 58.2409 139.472 58.2106C139.743 58.1734 139.98 58.1157 140.184 58.0375L140.316 57.0261C140.13 56.9695 139.943 56.9208 139.755 56.88C139.574 56.8403 139.381 56.807 139.175 56.78Z" fill="#2F2F2F"/>
<path d="M144.033 59.9932L142.653 59.8127L143.422 53.9347L144.612 54.0903L144.593 54.693L144.629 54.6977C144.939 54.4881 145.26 54.3485 145.591 54.279C145.932 54.2025 146.321 54.1928 146.757 54.2499C147.407 54.335 147.882 54.5624 148.181 54.9323C148.479 55.3021 148.587 55.8043 148.504 56.4389L147.972 60.5083L146.591 60.3277L147.1 56.4369C147.138 56.1513 147.07 55.9247 146.899 55.757C146.736 55.5824 146.472 55.4713 146.107 55.4236C145.846 55.3893 145.587 55.3918 145.332 55.431C145.078 55.4623 144.835 55.5314 144.603 55.6383L144.033 59.9932Z" fill="#2F2F2F"/>
<path d="M153.016 59.861L152.862 61.0389C152.72 61.0768 152.524 61.0995 152.273 61.107C152.028 61.1235 151.807 61.1188 151.609 61.0928C150.855 60.9943 150.337 60.7611 150.054 60.3934C149.773 60.0177 149.682 59.4451 149.783 58.6756L150.135 55.9865L149.349 55.8838L149.5 54.7297L150.321 54.837L150.695 53.4579L151.849 53.6088L151.666 55.0129L153.546 55.2588L153.395 56.4129L151.515 56.1671L151.169 58.8086C151.124 59.1576 151.168 59.4054 151.302 59.552C151.436 59.6987 151.698 59.7974 152.086 59.8482C152.221 59.8659 152.381 59.8787 152.565 59.8867C152.751 59.8868 152.901 59.8782 153.016 59.861Z" fill="#2F2F2F"/>
<path d="M154.217 62.0632C154.51 62.1016 154.736 62.0746 154.893 61.9822C155.049 61.8978 155.201 61.6917 155.349 61.3641L153.795 55.2914L155.342 55.4937L156.228 60.0995L158.198 55.8672L159.685 56.0617L156.633 61.9073C156.332 62.4811 156.003 62.8737 155.644 63.085C155.294 63.2973 154.857 63.3692 154.333 63.3008C154.175 63.28 154.013 63.2508 153.849 63.2132C153.684 63.1755 153.54 63.1365 153.416 63.0961L153.567 61.9419C153.628 61.9661 153.703 61.9839 153.79 61.9953C153.876 62.0146 154.018 62.0373 154.217 62.0632Z" fill="#2F2F2F"/>
<path d="M160.249 62.1139L158.904 61.938L159.077 60.6173L160.422 60.7931L160.249 62.1139Z" fill="#2F2F2F"/>
<path d="M85.9063 58.9224L87.3817 59.1154L84.0795 63.4518L83.7169 66.2242L82.2891 66.0374L82.6517 63.265L80.5043 58.2159L82.1225 58.4276L83.544 62.0868L85.9063 58.9224Z" fill="#2F2F2F"/>
<path d="M92.0118 64.3076C91.8666 65.4182 91.5492 66.1794 91.0596 66.5914C90.579 66.9965 89.8271 67.1322 88.8038 66.9983C87.7647 66.8624 87.0645 66.5409 86.7032 66.0338C86.3429 65.5187 86.2365 64.698 86.3838 63.5716C86.528 62.469 86.8443 61.7156 87.3328 61.3116C87.8224 60.8996 88.5788 60.7605 89.6021 60.8943C90.6333 61.0292 91.3291 61.3541 91.6893 61.8692C92.0506 62.3763 92.1581 63.1891 92.0118 64.3076ZM87.7656 63.7402C87.6701 64.47 87.6986 64.9618 87.8509 65.2157C88.0033 65.4696 88.377 65.6355 88.9719 65.7133C89.551 65.789 89.9468 65.7238 90.1593 65.5176C90.3808 65.3045 90.5387 64.8371 90.6331 64.1152C90.7296 63.3775 90.7017 62.8817 90.5493 62.6278C90.4049 62.3749 90.0352 62.2096 89.4403 62.1318C88.8533 62.055 88.449 62.1232 88.2275 62.3362C88.014 62.5504 87.86 63.0183 87.7656 63.7402Z" fill="#2F2F2F"/>
<path d="M94.5987 67.7562C93.9403 67.6701 93.4697 67.4432 93.187 67.0754C92.9054 66.6997 92.8076 66.1826 92.8937 65.5243L93.4181 61.5144L94.7984 61.6949L94.2973 65.5263C94.2579 65.8277 94.3087 66.0562 94.4497 66.2118C94.5907 66.3674 94.8397 66.4686 95.1966 66.5153C95.4187 66.5443 95.6479 66.5501 95.8842 66.5326C96.1205 66.5151 96.3429 66.4796 96.5516 66.4262L97.1305 61.9999L98.5107 62.1804L97.742 68.0584L96.4689 67.8919L96.4742 67.4811L96.4385 67.4764C96.0915 67.6005 95.7615 67.6864 95.4487 67.7342C95.1438 67.7831 94.8604 67.7904 94.5987 67.7562Z" fill="#2F2F2F"/>
<path d="M101.135 60.914L100.544 62.8456C100.5 62.9933 100.421 63.1039 100.306 63.1777C100.192 63.2515 100.055 63.278 99.8967 63.2572L99.5159 63.2074L99.8737 60.7491L101.135 60.914Z" fill="#2F2F2F"/>
<path d="M102.455 68.6747L101.075 68.4942L101.843 62.6163L103.116 62.7828L103.114 63.2665L103.149 63.2712C103.466 63.135 103.781 63.0391 104.095 62.9833C104.409 62.9275 104.708 62.9183 104.994 62.9557C105.073 62.9661 105.125 62.9728 105.149 62.9759C105.18 62.9801 105.204 62.9871 105.218 62.9972L105.044 64.3298C104.999 64.3077 104.936 64.2915 104.857 64.2811C104.787 64.2638 104.66 64.2433 104.478 64.2194C104.2 64.1831 103.939 64.1732 103.695 64.1897C103.451 64.2061 103.228 64.2455 103.026 64.3079L102.455 68.6747Z" fill="#2F2F2F"/>
<path d="M109.982 68.1948L109.836 69.3132C109.622 69.4063 109.295 69.4684 108.855 69.4997C108.424 69.524 107.979 69.5061 107.519 69.4459C106.583 69.3235 105.94 68.9973 105.589 68.4675C105.247 67.9386 105.148 67.1268 105.291 66.0322C105.429 64.9771 105.744 64.2357 106.235 63.8078C106.727 63.38 107.437 63.2267 108.365 63.3481C109.261 63.4653 109.871 63.7348 110.195 64.1563C110.519 64.5779 110.622 65.2409 110.504 66.1452C110.482 66.3117 110.458 66.4659 110.432 66.6077C110.406 66.7415 110.365 66.9298 110.309 67.1726L106.621 66.6902C106.564 67.183 106.626 67.5421 106.807 67.7674C106.995 67.9937 107.359 68.1421 107.898 68.2127C108.255 68.2594 108.627 68.2798 109.015 68.2741C109.403 68.2684 109.726 68.2419 109.982 68.1948ZM108.208 64.5499C107.724 64.4866 107.374 64.5377 107.159 64.7032C106.951 64.8697 106.815 65.2028 106.75 65.7026L109.237 66.0278L109.269 65.7779C109.314 65.3723 109.259 65.0828 109.105 64.9092C108.951 64.7278 108.652 64.608 108.208 64.5499Z" fill="#2F2F2F"/>
<path d="M114.363 70.341C113.76 70.2621 113.335 70.0573 113.088 69.7264C112.849 69.3887 112.772 68.9025 112.855 68.2679C112.94 67.6175 113.167 67.1792 113.535 66.953C113.911 66.7279 114.512 66.6693 115.337 66.7772C115.567 66.8073 115.8 66.8498 116.034 66.9047C116.269 66.9597 116.471 67.0184 116.641 67.0808L116.706 66.5811C116.747 66.2717 116.681 66.0332 116.509 65.8655C116.338 65.6978 116.045 65.587 115.633 65.5331C115.26 65.4843 114.925 65.4527 114.629 65.4381C114.34 65.4245 114.061 65.4284 113.792 65.4497L113.943 64.2955C114.254 64.2635 114.586 64.2545 114.939 64.2684C115.301 64.2755 115.724 64.3106 116.208 64.3739C116.93 64.4683 117.448 64.7054 117.761 65.0853C118.075 65.4572 118.19 65.9723 118.103 66.6307L117.577 70.6525L116.304 70.486L116.313 69.9547L116.29 69.9515C116.011 70.1087 115.697 70.225 115.348 70.3004C115.009 70.369 114.68 70.3825 114.363 70.341ZM115.375 67.7866C114.946 67.7306 114.646 67.7438 114.474 67.8261C114.303 67.9006 114.199 68.0766 114.163 68.3542C114.127 68.624 114.165 68.8266 114.277 68.9622C114.397 69.0909 114.616 69.176 114.933 69.2175C115.163 69.2475 115.409 69.2475 115.672 69.2172C115.943 69.18 116.18 69.1224 116.384 69.0441L116.516 68.0327C116.33 67.9761 116.143 67.9274 115.954 67.8867C115.774 67.8469 115.581 67.8136 115.375 67.7866Z" fill="#2F2F2F"/>
<path d="M124.061 68.487L122.459 67.878C121.928 67.6795 121.57 67.423 121.385 67.1083C121.202 66.7858 121.145 66.3548 121.216 65.8154C121.321 65.0063 121.621 64.4404 122.115 64.1178C122.609 63.7951 123.324 63.695 124.26 63.8174C124.649 63.8682 124.992 63.9332 125.288 64.0123C125.593 64.0844 125.872 64.1734 126.124 64.279L125.956 65.564C125.515 65.4177 125.162 65.3149 124.895 65.2559C124.63 65.1888 124.354 65.1367 124.069 65.0993C123.593 65.0371 123.246 65.0683 123.028 65.1931C122.811 65.31 122.679 65.5469 122.632 65.9038C122.605 66.1101 122.624 66.2739 122.689 66.3954C122.763 66.5099 122.896 66.6039 123.088 66.6774L124.644 67.2683C125.006 67.4043 125.271 67.5318 125.441 67.6509C125.612 67.762 125.748 67.8928 125.85 68.0432C125.949 68.2095 126.012 68.4073 126.038 68.6367C126.073 68.8671 126.069 69.1449 126.026 69.4701C125.916 70.3109 125.615 70.8848 125.123 71.1916C124.631 71.4984 123.917 71.5905 122.981 71.4681C122.498 71.4048 122.034 71.3119 121.59 71.1893C121.154 71.0678 120.815 70.9428 120.574 70.8144L120.75 69.4699C121.077 69.6176 121.451 69.7512 121.871 69.8707C122.3 69.9833 122.729 70.0676 123.157 70.1236C123.625 70.1848 123.959 70.1639 124.158 70.0608C124.366 69.9509 124.495 69.7055 124.545 69.3247C124.576 69.0868 124.558 68.911 124.493 68.7975C124.436 68.6771 124.292 68.5736 124.061 68.487Z" fill="#2F2F2F"/>
<path d="M131.103 70.9086L130.952 72.0628C130.731 72.1548 130.408 72.2175 129.984 72.2508C129.568 72.2851 129.142 72.2738 128.706 72.2167C127.865 72.1068 127.303 71.8034 127.021 71.3067C126.739 70.8099 126.673 69.9943 126.821 68.86C126.967 67.7415 127.288 66.9847 127.783 66.5897C128.288 66.1877 129.079 66.0572 130.158 66.1983C130.42 66.2325 130.653 66.2711 130.857 66.3139C131.07 66.3499 131.294 66.3993 131.528 66.4621L131.367 67.6877C131.061 67.6234 130.793 67.5723 130.564 67.5343C130.337 67.4883 130.147 67.4555 129.996 67.4358C129.346 67.3507 128.907 67.4102 128.678 67.6143C128.458 67.8195 128.299 68.2949 128.201 69.0405C128.107 69.7624 128.12 70.2482 128.241 70.4979C128.369 70.7487 128.679 70.9063 129.171 70.9706C129.496 71.0131 129.833 71.0289 130.181 71.018C130.539 71.0002 130.846 70.9637 131.103 70.9086Z" fill="#2F2F2F"/>
<path d="M133.198 72.8043C132.596 72.7255 132.171 72.5206 131.923 72.1898C131.685 71.852 131.608 71.3659 131.691 70.7313C131.776 70.0808 132.002 69.6425 132.371 69.4164C132.747 69.1913 133.348 69.1327 134.173 69.2406C134.403 69.2707 134.635 69.3132 134.87 69.3681C135.105 69.423 135.307 69.4817 135.476 69.5442L135.542 69.0445C135.582 68.7351 135.517 68.4966 135.345 68.3289C135.173 68.1612 134.881 68.0504 134.469 67.9964C134.096 67.9477 133.761 67.916 133.464 67.9014C133.176 67.8879 132.897 67.8917 132.628 67.913L132.779 66.7589C133.09 66.7269 133.422 66.7179 133.775 66.7318C134.137 66.7388 134.56 66.774 135.044 66.8372C135.766 66.9316 136.283 67.1688 136.597 67.5486C136.911 67.9205 137.025 68.4357 136.939 69.0941L136.413 73.1158L135.14 72.9493L135.149 72.418L135.125 72.4149C134.846 72.5721 134.533 72.6884 134.184 72.7638C133.844 72.8323 133.516 72.8458 133.198 72.8043ZM134.21 70.25C133.782 70.1939 133.482 70.2071 133.309 70.2895C133.138 70.3639 133.035 70.54 132.998 70.8176C132.963 71.0873 133.001 71.29 133.113 71.4255C133.233 71.5542 133.452 71.6393 133.769 71.6808C133.999 71.7109 134.245 71.7108 134.507 71.6805C134.778 71.6434 135.016 71.5857 135.22 71.5075L135.352 70.4961C135.166 70.4395 134.978 70.3908 134.79 70.35C134.61 70.3103 134.416 70.2769 134.21 70.25Z" fill="#2F2F2F"/>
<path d="M139.069 73.4631L137.689 73.2826L138.457 67.4047L139.73 67.5712L139.732 68.0192L139.768 68.0239C140.102 67.874 140.414 67.7735 140.703 67.7226C141.001 67.6647 141.285 67.6535 141.555 67.6887C141.88 67.7313 142.151 67.8191 142.367 67.9523C142.593 68.0787 142.763 68.2543 142.879 68.4792L142.915 68.4839C143.233 68.3319 143.57 68.2266 143.924 68.1681C144.288 68.1027 144.636 68.0918 144.97 68.1353C145.541 68.21 145.949 68.4207 146.194 68.7674C146.439 69.1142 146.522 69.5929 146.442 70.2037L145.899 74.3564L144.518 74.1758L145.038 70.2017C145.073 69.932 145.024 69.7238 144.89 69.5772C144.764 69.4316 144.542 69.3381 144.225 69.2966C144.034 69.2717 143.837 69.27 143.632 69.2917C143.428 69.3134 143.237 69.353 143.06 69.4105C143.063 69.4512 143.061 69.4953 143.055 69.5429C143.049 69.5905 143.039 69.6619 143.027 69.7571L142.484 73.9097L141.104 73.7292L141.623 69.7551C141.659 69.4854 141.609 69.2772 141.475 69.1306C141.349 68.985 141.127 68.8914 140.81 68.8499C140.643 68.8282 140.462 68.8286 140.265 68.8513C140.077 68.8671 139.874 68.9091 139.655 68.9773L139.069 73.4631Z" fill="#2F2F2F"/>
<path d="M148.075 67.0529L149.646 67.2583L148.782 72.4704L147.569 72.3117L148.075 67.0529ZM148.767 73.4244L148.598 74.7094L147.171 74.5227L147.339 73.2376L148.767 73.4244Z" fill="#2F2F2F"/>
</svg>
