<svg width="183" height="319" viewBox="0 0 183 319" fill="none" xmlns="http://www.w3.org/2000/svg">
<path d="M161.203 318.698H152.809C151.742 318.697 150.72 318.274 149.965 317.523C149.211 316.771 148.787 315.753 148.785 314.69V245.021C148.787 243.959 149.211 242.94 149.965 242.189C150.72 241.438 151.742 241.015 152.809 241.014H161.203C162.269 241.015 163.292 241.438 164.047 242.189C164.801 242.94 165.225 243.959 165.227 245.021V314.69C165.225 315.753 164.801 316.771 164.047 317.523C163.292 318.274 162.269 318.697 161.203 318.698Z" fill="#F59E0B"/>
<path d="M140.621 318.698H132.228C131.161 318.697 130.138 318.274 129.384 317.523C128.629 316.771 128.205 315.753 128.204 314.69V245.021C128.205 243.959 128.629 242.94 129.384 242.189C130.138 241.438 131.161 241.015 132.228 241.014H140.621C141.688 241.015 142.711 241.437 143.465 242.189C144.22 242.94 144.644 243.959 144.645 245.021V314.69C144.644 315.753 144.22 316.771 143.465 317.523C142.711 318.274 141.688 318.697 140.621 318.698Z" fill="#F59E0B"/>
<path d="M149.118 153.366C167.574 153.366 182.536 138.466 182.536 120.085C182.536 101.704 167.574 86.8037 149.118 86.8037C130.662 86.8037 115.701 101.704 115.701 120.085C115.701 138.466 130.662 153.366 149.118 153.366Z" fill="#F59E0B"/>
<path d="M168.003 131.131C170.116 130.654 172.747 130.06 174.49 128.177C175.006 127.598 175.388 126.914 175.61 126.173C175.832 125.431 175.889 124.65 175.776 123.885C175.706 123.339 175.51 122.816 175.204 122.358C174.897 121.9 174.489 121.518 174.01 121.244C172.768 120.557 171.172 120.653 169.595 121.473L168.825 108.503L167.517 108.58L168.422 123.827L169.389 123.132C170.51 122.326 172.146 121.706 173.374 122.385C173.678 122.565 173.936 122.813 174.128 123.109C174.321 123.406 174.442 123.742 174.482 124.092C174.563 124.663 174.52 125.244 174.355 125.796C174.19 126.348 173.907 126.859 173.527 127.292C172.17 128.758 170.091 129.321 167.713 129.858L168.003 131.131Z" fill="#2F2E41"/>
<path d="M182.265 106.991L175.34 108.353L175.594 109.633L182.519 108.271L182.265 106.991Z" fill="#2F2E41"/>
<path d="M160.41 111.291L153.486 112.653L153.74 113.934L160.664 112.572L160.41 111.291Z" fill="#2F2E41"/>
<path d="M157.338 257.819H118.377C117.168 257.818 116.009 257.339 115.154 256.488C114.299 255.636 113.818 254.482 113.816 253.278V195.049C113.827 186.099 117.401 177.519 123.756 171.19C130.11 164.861 138.726 161.301 147.713 161.291C156.953 161.302 165.811 164.962 172.345 171.469C178.879 177.976 182.554 186.798 182.564 196.001V232.696C182.556 239.357 179.896 245.743 175.167 250.453C170.438 255.163 164.026 257.812 157.338 257.819Z" fill="#2F2E41"/>
<path d="M142.854 105.433C143.932 102.212 147.679 100.97 150.797 100.873C155.178 100.737 159.456 102.287 163.852 101.594C171.825 100.338 176.803 92.6849 178.354 85.3583C179.389 80.4717 179.297 75.4623 179.181 70.4966C179.188 70.3052 179.139 70.1157 179.041 69.951C178.943 69.7863 178.799 69.6534 178.626 69.5682C178.454 69.4831 178.261 69.4494 178.07 69.4711C177.878 69.4929 177.698 69.5691 177.549 69.6908C174.361 71.857 172.069 75.0999 171.098 78.8194L173.007 79.2127L174.011 70.5398C174.025 70.3249 173.968 70.1114 173.849 69.9315C173.73 69.7516 173.556 69.615 173.353 69.5425C170.362 68.505 167.868 70.8463 166.241 73.0613C165.398 74.2084 164.59 75.4582 163.337 76.2051C162.033 76.9133 160.54 77.2012 159.064 77.0293C156.017 76.8099 153.129 75.6633 150.144 75.0956C147.403 74.5874 144.608 74.4326 141.827 74.6351C136.324 75.0198 130.99 76.6957 126.262 79.5259C121.539 82.3602 117.215 86.4108 114.708 91.3563C113.277 94.1799 112.5 97.43 113.286 100.56C113.601 101.982 114.245 103.31 115.169 104.439C116.092 105.568 117.268 106.465 118.602 107.06C119.772 107.548 120.409 105.695 119.247 105.21C117.033 104.287 115.628 102.123 115.136 99.8437C114.574 97.2392 115.262 94.5443 116.461 92.2117C118.794 87.669 122.788 83.8913 127.142 81.2771C131.573 78.6182 136.562 77.0147 141.719 76.5918C144.241 76.3917 146.778 76.5018 149.274 76.9194C152.073 77.384 154.751 78.3819 157.557 78.8224C160.636 79.3059 163.831 78.8806 166.034 76.4945C167.655 74.7394 169.658 70.3341 172.708 71.3923L172.05 70.395L171.046 79.0679C170.92 80.1531 172.674 80.5455 172.955 79.4612C173.831 76.0666 175.929 73.1113 178.851 71.1577L177.22 70.3519C177.413 78.5854 177.587 87.6853 172.076 94.4321C169.712 97.3264 166.386 99.4439 162.605 99.7812C158.346 100.161 154.165 98.6258 149.9 98.9804C146.212 99.2871 142.245 101.063 140.996 104.791C140.595 105.988 142.453 106.629 142.854 105.433Z" fill="#2F2E41"/>
<path d="M159.65 134.693C159.645 134.786 159.638 134.881 159.629 134.975C159.551 135.772 159.316 136.545 158.936 137.251C158.556 137.957 158.04 138.58 157.416 139.086L150.483 144.741C149.226 145.763 147.614 146.247 146 146.087C144.386 145.927 142.901 145.136 141.872 143.888L124.463 122.716C123.437 121.465 122.951 119.86 123.112 118.252C123.273 116.645 124.067 115.166 125.321 114.141L132.254 108.486C132.876 107.979 133.592 107.599 134.361 107.367C135.13 107.136 135.937 107.057 136.736 107.137C137.536 107.216 138.312 107.451 139.02 107.829C139.728 108.207 140.355 108.721 140.863 109.34L158.273 130.511C159.242 131.683 159.734 133.176 159.65 134.693Z" fill="#2F2E41"/>
<path d="M137.554 124.059C138.754 124.059 139.727 123.091 139.727 121.896C139.727 120.701 138.754 119.732 137.554 119.732C136.355 119.732 135.382 120.701 135.382 121.896C135.382 123.091 136.355 124.059 137.554 124.059Z" fill="white"/>
<path d="M152.559 124.538L152.557 124.552C153.48 124.747 154.295 125.279 154.844 126.043C155.392 126.808 155.633 127.749 155.52 128.681L148.097 189.249C147.859 191.191 146.882 192.969 145.367 194.216C143.853 195.464 141.916 196.085 139.955 195.954C137.994 195.822 136.159 194.947 134.826 193.508C133.493 192.07 132.765 190.177 132.791 188.22C132.795 187.944 132.814 187.669 132.847 187.395L140.27 126.828C140.392 125.839 140.902 124.938 141.69 124.325C142.478 123.711 143.478 123.434 144.471 123.554L152.559 124.538Z" fill="#F59E0B"/>
<path d="M0.279277 36.6888C-1.63936 24.691 6.53144 13.4095 18.5293 11.4908L88.6385 0.279277C100.636 -1.63936 111.918 6.53144 113.836 18.5293L120.867 62.4941C122.121 70.3336 116.782 77.705 108.942 78.9587L106.877 79.289C100.178 80.3602 95.6161 86.659 96.6874 93.3578C96.7743 93.901 96.0955 94.2379 95.7033 93.8521C91.4162 89.636 86.7785 86.7957 81.2186 85.0481C78.6498 84.2407 75.9141 84.2404 73.2552 84.6656L31.3038 91.3743C19.306 93.2929 8.02451 85.1221 6.10587 73.1243L0.279277 36.6888Z" fill="#FFB231"/>
<path d="M18.2584 45.013L14.9004 37.9811L16.4345 37.6984L18.2054 41.6794C18.2493 41.7852 18.3014 41.9139 18.3619 42.0654C18.4224 42.217 18.5844 42.6549 18.8481 43.3791C18.8391 42.6242 18.8351 42.1612 18.8361 41.9902C18.8372 41.8192 18.8401 41.6804 18.8448 41.5738L19.1252 37.2025L20.6122 36.9285L22.442 40.8986C22.4938 41.003 22.5506 41.1349 22.6126 41.2943C22.673 41.4458 22.8336 41.8758 23.0943 42.5843C23.091 42.0806 23.0868 41.6828 23.0818 41.3908C23.0832 41.0896 23.0871 40.8896 23.0933 40.7908L23.3029 36.4327L24.7898 36.1586L24.159 43.9256L22.5423 44.2235L21.1324 41.2742C20.9943 40.9661 20.8518 40.6345 20.705 40.2792C20.5567 39.916 20.3883 39.4875 20.1996 38.9935C20.1998 39.392 20.1937 39.7999 20.1811 40.2171C20.1749 40.625 20.1616 41.0382 20.1411 41.4569L19.887 44.7129L18.2584 45.013Z" fill="#2F2F2F"/>
<path d="M30.8736 41.2117L31.078 42.321C30.9031 42.4753 30.6112 42.6348 30.2023 42.7997C29.7998 42.9552 29.3704 43.075 28.9141 43.1591C27.9857 43.3302 27.2735 43.2174 26.7774 42.8207C26.2891 42.4226 25.945 41.6807 25.7449 40.595C25.552 39.5486 25.6238 38.7463 25.9602 38.1881C26.2966 37.6299 26.9251 37.266 27.8456 37.0963C28.7346 36.9325 29.3981 37.0014 29.836 37.303C30.2739 37.6046 30.5755 38.2039 30.7408 39.1008C30.7713 39.266 30.7956 39.4202 30.8138 39.5632C30.8306 39.6984 30.8497 39.8901 30.871 40.1384L27.2126 40.8126C27.3104 41.2989 27.4797 41.6216 27.7205 41.7806C27.9691 41.9381 28.361 41.9676 28.896 41.869C29.25 41.8038 29.6108 41.7088 29.9783 41.5841C30.3457 41.4595 30.6442 41.3353 30.8736 41.2117ZM28.0652 38.2883C27.5853 38.3767 27.2683 38.5327 27.1143 38.7564C26.9682 38.9785 26.9408 39.3374 27.0321 39.8331L29.4986 39.3785L29.4529 39.1307C29.3711 38.7309 29.2299 38.4722 29.0292 38.3547C28.8271 38.2292 28.5058 38.2071 28.0652 38.2883Z" fill="#2F2F2F"/>
<path d="M38.2886 38.3321L36.6837 38.6279L36.4662 37.4478L39.3929 36.9084L40.0802 40.6376C39.8787 40.7805 39.5042 40.9553 38.9566 41.1619C38.4075 41.3607 37.9009 41.5029 37.4367 41.5885C36.1858 41.819 35.2628 41.6881 34.6677 41.1958C34.0805 40.7021 33.66 39.7668 33.4063 38.39C33.1641 37.0761 33.2698 36.0601 33.7231 35.3421C34.1844 34.6225 35.0326 34.149 36.2678 33.9213C36.732 33.8358 37.1472 33.7715 37.5134 33.7284C37.8861 33.676 38.1744 33.6513 38.3784 33.6544L38.6067 34.8935C38.3191 34.9221 37.989 34.9626 37.6163 35.015C37.2437 35.0675 36.8724 35.1277 36.5027 35.1959C35.6923 35.3452 35.1717 35.6323 34.9409 36.0572C34.7179 36.4806 34.6942 37.1683 34.8696 38.1203C34.9537 38.5766 35.0469 38.9499 35.1492 39.2401C35.2594 39.529 35.383 39.7584 35.5201 39.9283C35.6973 40.1397 35.9173 40.2741 36.1801 40.3314C36.4507 40.3873 36.8299 40.3703 37.3177 40.2804C37.4829 40.2499 37.6735 40.2026 37.8894 40.1384C38.1053 40.0742 38.3356 39.9992 38.5801 39.9135L38.2886 38.3321Z" fill="#2F2F2F"/>
<path d="M41.4175 33.8631L39.9659 34.1306L39.7463 32.9386L41.1978 32.6711L41.4175 33.8631ZM42.6087 40.5255L41.2397 40.7778L40.1654 34.948L41.5343 34.6957L42.6087 40.5255Z" fill="#2F2F2F"/>
<path d="M46.557 33.77L48.0558 33.4938L47.0059 39.7151L45.4364 40.0044L42.226 34.5682L43.7365 34.2898L45.9965 38.6077L46.557 33.77Z" fill="#2F2F2F"/>
<path d="M54.0151 36.947L54.2196 38.0563C54.0446 38.2105 53.7527 38.3701 53.3438 38.5349C52.9413 38.6904 52.5119 38.8103 52.0556 38.8943C51.1273 39.0654 50.415 38.9526 49.9189 38.556C49.4307 38.1579 49.0865 37.416 48.8864 36.3303C48.6936 35.2839 48.7654 34.4816 49.1018 33.9234C49.4382 33.3652 50.0666 33.0012 50.9871 32.8316C51.8762 32.6678 52.5396 32.7366 52.9776 33.0383C53.4155 33.3399 53.7171 33.9392 53.8824 34.8361C53.9128 35.0013 53.9372 35.1554 53.9554 35.2985C53.9722 35.4337 53.9912 35.6254 54.0126 35.8736L50.3542 36.5479C50.4519 37.0342 50.6212 37.3569 50.862 37.5158C51.1107 37.6734 51.5025 37.7029 52.0375 37.6043C52.3916 37.539 52.7523 37.4441 53.1198 37.3194C53.4873 37.1947 53.7857 37.0706 54.0151 36.947ZM51.2068 34.0235C50.7269 34.112 50.4099 34.268 50.2559 34.4916C50.1097 34.7138 50.0823 35.0727 50.1737 35.5683L52.6401 35.1138L52.5945 34.866C52.5126 34.4662 52.3714 34.2075 52.1708 34.0899C51.9687 33.9645 51.6474 33.9423 51.2068 34.0235Z" fill="#2F2F2F"/>
<path d="M60 37.4303C58.993 37.6159 58.2395 37.4781 57.7397 37.0171C57.2398 36.556 56.8667 35.6568 56.6202 34.3193C56.3621 32.9189 56.4419 31.8507 56.8594 31.1149C57.277 30.379 58.0719 29.9031 59.2441 29.687C59.4487 29.6493 59.6633 29.622 59.8879 29.605C60.1111 29.5801 60.2799 29.5694 60.3944 29.5727L60.6163 30.7764C60.4231 30.7876 60.2314 30.8067 60.0411 30.8336C59.8508 30.8605 59.6613 30.8914 59.4725 30.9262C58.8116 31.048 58.3657 31.2766 58.1346 31.612C57.91 31.9381 57.8329 32.4689 57.9034 33.2043C58.1862 32.9732 58.4666 32.7954 58.7447 32.671C59.0227 32.5465 59.3309 32.4531 59.6692 32.3908C60.3379 32.2675 60.8691 32.3689 61.2627 32.695C61.6549 33.0132 61.9234 33.5657 62.0684 34.3524C62.2192 35.1707 62.1132 35.8532 61.7503 36.4C61.3859 36.939 60.8025 37.2824 60 37.4303ZM60.7104 34.6637C60.6277 34.2153 60.4878 33.9197 60.2907 33.7771C60.1 33.6251 59.7923 33.5883 59.3674 33.6666C59.1471 33.7072 58.9169 33.7822 58.6767 33.8915C58.4366 34.0008 58.2315 34.124 58.0615 34.2611C58.2231 35.0936 58.418 35.6434 58.6461 35.9105C58.8729 36.1697 59.2301 36.2543 59.7179 36.1644C60.127 36.089 60.4143 35.9263 60.5797 35.6762C60.7451 35.426 60.7887 35.0886 60.7104 34.6637Z" fill="#2F2F2F"/>
<path d="M71.2781 27.5913L72.6417 34.9907L71.3082 35.2365L70.3621 30.1029L69.3531 34.0959L68.1848 34.3112L65.8283 30.9263L66.7765 36.0716L65.4429 36.3174L64.0793 28.918L65.8259 28.5961L68.4787 32.4634L69.5905 27.9023L71.2781 27.5913Z" fill="#2F2F2F"/>
<path d="M78.7992 30.8299C79.0022 31.9313 78.934 32.7533 78.5947 33.2957C78.2619 33.8289 77.588 34.189 76.573 34.376C75.5424 34.566 74.7773 34.4751 74.2776 34.1035C73.7766 33.7241 73.4231 32.9757 73.2172 31.8586C73.0157 30.765 73.0853 29.9509 73.426 29.4163C73.7653 28.8738 74.4424 28.509 75.4574 28.322C76.4801 28.1335 77.2421 28.229 77.7431 28.6085C78.2427 28.9801 78.5948 29.7205 78.7992 30.8299ZM74.584 31.5945C74.7174 32.3183 74.8956 32.7776 75.1186 32.9724C75.3416 33.1672 75.7481 33.2102 76.3382 33.1015C76.9125 32.9957 77.2691 32.812 77.408 32.5505C77.5533 32.2797 77.56 31.7863 77.4281 31.0703C77.2932 30.3387 77.1143 29.8754 76.8913 29.6806C76.6762 29.4843 76.2736 29.4406 75.6835 29.5493C75.1013 29.6566 74.7376 29.8457 74.5923 30.1165C74.4548 30.3859 74.452 30.8785 74.584 31.5945Z" fill="#2F2F2F"/>
<path d="M81.758 33.3107L80.3891 33.563L79.3147 27.7331L80.4948 27.5157L80.6626 28.0948L80.698 28.0883C80.9284 27.7937 81.1908 27.5623 81.4852 27.3942C81.786 27.2167 82.1528 27.0881 82.5855 27.0083C83.2306 26.8895 83.7521 26.9601 84.1498 27.2203C84.5476 27.4806 84.8044 27.9254 84.9204 28.5548L85.6642 32.5908L84.2953 32.8431L83.5841 28.9841C83.5319 28.7009 83.3984 28.5058 83.1834 28.399C82.9749 28.2829 82.6897 28.2582 82.3278 28.3248C82.0682 28.3727 81.823 28.4545 81.5921 28.5702C81.3598 28.6781 81.1498 28.8185 80.962 28.9914L81.758 33.3107Z" fill="#2F2F2F"/>
<path d="M90.2661 30.4249L90.4814 31.5932C90.3578 31.673 90.1777 31.755 89.9411 31.8392C89.7137 31.9299 89.5017 31.9934 89.3051 32.0297C88.5576 32.1674 87.9929 32.1047 87.6109 31.8416C87.2274 31.5706 86.9654 31.0535 86.8248 30.2904L86.3332 27.6233L85.5544 27.7668L85.3434 26.6221L86.1577 26.4721L86.0899 25.0447L87.2346 24.8337L87.4912 26.2263L89.3558 25.8827L89.5668 27.0274L87.7022 27.371L88.185 29.9909C88.2488 30.3371 88.367 30.5593 88.5397 30.6577C88.7124 30.756 88.9915 30.7696 89.377 30.6986C89.5107 30.6739 89.6667 30.6371 89.8447 30.588C90.0213 30.531 90.1618 30.4767 90.2661 30.4249Z" fill="#2F2F2F"/>
<path d="M92.6604 31.3015L91.2914 31.5538L89.8451 23.7059L91.2141 23.4537L91.6665 25.9083C91.9635 25.6665 92.2686 25.4679 92.5816 25.3126C92.8947 25.1573 93.2046 25.0514 93.5115 24.9948C94.1645 24.8745 94.682 24.9459 95.064 25.209C95.4524 25.4628 95.7054 25.9083 95.8228 26.5456L96.5666 30.5816L95.1976 30.8339L94.4865 26.9749C94.4314 26.6759 94.3089 26.4748 94.119 26.3715C93.9356 26.2589 93.6668 26.2352 93.3128 26.3004C93.0689 26.3454 92.8183 26.42 92.5609 26.5244C92.3036 26.6288 92.0656 26.7499 91.847 26.8878L92.6604 31.3015Z" fill="#2F2F2F"/>
<path d="M99.119 25.1816C98.702 25.2585 98.4228 25.3546 98.2814 25.4702C98.1464 25.5764 98.1043 25.7672 98.1551 26.0426C98.1797 26.1763 98.23 26.2728 98.306 26.332C98.3806 26.3833 98.4947 26.407 98.6486 26.4031L100.139 26.348C100.615 26.3254 100.964 26.4115 101.187 26.6063C101.418 26.7997 101.579 27.1442 101.671 27.6398C101.803 28.3558 101.733 28.9055 101.462 29.289C101.191 29.6724 100.658 29.9374 99.8638 30.0838C99.4075 30.1679 98.9869 30.2251 98.602 30.2553C98.2171 30.2856 97.8876 30.2853 97.6134 30.2545L97.3894 29.0389C97.6449 29.0569 97.954 29.0569 98.3168 29.0389C98.6781 29.013 99.0397 28.9667 99.4016 28.9C99.8107 28.8246 100.077 28.7227 100.199 28.5943C100.33 28.4645 100.369 28.258 100.317 27.9747C100.291 27.8331 100.236 27.7334 100.152 27.6757C100.067 27.61 99.9394 27.5807 99.7698 27.5875L98.2555 27.6469C97.8441 27.6658 97.5215 27.5707 97.2878 27.3616C97.0525 27.1446 96.8914 26.8001 96.8044 26.3281C96.687 25.6908 96.7928 25.1832 97.1217 24.8054C97.4585 24.426 98.0243 24.1631 98.8189 24.0167C99.1415 23.9573 99.4379 23.9108 99.7083 23.8772C99.9787 23.8436 100.26 23.8244 100.552 23.8194L100.767 24.9877C100.557 24.9939 100.305 25.016 100.011 25.0539C99.723 25.0825 99.4258 25.1251 99.119 25.1816Z" fill="#2F2F2F"/>
<path d="M20.0178 58.9245L16.6598 51.8927L18.1939 51.6099L19.9648 55.5909C20.0087 55.6967 20.0609 55.8254 20.1213 55.9769C20.1818 56.1285 20.3438 56.5664 20.6075 57.2906C20.5985 56.5357 20.5945 56.0728 20.5956 55.9017C20.5966 55.7307 20.5995 55.5919 20.6042 55.4853L20.8846 51.1141L22.3716 50.84L24.2014 54.8101C24.2532 54.9145 24.31 55.0464 24.372 55.2058C24.4324 55.3573 24.593 55.7874 24.8537 56.4958C24.8504 55.9921 24.8462 55.5943 24.8412 55.3023C24.8427 55.0011 24.8465 54.8011 24.8527 54.7023L25.0623 50.3442L26.5492 50.0701L25.9185 57.8371L24.3017 58.135L22.8918 55.1857C22.7537 54.8776 22.6112 54.546 22.4644 54.1907C22.3161 53.8276 22.1477 53.399 21.959 52.905C21.9592 53.3036 21.9531 53.7114 21.9405 54.1286C21.9343 54.5365 21.921 54.9498 21.9005 55.3684L21.6464 58.6244L20.0178 58.9245Z" fill="#2F2F2F"/>
<path d="M29.6822 57.2533C29.0842 57.3635 28.6168 57.2991 28.28 57.0602C27.9495 56.812 27.7263 56.3732 27.6103 55.7438C27.4914 55.0987 27.5725 54.6119 27.8537 54.2835C28.1427 53.9537 28.6963 53.7133 29.5145 53.5626C29.7427 53.5205 29.9769 53.4895 30.2173 53.4696C30.4577 53.4497 30.668 53.4435 30.8484 53.451L30.757 52.9553C30.7005 52.6485 30.5647 52.4416 30.3498 52.3348C30.1349 52.228 29.8229 52.2123 29.4138 52.2877C29.044 52.3558 28.7157 52.4285 28.429 52.5058C28.1501 52.5816 27.8859 52.6709 27.6365 52.7739L27.4255 51.6291C27.7114 51.5032 28.0246 51.3927 28.3649 51.2974C28.7117 51.1928 29.1251 51.0963 29.605 51.0078C30.3209 50.8759 30.8864 50.9425 31.3013 51.2077C31.7148 51.465 31.9817 51.9202 32.102 52.5732L32.8371 56.562L31.5744 56.7948L31.4197 56.2864L31.3961 56.2907C31.1791 56.5259 30.9163 56.733 30.6076 56.9119C30.3054 57.0815 29.9969 57.1953 29.6822 57.2533ZM29.8602 54.5116C29.4354 54.5899 29.1537 54.6947 29.0152 54.826C28.8753 54.9494 28.8306 55.1488 28.8814 55.4241C28.9307 55.6916 29.0292 55.8728 29.1768 55.9676C29.3308 56.0531 29.5652 56.0668 29.8799 56.0088C30.1081 55.9668 30.3422 55.8911 30.5824 55.7818C30.829 55.6631 31.0372 55.5352 31.2072 55.3982L31.0223 54.3951C30.8277 54.3984 30.6346 54.4096 30.4428 54.4286C30.259 54.4463 30.0648 54.4739 29.8602 54.5116Z" fill="#2F2F2F"/>
<path d="M35.471 56.0766L34.1021 56.3289L33.0277 50.4991L34.2904 50.2664L34.4364 50.7276L34.4719 50.721C34.7311 50.4943 35.0014 50.3062 35.283 50.1567C35.5646 50.0072 35.847 49.9063 36.1302 49.8541C36.2089 49.8396 36.26 49.8302 36.2836 49.8259C36.3151 49.8201 36.3394 49.8196 36.3566 49.8246L36.6002 51.1464C36.5501 51.1393 36.4857 51.143 36.407 51.1575C36.3348 51.1627 36.2081 51.182 36.0272 51.2153C35.7518 51.2661 35.5005 51.3368 35.2732 51.4275C35.0458 51.5182 34.8457 51.6242 34.6729 51.7456L35.471 56.0766Z" fill="#2F2F2F"/>
<path d="M39.643 55.3078L38.274 55.5601L37.1996 49.7303L38.4624 49.4975L38.6084 49.9587L38.6438 49.9522C38.903 49.7255 39.1734 49.5373 39.4549 49.3878C39.7365 49.2383 40.0189 49.1375 40.3021 49.0853C40.3808 49.0708 40.4319 49.0614 40.4556 49.057C40.487 49.0512 40.5113 49.0508 40.5285 49.0558L40.7721 50.3775C40.722 50.3705 40.6576 50.3742 40.5789 50.3887C40.5067 50.3939 40.3801 50.4131 40.1991 50.4465C39.9238 50.4972 39.6724 50.568 39.4451 50.6587C39.2178 50.7494 39.0177 50.8554 38.8448 50.9767L39.643 55.3078Z" fill="#2F2F2F"/>
<path d="M43.6501 54.6791C43.0522 54.7893 42.5847 54.725 42.2479 54.4861C41.9174 54.2379 41.6942 53.7991 41.5782 53.1697C41.4593 52.5245 41.5404 52.0378 41.8216 51.7094C42.1106 51.3795 42.6642 51.1392 43.4824 50.9884C43.7106 50.9464 43.9448 50.9154 44.1852 50.8955C44.4256 50.8756 44.6359 50.8694 44.8163 50.8768L44.7249 50.3812C44.6684 50.0743 44.5326 49.8675 44.3177 49.7607C44.1028 49.6539 43.7908 49.6382 43.3817 49.7136C43.0119 49.7817 42.6837 49.8544 42.3969 49.9317C42.118 50.0075 41.8538 50.0968 41.6044 50.1997L41.3934 49.055C41.6793 48.9291 41.9925 48.8185 42.3328 48.7233C42.6796 48.6187 43.093 48.5222 43.5729 48.4337C44.2888 48.3018 44.8543 48.3684 45.2692 48.6336C45.6827 48.8909 45.9496 49.3461 46.07 49.9991L46.805 53.9879L45.5423 54.2206L45.3876 53.7122L45.364 53.7166C45.1471 53.9518 44.8842 54.1589 44.5755 54.3378C44.2733 54.5074 43.9648 54.6212 43.6501 54.6791ZM43.8281 51.9375C43.4033 52.0158 43.1216 52.1206 42.9831 52.2518C42.8432 52.3752 42.7986 52.5746 42.8493 52.85C42.8986 53.1175 42.9971 53.2986 43.1447 53.3935C43.2987 53.4789 43.5331 53.4927 43.8478 53.4347C44.076 53.3927 44.3101 53.317 44.5503 53.2076C44.7969 53.089 45.0051 52.9611 45.1751 52.824L44.9903 51.8209C44.7956 51.8243 44.6025 51.8354 44.4108 51.8545C44.2269 51.8721 44.0327 51.8998 43.8281 51.9375Z" fill="#2F2F2F"/>
<path d="M49.4389 53.5025L48.07 53.7548L46.9956 47.925L48.1758 47.7075L48.3435 48.2867L48.3789 48.2801C48.6093 47.9855 48.8717 47.7541 49.1661 47.586C49.4669 47.4085 49.8337 47.2799 50.2664 47.2002C50.9116 47.0813 51.433 47.1519 51.8308 47.4122C52.2285 47.6724 52.4854 48.1172 52.6014 48.7466L53.3452 52.7826L51.9762 53.0349L51.265 49.1759C51.2128 48.8927 51.0793 48.6976 50.8644 48.5908C50.6559 48.4747 50.3707 48.45 50.0088 48.5167C49.7491 48.5645 49.5039 48.6463 49.2731 48.7621C49.0408 48.87 48.8307 49.0103 48.643 49.1832L49.4389 53.5025Z" fill="#2F2F2F"/>
<path d="M57.9471 50.6167L58.1624 51.7851C58.0388 51.8648 57.8586 51.9468 57.622 52.0311C57.3947 52.1218 57.1827 52.1852 56.986 52.2215C56.2386 52.3592 55.6739 52.2965 55.2918 52.0334C54.9084 51.7624 54.6463 51.2454 54.5057 50.4822L54.0142 47.8151L53.2353 47.9587L53.0243 46.8139L53.8386 46.6639L53.7708 45.2365L54.9155 45.0256L55.1722 46.4181L57.0368 46.0745L57.2477 47.2192L55.3831 47.5628L55.8659 50.1827C55.9297 50.5289 56.048 50.7511 56.2206 50.8495C56.3933 50.9478 56.6724 50.9614 57.0579 50.8904C57.1917 50.8658 57.3476 50.8289 57.5256 50.7798C57.7022 50.7229 57.8427 50.6685 57.9471 50.6167Z" fill="#2F2F2F"/>
<path d="M59.7659 52.3437C60.057 52.29 60.2632 52.1951 60.3845 52.0589C60.5073 51.9305 60.5886 51.6877 60.6286 51.3306L57.2843 46.0289L58.8185 45.7461L61.0769 49.8569L61.6508 45.2242L63.1259 44.9523L62.0177 51.4528C61.9076 52.0913 61.7145 52.5662 61.4383 52.8774C61.17 53.1872 60.7762 53.3899 60.257 53.4856C60.0996 53.5146 59.9369 53.5364 59.7688 53.5512C59.6007 53.5659 59.4515 53.573 59.3213 53.5726L59.1103 52.4279C59.1761 52.432 59.2523 52.4261 59.3389 52.4102C59.4269 52.4021 59.5692 52.3799 59.7659 52.3437Z" fill="#2F2F2F"/>
<path d="M71.4195 46.4256C71.6225 47.5271 71.5544 48.349 71.2151 48.8915C70.8822 49.4247 70.2083 49.7848 69.1934 49.9718C68.1627 50.1617 67.3976 50.0709 66.898 49.6993C66.3969 49.3198 66.0434 48.5715 65.8375 47.4543C65.636 46.3607 65.7056 45.5466 66.0464 45.012C66.3857 44.4695 67.0628 44.1048 68.0777 43.9177C69.1005 43.7292 69.8624 43.8247 70.3635 44.2042C70.8631 44.5758 71.2151 45.3163 71.4195 46.4256ZM67.2043 47.1902C67.3377 47.914 67.5159 48.3733 67.7389 48.5682C67.9619 48.763 68.3684 48.806 68.9585 48.6973C69.5328 48.5914 69.8894 48.4077 70.0284 48.1462C70.1737 47.8754 70.1804 47.382 70.0484 46.6661C69.9136 45.9344 69.7347 45.4712 69.5117 45.2763C69.2965 45.0801 68.8939 45.0363 68.3039 45.1451C67.7217 45.2524 67.3579 45.4414 67.2126 45.7122C67.0751 45.9816 67.0724 46.4743 67.2043 47.1902Z" fill="#2F2F2F"/>
<path d="M74.3784 48.9064L73.0094 49.1587L71.935 43.3289L73.1152 43.1114L73.2829 43.6906L73.3183 43.6841C73.5487 43.3894 73.8111 43.158 74.1055 42.9899C74.4064 42.8124 74.7731 42.6838 75.2058 42.6041C75.851 42.4852 76.3724 42.5559 76.7702 42.8161C77.1679 43.0763 77.4248 43.5211 77.5408 44.1505L78.2846 48.1866L76.9156 48.4388L76.2045 44.5798C76.1523 44.2966 76.0187 44.1016 75.8038 43.9948C75.5953 43.8786 75.3101 43.8539 74.9482 43.9206C74.6885 43.9684 74.4433 44.0502 74.2125 44.166C73.9802 44.2739 73.7701 44.4143 73.5824 44.5872L74.3784 48.9064Z" fill="#2F2F2F"/>
<path d="M85.5837 43.7055L84.779 39.339L86.1952 39.078L86.9999 43.4445C87.1956 44.5066 87.0896 45.3437 86.6817 45.9557C86.2725 46.5599 85.5486 46.9577 84.5101 47.1491C83.4479 47.3448 82.6273 47.2398 82.0482 46.8341C81.4691 46.4283 81.078 45.6747 80.875 44.5732L80.0703 40.2068L81.4865 39.9458L82.2912 44.3123C82.4188 45.0046 82.6245 45.4588 82.9084 45.675C83.1908 45.8832 83.6428 45.9301 84.2643 45.8155C84.8937 45.6996 85.3025 45.49 85.4907 45.1869C85.6788 44.8837 85.7099 44.3899 85.5837 43.7055Z" fill="#2F2F2F"/>
<path d="M90.1604 41.0683C89.7435 41.1452 89.4643 41.2414 89.3229 41.3569C89.1879 41.4631 89.1458 41.6539 89.1965 41.9293C89.2212 42.063 89.2715 42.1595 89.3475 42.2187C89.422 42.2701 89.5362 42.2938 89.69 42.2898L91.1807 42.2347C91.6565 42.2121 92.0059 42.2982 92.2289 42.493C92.4598 42.6864 92.6209 43.0309 92.7122 43.5266C92.8442 44.2425 92.7746 44.7922 92.5036 45.1757C92.2327 45.5591 91.6999 45.8241 90.9052 45.9705C90.4489 46.0546 90.0283 46.1118 89.6434 46.1421C89.2585 46.1723 88.929 46.172 88.6549 46.1412L88.4309 44.9257C88.6864 44.9437 88.9955 44.9436 89.3582 44.9256C89.7195 44.8997 90.0811 44.8534 90.443 44.7867C90.8521 44.7113 91.1181 44.6094 91.2408 44.481C91.3715 44.3512 91.4107 44.1447 91.3585 43.8615C91.3324 43.7198 91.2774 43.6201 91.1936 43.5624C91.1083 43.4968 90.9808 43.4674 90.8113 43.4742L89.297 43.5337C88.8856 43.5525 88.563 43.4574 88.3292 43.2483C88.094 43.0314 87.9329 42.6868 87.8459 42.2148C87.7285 41.5775 87.8342 41.07 88.1632 40.6921C88.5 40.3127 89.0657 40.0499 89.8603 39.9034C90.1829 39.844 90.4794 39.7975 90.7498 39.7639C91.0202 39.7304 91.3013 39.7111 91.5933 39.7061L91.8086 40.8744C91.5982 40.8806 91.3461 40.9027 91.0521 40.9406C90.7645 40.9692 90.4673 41.0118 90.1604 41.0683Z" fill="#2F2F2F"/>
<path d="M98.3928 43.0044L98.5973 44.1137C98.4223 44.268 98.1304 44.4275 97.7215 44.5923C97.319 44.7479 96.8896 44.8677 96.4333 44.9518C95.5049 45.1229 94.7927 45.0101 94.2966 44.6134C93.8084 44.2153 93.4642 43.4734 93.2641 42.3877C93.0713 41.3413 93.1431 40.539 93.4795 39.9808C93.8159 39.4226 94.4443 39.0586 95.3648 38.889C96.2538 38.7252 96.9173 38.7941 97.3552 39.0957C97.7932 39.3973 98.0948 39.9966 98.26 40.8935C98.2905 41.0587 98.3148 41.2128 98.3331 41.3559C98.3498 41.4911 98.3689 41.6828 98.3903 41.9311L94.7318 42.6053C94.8296 43.0916 94.9989 43.4143 95.2397 43.5733C95.4884 43.7308 95.8802 43.7603 96.4152 43.6617C96.7692 43.5964 97.13 43.5015 97.4975 43.3768C97.865 43.2521 98.1634 43.128 98.3928 43.0044ZM95.5845 40.0809C95.1046 40.1694 94.7876 40.3254 94.6336 40.549C94.4874 40.7712 94.46 41.1301 94.5513 41.6258L97.0178 41.1712L96.9721 40.9234C96.8903 40.5236 96.7491 40.2649 96.5485 40.1473C96.3464 40.0219 96.0251 39.9997 95.5845 40.0809Z" fill="#2F2F2F"/>
<path d="M102.226 35.6601L103.594 35.4078L105.041 43.2557L103.837 43.4775L103.654 42.9499L103.595 42.9608C103.416 43.2216 103.183 43.4354 102.896 43.6021C102.616 43.7595 102.279 43.8744 101.886 43.9469C101.107 44.0905 100.505 43.9574 100.079 43.5477C99.6621 43.1365 99.354 42.392 99.1554 41.3142C98.9597 40.2521 99.0229 39.4473 99.345 38.8998C99.6735 38.3431 100.314 37.977 101.266 37.8015C101.517 37.7551 101.757 37.7313 101.985 37.73C102.219 37.7195 102.428 37.7297 102.613 37.7607L102.226 35.6601ZM101.681 38.9941C101.075 39.1057 100.696 39.3016 100.544 39.5817C100.401 39.8604 100.394 40.3538 100.524 41.0619C100.65 41.7464 100.819 42.1953 101.029 42.4088C101.247 42.6208 101.619 42.6782 102.147 42.5811C102.398 42.5347 102.63 42.4676 102.842 42.3798C103.052 42.2841 103.238 42.1684 103.4 42.0328L102.839 38.9881C102.661 38.9477 102.478 38.9285 102.291 38.9304C102.105 38.9322 101.901 38.9535 101.681 38.9941Z" fill="#2F2F2F"/>
<path d="M51.3849 69.2344L50.0159 69.4866L48.611 61.863L49.8029 61.6434L49.9834 62.1592L50.0424 62.1483C50.2235 61.8953 50.4574 61.6854 50.7439 61.5188C51.0304 61.3521 51.3665 61.2332 51.752 61.1621C52.5387 61.0172 53.1408 61.1502 53.5582 61.5614C53.9821 61.9632 54.2933 62.7031 54.492 63.7809C54.6891 64.8509 54.6235 65.6643 54.2949 66.221C53.965 66.7699 53.324 67.1321 52.372 67.3075C52.1045 67.3568 51.857 67.3821 51.6295 67.3834C51.4034 67.3925 51.2058 67.3801 51.0369 67.3462L51.3849 69.2344ZM53.123 64.0332C52.9969 63.3487 52.8201 62.8973 52.5928 62.6789C52.3718 62.4511 52.0057 62.3844 51.4943 62.4786C51.2504 62.5236 51.0234 62.5939 50.8132 62.6896C50.6031 62.7852 50.4131 62.9016 50.2431 63.0387L50.8042 66.0834C50.9574 66.1203 51.1274 66.1377 51.3141 66.1359C51.5088 66.1325 51.7241 66.1091 51.9601 66.0656C52.5659 65.954 52.9415 65.7628 53.0868 65.4919C53.2385 65.2118 53.2506 64.7256 53.123 64.0332Z" fill="#2F2F2F"/>
<path d="M57.4585 66.3701C56.8606 66.4803 56.3932 66.416 56.0563 66.1771C55.7259 65.9289 55.5026 65.4901 55.3867 64.8607C55.2678 64.2155 55.3489 63.7288 55.63 63.4004C55.919 63.0705 56.4726 62.8302 57.2909 62.6794C57.519 62.6374 57.7533 62.6064 57.9937 62.5865C58.234 62.5666 58.4444 62.5604 58.6247 62.5678L58.5334 62.0722C58.4768 61.7653 58.3411 61.5585 58.1262 61.4517C57.9113 61.3449 57.5993 61.3292 57.1901 61.4046C56.8204 61.4727 56.4921 61.5454 56.2054 61.6227C55.9265 61.6984 55.6623 61.7878 55.4128 61.8907L55.2019 60.746C55.4878 60.6201 55.8009 60.5095 56.1413 60.4142C56.4881 60.3097 56.9014 60.2132 57.3814 60.1247C58.0973 59.9928 58.6627 60.0594 59.0777 60.3246C59.4912 60.5819 59.7581 61.0371 59.8784 61.6901L60.6135 65.6789L59.3508 65.9116L59.1961 65.4032L59.1725 65.4076C58.9555 65.6428 58.6927 65.8499 58.384 66.0288C58.0817 66.1984 57.7732 66.3122 57.4585 66.3701ZM57.6366 63.6285C57.2118 63.7068 56.9301 63.8116 56.7916 63.9428C56.6516 64.0662 56.607 64.2656 56.6578 64.541C56.7071 64.8085 56.8055 64.9896 56.9532 65.0844C57.1072 65.1699 57.3416 65.1837 57.6563 65.1257C57.8844 65.0837 58.1186 65.008 58.3588 64.8986C58.6053 64.78 58.8136 64.6521 58.9836 64.515L58.7987 63.5119C58.6041 63.5153 58.4109 63.5264 58.2192 63.5455C58.0354 63.5631 57.8412 63.5908 57.6366 63.6285Z" fill="#2F2F2F"/>
<path d="M63.2474 65.1935L61.8785 65.4458L60.8041 59.616L62.0668 59.3833L62.2128 59.8444L62.2482 59.8379C62.5074 59.6112 62.7778 59.4231 63.0594 59.2735C63.3409 59.124 63.6233 59.0232 63.9066 58.971C63.9852 58.9565 64.0364 58.9471 64.06 58.9427C64.0915 58.9369 64.1158 58.9365 64.133 58.9415L64.3766 60.2632C64.3265 60.2562 64.2621 60.2599 64.1834 60.2744C64.1111 60.2796 63.9845 60.2989 63.8036 60.3322C63.5282 60.3829 63.2769 60.4537 63.0495 60.5444C62.8222 60.6351 62.6221 60.7411 62.4492 60.8624L63.2474 65.1935Z" fill="#2F2F2F"/>
<path d="M69.4621 62.7304L69.6774 63.8987C69.5538 63.9784 69.3737 64.0604 69.1371 64.1447C68.9097 64.2354 68.6977 64.2989 68.501 64.3351C67.7536 64.4729 67.1889 64.4102 66.8069 64.1471C66.4234 63.8761 66.1614 63.359 66.0207 62.5959L65.5292 59.9288L64.7503 60.0723L64.5394 58.9276L65.3537 58.7775L65.2859 57.3502L66.4306 57.1392L66.6872 58.5318L68.5518 58.1881L68.7628 59.3329L66.8982 59.6765L67.381 62.2964C67.4448 62.6425 67.563 62.8648 67.7357 62.9631C67.9084 63.0615 68.1875 63.0751 68.573 63.0041C68.7067 62.9794 68.8626 62.9425 69.0407 62.8935C69.2173 62.8365 69.3578 62.7821 69.4621 62.7304Z" fill="#2F2F2F"/>
<path d="M71.7805 58.6913C71.3635 58.7682 71.0843 58.8644 70.9429 58.9799C70.8079 59.0861 70.7658 59.2769 70.8165 59.5523C70.8412 59.686 70.8915 59.7825 70.9675 59.8417C71.042 59.893 71.1562 59.9167 71.3101 59.9128L72.8008 59.8577C73.2765 59.8351 73.6259 59.9212 73.8489 60.116C74.0798 60.3094 74.2409 60.6539 74.3323 61.1495C74.4642 61.8655 74.3947 62.4152 74.1237 62.7987C73.8527 63.1821 73.3199 63.4471 72.5253 63.5935C72.069 63.6776 71.6483 63.7348 71.2635 63.765C70.8786 63.7953 70.5491 63.795 70.2749 63.7642L70.0509 62.5487C70.3064 62.5666 70.6155 62.5666 70.9783 62.5486C71.3396 62.5227 71.7012 62.4764 72.0631 62.4097C72.4722 62.3343 72.7381 62.2324 72.8609 62.104C72.9915 61.9742 73.0307 61.7677 72.9785 61.4844C72.9524 61.3428 72.8975 61.2431 72.8136 61.1854C72.7283 61.1197 72.6008 61.0904 72.4313 61.0972L70.917 61.1566C70.5056 61.1755 70.183 61.0804 69.9492 60.8713C69.714 60.6543 69.5529 60.3098 69.4659 59.8378C69.3485 59.2005 69.4542 58.6929 69.7832 58.3151C70.12 57.9357 70.6858 57.6729 71.4804 57.5264C71.8029 57.467 72.0994 57.4205 72.3698 57.3869C72.6402 57.3533 72.9214 57.3341 73.2133 57.3291L73.4286 58.4974C73.2183 58.5036 72.9661 58.5257 72.6721 58.5636C72.3845 58.5922 72.0873 58.6348 71.7805 58.6913Z" fill="#2F2F2F"/>
<path d="M76.1409 55.1667L77.6987 54.8796L78.4786 60.1048L77.2749 60.3266L76.1409 55.1667ZM78.7566 61.0175L78.9915 62.292L77.5754 62.553L77.3405 61.2785L78.7566 61.0175Z" fill="#2F2F2F"/>
</svg>
