<svg width="46" height="46" viewBox="0 0 46 46" fill="none" xmlns="http://www.w3.org/2000/svg">
<circle cx="23" cy="23" r="23" fill="#143F6B"/>
<path d="M23 13C28.523 13 33 17.477 33 23C33 28.523 28.523 33 23 33C17.477 33 13 28.523 13 23C13 17.477 17.477 13 23 13ZM23 15C20.8783 15 18.8434 15.8429 17.3431 17.3431C15.8429 18.8434 15 20.8783 15 23C15 25.1217 15.8429 27.1566 17.3431 28.6569C18.8434 30.1571 20.8783 31 23 31C25.1217 31 27.1566 30.1571 28.6569 28.6569C30.1571 27.1566 31 25.1217 31 23C31 20.8783 30.1571 18.8434 28.6569 17.3431C27.1566 15.8429 25.1217 15 23 15ZM23 17C23.2449 17 23.4813 17.09 23.6644 17.2527C23.8474 17.4155 23.9643 17.6397 23.993 17.883L24 18V22.586L26.707 25.293C26.8863 25.473 26.9905 25.7144 26.9982 25.9684C27.006 26.2223 26.9168 26.4697 26.7488 26.6603C26.5807 26.8508 26.3464 26.9703 26.0935 26.9944C25.8406 27.0185 25.588 26.9454 25.387 26.79L25.293 26.707L22.293 23.707C22.1376 23.5514 22.0378 23.349 22.009 23.131L22 23V18C22 17.7348 22.1054 17.4804 22.2929 17.2929C22.4804 17.1054 22.7348 17 23 17Z" fill="#FFFBF5"/>
</svg>
