<svg width="245" height="103" viewBox="0 0 245 103" fill="none" xmlns="http://www.w3.org/2000/svg">
<g clip-path="url(#clip0_332_1151)">
<path d="M60.3564 44.5567V25.461C60.3564 23.557 58.8075 22.0081 56.9035 22.0081H44.4114C42.5074 22.0081 40.9584 23.557 40.9584 25.461V44.5567C40.9584 46.4607 42.5074 48.0096 44.4114 48.0096H56.9035C58.8075 48.0096 60.3564 46.4607 60.3564 44.5567Z" fill="#F59E0B"/>
<path d="M53.9591 30.2625H47.3555V28.6116H53.9591V30.2625Z" fill="#3F3D56"/>
<path d="M52.3086 27.3735H49.0068V22.0081H52.3086V27.3735Z" fill="#3F3D56"/>
<path d="M52.3086 48.0098H49.0068V42.6444H52.3086V48.0098Z" fill="#3F3D56"/>
<path d="M69.2306 45.3287H88.3264C90.2304 45.3287 91.7793 43.7798 91.7793 41.8757V29.3836C91.7793 27.4796 90.2304 25.9307 88.3264 25.9307H69.2306C67.3266 25.9307 65.7777 27.4796 65.7777 29.3836V41.8757C65.7777 43.7798 67.3266 45.3287 69.2306 45.3287Z" fill="#F59E0B"/>
<path d="M75.0644 28.6133H81.668V30.2642H75.0644V28.6133Z" fill="#3F3D56"/>
<path d="M86.4141 37.2806V33.9788H91.7795V37.2806H86.4141Z" fill="#3F3D56"/>
<path d="M65.7773 37.2805V33.9788H71.1428V37.2805H65.7773Z" fill="#3F3D56"/>
<path d="M224.131 81.0369L227.319 62.4412C228.736 54.1781 222.62 46.5317 214.247 46.0981L168.802 43.7443L157.956 25.8683C156.518 23.4985 153.947 22.0513 151.175 22.0513H118.521C115.954 22.0513 113.785 23.9547 113.452 26.4998L112.623 40.8033L31.213 41.0471L20.9718 74.7975L30.4778 74.334L29.9903 84.5712L42.4212 85.0587L46.565 73.3415C47.3453 71.1352 50.7645 68.6474 54.3185 66.566C62.2858 61.9 72.5217 63.3976 78.551 70.3902C79.9734 72.0398 80.9677 73.7585 81.2456 75.3701L83.1262 86.2774L174.286 84.815L186.233 68.1025C189.763 64.2613 206.426 62.8503 207.926 68.1025L216.941 81.4026L224.131 81.0369Z" fill="#E6E6E6"/>
<path d="M125.05 32.9286L122.368 45.5724L156.492 46.3036L149.285 30.8296C148.631 29.4258 147.196 28.5543 145.649 28.6216L129.297 29.3325C127.227 29.4225 125.48 30.9017 125.05 32.9286Z" fill="white"/>
<path d="M161.123 45.3285L154.298 27.779L156.085 25.9922L167.217 42.891L164.955 46.3034L161.123 45.3285Z" fill="white"/>
<path d="M63.3827 102.364C54.4981 102.364 47.2957 95.1618 47.2957 86.2772C47.2957 77.3926 54.4981 70.1902 63.3827 70.1902C72.2673 70.1902 79.4697 77.3926 79.4697 86.2772C79.4697 95.1618 72.2673 102.364 63.3827 102.364Z" fill="#3F3D56"/>
<path d="M74.4736 86.2773C74.4736 80.1621 69.4986 75.187 63.3834 75.187C57.2681 75.187 52.2931 80.1621 52.2931 86.2773C52.2931 92.3925 57.2681 97.3676 63.3834 97.3676C69.4986 97.3676 74.4736 92.3925 74.4736 86.2773ZM74.2299 86.2773C74.2299 92.258 69.3642 97.1238 63.3834 97.1238C57.4025 97.1238 52.5368 92.258 52.5368 86.2773C52.5368 80.2966 57.4025 75.4308 63.3834 75.4308C69.3642 75.4308 74.2299 80.2966 74.2299 86.2773Z" fill="white"/>
<path d="M72.8887 86.2772C72.8887 91.5272 68.6327 95.7832 63.3827 95.7832C58.1327 95.7832 53.8768 91.5272 53.8768 86.2772C53.8768 81.0272 58.1327 76.7712 63.3827 76.7712C68.6327 76.7712 72.8887 81.0272 72.8887 86.2772ZM57.2035 84.0009L58.8878 85.0986L59.5349 84.1057L57.2035 84.0009ZM59.7676 89.5837L59.3191 88.4867L57.9068 90.3445L59.7676 89.5837ZM64.0804 93.3457L62.8952 91.3353V93.3457H64.0804ZM64.0804 81.7065L62.8952 79.6962V81.7065H64.0804ZM69.3461 90.3445L67.9338 88.4867L67.4853 89.5837L69.3461 90.3445ZM70.0494 84.0009L67.718 84.1057L68.3651 85.0986L70.0494 84.0009Z" fill="#E6E6E6"/>
<path d="M198.416 102.364C189.531 102.364 182.329 95.1618 182.329 86.2772C182.329 77.3926 189.531 70.1902 198.416 70.1902C207.301 70.1902 214.503 77.3926 214.503 86.2772C214.503 95.1618 207.301 102.364 198.416 102.364Z" fill="#3F3D56"/>
<path d="M209.507 86.2773C209.507 80.1621 204.532 75.187 198.417 75.187C192.301 75.187 187.326 80.1621 187.326 86.2773C187.326 92.3925 192.301 97.3676 198.417 97.3676C204.532 97.3676 209.507 92.3925 209.507 86.2773ZM209.263 86.2773C209.263 92.258 204.397 97.1238 198.417 97.1238C192.436 97.1238 187.57 92.258 187.57 86.2773C187.57 80.2966 192.436 75.4308 198.417 75.4308C204.397 75.4308 209.263 80.2966 209.263 86.2773Z" fill="white"/>
<path d="M207.922 86.2772C207.922 91.5272 203.666 95.7832 198.416 95.7832C193.166 95.7832 188.91 91.5272 188.91 86.2772C188.91 81.0272 193.166 76.7712 198.416 76.7712C203.666 76.7712 207.922 81.0272 207.922 86.2772ZM192.237 84.0009L193.921 85.0986L194.568 84.1057L192.237 84.0009ZM194.801 89.5837L194.352 88.4867L192.94 90.3445L194.801 89.5837ZM199.114 93.3457L197.928 91.3353V93.3457H199.114ZM199.114 81.7065L197.928 79.6962V81.7065H199.114ZM204.379 90.3445L202.967 88.4867L202.518 89.5837L204.379 90.3445ZM205.083 84.0009L202.751 84.1057L203.398 85.0986L205.083 84.0009Z" fill="#E6E6E6"/>
<path d="M131.265 52.0315H122.003V50.0816H131.265V52.0315Z" fill="#3F3D56"/>
<path d="M0.714816 90.3099C0.801147 90.0457 1.45546 90.1621 1.51829 89.9258C1.58089 89.6903 0.95302 89.4929 0.471476 88.8294C0.38463 88.7098 -0.162605 87.9557 0.0472765 87.6386C0.445104 87.0375 3.21306 88.5346 3.87746 87.6945C4.02328 87.5101 4.08326 87.1936 4.51764 86.6045C4.69045 86.3701 4.80131 86.257 4.93377 86.2603C5.12173 86.2651 5.18898 86.5002 5.4844 86.9261C5.92743 87.5649 6.0873 87.4847 6.37915 88.0081C6.59581 88.3966 6.62148 88.6449 6.77772 88.6595C6.9988 88.6802 7.09016 88.1965 7.36031 88.1777C7.63599 88.1586 7.91184 88.6366 8.04859 89.01C8.30521 89.7108 8.1463 90.2464 8.11107 90.7802C8.07279 91.3604 8.16269 92.2096 8.79301 93.2995L14.7383 102.772C13.4615 100.841 9.83711 95.5751 8.37686 93.6437C7.95531 93.0861 7.50231 92.5262 6.80506 92.4209C6.13377 92.3195 5.31699 92.6516 4.17693 92.6322C4.04379 92.63 3.67324 92.619 3.58311 92.4226C3.50858 92.2602 3.69361 92.119 3.62631 91.9664C3.53603 91.7617 3.12985 91.8495 2.57631 91.7136C2.18599 91.6177 1.92083 91.4593 1.69279 91.3231C1.62404 91.282 0.599887 90.6616 0.714816 90.3099Z" fill="#F2F2F2"/>
<path d="M16.2866 92.5214C16.4412 92.4876 16.5729 92.8423 16.707 92.8049C16.8406 92.7677 16.7563 92.4026 16.943 91.9748C16.9767 91.8977 17.1889 91.4115 17.4051 91.4231C17.8149 91.4449 17.8787 93.2354 18.4828 93.319C18.6154 93.3374 18.788 93.2755 19.2025 93.3188C19.3674 93.336 19.4549 93.3577 19.4915 93.4237C19.5434 93.5173 19.4474 93.6182 19.3236 93.8861C19.1379 94.2878 19.2234 94.3431 19.0507 94.6374C18.9225 94.8558 18.8081 94.9401 18.846 95.021C18.8996 95.1354 19.1634 95.0407 19.2505 95.1679C19.3395 95.2977 19.1845 95.571 19.0406 95.7458C18.7707 96.074 18.462 96.1505 18.1898 96.2873C17.8941 96.4359 17.5032 96.725 17.1501 97.3489L14.2164 103C14.7958 101.816 16.3345 98.5179 16.8611 97.2439C17.0132 96.8761 17.1573 96.4922 17.0078 96.1196C16.8639 95.7609 16.4652 95.4558 16.1457 94.8907C16.1084 94.8247 16.0069 94.6397 16.0773 94.5388C16.1355 94.4554 16.2582 94.5054 16.3136 94.4284C16.3881 94.325 16.2278 94.151 16.1348 93.8401C16.0692 93.6208 16.0705 93.445 16.0715 93.2937C16.0718 93.2482 16.0808 92.5665 16.2866 92.5214Z" fill="#F2F2F2"/>
<path d="M13.3594 93.9002L13.2672 93.0489L13.2106 92.9954C12.9489 92.7481 12.7852 92.4861 12.7238 92.2164C12.7141 92.1736 12.7065 92.1302 12.6988 92.086C12.6681 91.911 12.6301 91.6934 12.4618 91.4674C12.3676 91.3414 12.1185 91.0568 11.8615 91.1562C11.7922 91.1822 11.7454 91.2272 11.7128 91.2749C11.7047 91.2666 11.6963 91.2584 11.6874 91.2494C11.5764 91.1415 11.4987 91.102 11.4239 91.064C11.3665 91.0347 11.3071 91.0046 11.2067 90.9242C11.1626 90.889 11.1273 90.8573 11.0976 90.8307C11.0074 90.7502 10.8921 90.6559 10.7341 90.6932C10.5667 90.739 10.5092 90.8987 10.4712 91.0045C10.4031 91.1931 10.3822 91.3228 10.3683 91.4089C10.3633 91.4403 10.3575 91.4757 10.3531 91.4872C10.3165 91.5796 9.85638 91.6035 9.68326 91.6135C9.2941 91.6346 8.95736 91.6528 8.87638 91.9193C8.81827 92.1099 8.93939 92.3178 9.24671 92.5537C9.34244 92.6271 9.43815 92.6777 9.52153 92.7155C9.47025 92.764 9.42939 92.83 9.42689 92.9198C9.42125 93.1324 9.63931 93.2955 10.075 93.4055C10.1832 93.4332 10.3288 93.4697 10.5194 93.4605C10.6091 93.4561 10.6878 93.4423 10.7548 93.4295C10.7648 93.4677 10.7831 93.5074 10.8161 93.545C10.9131 93.656 11.0697 93.6843 11.2822 93.6217C11.5169 93.5563 11.7023 93.4674 11.8659 93.3892C12.0088 93.3211 12.132 93.2629 12.2354 93.247C12.4277 93.2201 12.607 93.3388 12.8216 93.4969L13.3594 93.9002Z" fill="#F2F2F2"/>
<path d="M11.8248 89.051L12.6717 89.1778L12.7378 89.1366C13.0433 88.9462 13.3383 88.8544 13.6147 88.8634C13.6586 88.8648 13.7025 88.8685 13.7472 88.8722C13.9243 88.887 14.1444 88.9054 14.4057 88.7999C14.5514 88.7408 14.8899 88.5719 14.8589 88.2982C14.8514 88.2245 14.8198 88.1678 14.7819 88.1243C14.792 88.1185 14.8021 88.1125 14.813 88.1061C14.9455 88.0261 15.0034 87.961 15.0592 87.8983C15.1021 87.8501 15.1463 87.8004 15.2495 87.7236C15.2947 87.6899 15.3343 87.6638 15.3676 87.6418C15.4684 87.575 15.5888 87.4874 15.5928 87.3251C15.591 87.1515 15.451 87.0554 15.3584 86.9918C15.1932 86.8781 15.073 86.8249 14.9933 86.7897C14.9642 86.7769 14.9314 86.7623 14.9214 86.7552C14.8413 86.6963 14.9349 86.2452 14.9692 86.0752C15.0475 85.6934 15.1152 85.363 14.878 85.2171C14.7083 85.1126 14.4765 85.177 14.1704 85.4144C14.0752 85.4884 14.0019 85.5681 13.9441 85.6392C13.9103 85.5773 13.8568 85.521 13.7706 85.4958C13.5664 85.4365 13.3533 85.606 13.1364 85.9995C13.0822 86.0972 13.0099 86.2288 12.9705 86.4155C12.952 86.5034 12.9453 86.5829 12.9408 86.651C12.9013 86.651 12.8582 86.6587 12.8134 86.6811C12.6815 86.7467 12.6144 86.891 12.621 87.1125C12.6248 87.3561 12.6638 87.558 12.6979 87.736C12.7275 87.8915 12.7525 88.0255 12.7417 88.1295C12.7189 88.3224 12.5586 88.4657 12.3513 88.6332L11.8248 89.051Z" fill="#F2F2F2"/>
<path d="M11.7109 86.5079L11.6187 85.6565L11.5622 85.603C11.3005 85.3558 11.1368 85.0938 11.0754 84.8241C11.0656 84.7812 11.0581 84.7379 11.0503 84.6937C11.0197 84.5187 10.9817 84.3011 10.8134 84.075C10.7192 83.9491 10.4701 83.6645 10.2131 83.7639C10.1437 83.7899 10.0969 83.8349 10.0644 83.8825C10.0562 83.8743 10.0479 83.866 10.0389 83.8571C9.92793 83.7492 9.85028 83.7097 9.77549 83.6716C9.71801 83.6423 9.65866 83.6122 9.55823 83.5319C9.51416 83.4967 9.47888 83.465 9.44915 83.4383C9.35898 83.3578 9.24367 83.2636 9.08569 83.3009C8.91823 83.3467 8.86081 83.5064 8.82271 83.6122C8.75469 83.8008 8.73373 83.9305 8.71987 84.0165C8.71488 84.048 8.70909 84.0834 8.70471 84.0949C8.66806 84.1872 8.20794 84.2111 8.03482 84.2211C7.64567 84.2422 7.30893 84.2605 7.22794 84.527C7.16984 84.7176 7.29095 84.9255 7.59827 85.1614C7.694 85.2347 7.78971 85.2854 7.87309 85.3232C7.82181 85.3717 7.78095 85.4377 7.77845 85.5275C7.77282 85.7401 7.99087 85.9032 8.42653 86.0132C8.53479 86.0408 8.6804 86.0774 8.87096 86.0682C8.9607 86.0637 9.03932 86.05 9.10634 86.0371C9.11633 86.0753 9.13466 86.115 9.16769 86.1527C9.26466 86.2637 9.42124 86.2919 9.6338 86.2294C9.86846 86.164 10.0539 86.075 10.2175 85.9969C10.3604 85.9288 10.4836 85.8706 10.587 85.8547C10.7793 85.8278 10.9586 85.9465 11.1732 86.1045L11.7109 86.5079Z" fill="#F2F2F2"/>
<path d="M14.4573 102.82L14.6071 102.672L14.8152 102.65C14.8142 102.631 14.8156 102.585 14.8171 102.514C14.8251 102.122 14.8499 100.93 14.684 99.0986C14.5681 97.8201 14.3744 96.5223 14.1083 95.2407C13.8418 93.9571 13.5652 93.0021 13.3431 92.2344C13.1754 91.6554 13.0062 91.1063 12.841 90.5714C12.4002 89.1422 11.9839 87.7923 11.7261 86.2524C11.6684 85.9087 11.5486 85.1931 11.7939 84.3486C11.9362 83.8588 12.1799 83.3977 12.5184 82.9787L12.1907 82.7141C11.8172 83.1772 11.5478 83.6878 11.3897 84.2316C11.1178 85.168 11.2483 85.9477 11.311 86.3223C11.5734 87.8893 11.9938 89.2523 12.439 90.6952C12.6033 91.2281 12.772 91.7749 12.9389 92.3515C13.1591 93.112 13.4332 94.0588 13.6962 95.3259C13.9593 96.5922 14.1505 97.8741 14.2651 99.1364C14.4288 100.945 14.4042 102.119 14.3962 102.505C14.392 102.711 14.3911 102.754 14.4573 102.82Z" fill="#F2F2F2"/>
<path d="M13.4167 83.4631C13.4335 83.4594 13.4505 83.4552 13.4675 83.4501C13.813 83.3533 14.0901 83.0717 14.2915 82.6133C14.3857 82.3978 14.408 82.171 14.4523 81.7186C14.4593 81.6488 14.49 81.2959 14.4522 80.8282C14.4276 80.5225 14.3948 80.3997 14.3116 80.3034C14.2192 80.196 14.0948 80.1345 13.9633 80.1036C13.9597 80.0631 13.9465 80.0236 13.9202 79.986C13.812 79.8304 13.6309 79.8944 13.5327 79.9276C13.4832 79.9454 13.4215 79.968 13.3521 79.9797C13.2431 79.9986 13.1779 79.9794 13.0794 79.9509C12.9851 79.9235 12.8678 79.8894 12.7057 79.8923C12.3859 79.8967 12.1491 80.0405 12.071 80.0878C11.6599 80.3348 11.5179 80.729 11.3536 81.1854C11.321 81.2769 11.2126 81.6075 11.1874 82.0333C11.1692 82.3405 11.2095 82.4663 11.2556 82.5562C11.3499 82.741 11.4943 82.8267 11.8525 83.007C12.2269 83.1959 12.4147 83.2904 12.5687 83.339C12.927 83.4515 13.152 83.5222 13.4167 83.4631Z" fill="#F2F2F2"/>
<path d="M244.894 102.455C244.894 102.615 244.668 102.745 244.387 102.745H2.65056C2.36974 102.745 2.1442 102.615 2.1442 102.455C2.1442 102.294 2.36974 102.165 2.65056 102.165H244.387C244.668 102.165 244.894 102.294 244.894 102.455Z" fill="#CCCCCC"/>
<path d="M122.062 100.623L118.678 100.623L117.068 87.5691L122.062 87.5694L122.062 100.623Z" fill="#FFB6B6"/>
<path d="M110.467 100.547C110.361 100.724 110.306 101.297 110.306 101.503C110.306 102.138 110.82 102.652 111.455 102.652L121.935 102.652C122.368 102.652 122.719 102.301 122.719 101.868V101.432C122.719 101.432 123.237 100.12 122.17 98.504C122.17 98.504 120.843 99.7697 118.861 97.7873L118.276 96.7283L114.045 99.8231L111.699 100.112C111.186 100.175 110.731 100.102 110.467 100.547Z" fill="#2F2E41"/>
<path d="M137.267 100.623L133.883 100.623L132.273 87.5691L137.268 87.5694L137.267 100.623Z" fill="#FFB6B6"/>
<path d="M125.672 100.547C125.567 100.724 125.511 101.297 125.511 101.503C125.511 102.138 126.025 102.652 126.66 102.652L137.14 102.652C137.573 102.652 137.924 102.301 137.924 101.868V101.432C137.924 101.432 138.442 100.12 137.375 98.504C137.375 98.504 136.048 99.7697 134.066 97.7873L133.481 96.7283L129.25 99.8231L126.904 100.112C126.391 100.175 125.936 100.102 125.672 100.547Z" fill="#2F2E41"/>
<path d="M122.597 11.4888L121.955 17.4853L129.45 16.8428L128.165 11.2747L122.597 11.4888Z" fill="#FFB6B6"/>
<path opacity="0.1" d="M122.597 11.4888L121.955 17.4853L129.45 16.8428L128.165 11.2747L122.597 11.4888Z" fill="black"/>
<path d="M125.275 12.2383C122.554 12.2383 120.349 10.033 120.349 7.31262C120.349 4.59225 122.554 2.38696 125.275 2.38696C127.995 2.38696 130.2 4.59225 130.2 7.31262C130.2 10.033 127.995 12.2383 125.275 12.2383Z" fill="#FFB6B6"/>
<path d="M122.062 15.0223L113.817 19.8409L116.518 32.9046L114.674 50.4656L115.959 93.5116L123.882 92.6549L124.953 56.0338L131.164 93.9399H138.858L137.589 53.0355L133.734 35.6887L136.09 16.8427L128.915 14.594L122.062 15.0223Z" fill="#2F2E41"/>
<path d="M121.741 8.70463C121.741 8.70463 121.313 7.20552 120.349 7.3126C119.386 7.41968 119.171 6.56304 119.386 6.13472C119.6 5.70641 120.028 3.56482 120.028 3.56482C120.028 3.56482 119.814 2.0657 121.099 1.85154C122.384 1.63739 122.812 1.42323 123.026 0.994909C123.24 0.56659 126.453 0.138274 127.524 0.78075C128.594 1.42323 129.451 2.6559 130.201 3.00328C130.95 3.35066 131.593 3.99313 131.164 5.06393C130.736 6.13472 130.115 8.22897 130.115 8.22897C130.115 8.22897 129.023 7.84799 128.809 8.49047C128.594 9.13295 129.451 8.27631 128.38 6.56304C127.309 4.84977 127.309 3.1365 125.596 3.77898C123.883 4.42145 121.955 4.2073 122.17 5.49225C122.384 6.7772 121.741 8.70463 121.741 8.70463Z" fill="#2F2E41"/>
<path d="M118.068 46.6239C119.099 47.7153 119.372 49.1319 118.677 49.7878C117.982 50.4437 116.584 50.0905 115.553 48.9986C115.135 48.568 114.826 48.0436 114.652 47.4693L110.343 42.7896L112.582 40.8142L116.593 45.6373C117.156 45.8436 117.662 46.1819 118.068 46.6239Z" fill="#FFB6B6"/>
<path d="M113.904 19.7339L106.647 32.0973L105.572 37.7414L112.56 46.6108L115.517 42.8481L112.023 37.7414L117.667 27.797L113.904 19.7339Z" fill="#2F2E41"/>
<path d="M134.307 45.4728V30.8957C134.307 28.6739 132.499 26.8665 130.277 26.8665H107.995C105.773 26.8665 103.965 28.6739 103.965 30.8957V45.4728C103.965 47.6946 105.773 49.502 107.995 49.502H130.277C132.499 49.502 134.307 47.6946 134.307 45.4728Z" fill="#F59E0B"/>
<path d="M123.47 36.0669H115.765V34.1405H123.47V36.0669Z" fill="#3F3D56"/>
<path d="M116.396 49.3729V45.52H122.657V49.3729H116.396Z" fill="#3F3D56"/>
<path d="M116.103 30.8485V26.9956H122.363V30.8485H116.103Z" fill="#3F3D56"/>
<path d="M132.052 43.8397C131.021 44.9311 130.749 46.3477 131.444 47.0037C132.138 47.6596 133.537 47.3064 134.568 46.2144C134.986 45.7838 135.294 45.2595 135.468 44.6852L139.777 40.0054L137.538 38.03L133.528 42.8531C132.964 43.0594 132.458 43.3977 132.052 43.8397Z" fill="#FFB6B6"/>
<path d="M136.217 16.9497L143.474 29.3131L144.549 34.9573L137.561 43.8267L134.604 40.0639L138.098 34.9573L132.454 25.0128L136.217 16.9497Z" fill="#2F2E41"/>
<path d="M226.45 75.9022C222.816 75.9022 219.869 73.3377 219.869 70.1742C219.869 67.0108 222.816 64.4463 226.45 64.4463C230.085 64.4463 233.031 67.0108 233.031 70.1742C233.031 73.3377 230.085 75.9022 226.45 75.9022Z" fill="#E6E6E6"/>
</g>
<defs>
<clipPath id="clip0_332_1151">
<rect width="244.893" height="102.547" fill="white" transform="matrix(-1 0 0 1 244.894 0.453125)"/>
</clipPath>
</defs>
</svg>
