<svg width="46" height="45" viewBox="0 0 46 45" fill="none" xmlns="http://www.w3.org/2000/svg">
<path d="M8 39.375C6.4375 39.375 5.10938 38.8281 4.01562 37.7344C2.92188 36.6406 2.375 35.3125 2.375 33.75C2.375 32.5312 2.72687 31.4375 3.43062 30.4688C4.13437 29.5 5.0325 28.8281 6.125 28.4531V16.5469C5.03125 16.1719 4.13312 15.5 3.43062 14.5312C2.72812 13.5625 2.37625 12.4688 2.375 11.25C2.375 9.6875 2.92188 8.35938 4.01562 7.26562C5.10938 6.17188 6.4375 5.625 8 5.625C9.5625 5.625 10.8906 6.17188 11.9844 7.26562C13.0781 8.35938 13.625 9.6875 13.625 11.25C13.625 12.4688 13.2738 13.5625 12.5712 14.5312C11.8688 15.5 10.97 16.1719 9.875 16.5469V20.625H21.125V16.5469C20.0312 16.1719 19.1331 15.5 18.4306 14.5312C17.7281 13.5625 17.3763 12.4688 17.375 11.25C17.375 9.6875 17.9219 8.35938 19.0156 7.26562C20.1094 6.17188 21.4375 5.625 23 5.625C24.5625 5.625 25.8906 6.17188 26.9844 7.26562C28.0781 8.35938 28.625 9.6875 28.625 11.25C28.625 12.4688 28.2738 13.5625 27.5712 14.5312C26.8687 15.5 25.97 16.1719 24.875 16.5469V20.625H34.25C34.7812 20.625 35.2269 20.4456 35.5869 20.0869C35.9469 19.7281 36.1263 19.2825 36.125 18.75V16.5469C35.0312 16.1719 34.1331 15.5 33.4306 14.5312C32.7281 13.5625 32.3762 12.4688 32.375 11.25C32.375 9.6875 32.9219 8.35938 34.0156 7.26562C35.1094 6.17188 36.4375 5.625 38 5.625C39.5625 5.625 40.8906 6.17188 41.9844 7.26562C43.0781 8.35938 43.625 9.6875 43.625 11.25C43.625 12.4688 43.2738 13.5625 42.5713 14.5312C41.8687 15.5 40.97 16.1719 39.875 16.5469V18.75C39.875 20.3125 39.3281 21.6406 38.2344 22.7344C37.1406 23.8281 35.8125 24.375 34.25 24.375H24.875V28.4531C25.9688 28.8281 26.8675 29.5 27.5712 30.4688C28.275 31.4375 28.6262 32.5312 28.625 33.75C28.625 35.3125 28.0781 36.6406 26.9844 37.7344C25.8906 38.8281 24.5625 39.375 23 39.375C21.4375 39.375 20.1094 38.8281 19.0156 37.7344C17.9219 36.6406 17.375 35.3125 17.375 33.75C17.375 32.5312 17.7269 31.4375 18.4306 30.4688C19.1344 29.5 20.0325 28.8281 21.125 28.4531V24.375H9.875V28.4531C10.9688 28.8281 11.8675 29.5 12.5712 30.4688C13.275 31.4375 13.6263 32.5312 13.625 33.75C13.625 35.3125 13.0781 36.6406 11.9844 37.7344C10.8906 38.8281 9.5625 39.375 8 39.375Z" fill="#FEB139"/>
</svg>
