<svg width="43" height="42" viewBox="0 0 43 42" fill="none" xmlns="http://www.w3.org/2000/svg">
<path fill-rule="evenodd" clip-rule="evenodd" d="M21.5 36.75C23.5683 36.75 25.6164 36.3426 27.5273 35.5511C29.4381 34.7596 31.1744 33.5995 32.6369 32.1369C34.0995 30.6744 35.2596 28.9381 36.0511 27.0273C36.8426 25.1164 37.25 23.0683 37.25 21C37.25 18.9317 36.8426 16.8836 36.0511 14.9727C35.2596 13.0619 34.0995 11.3256 32.6369 9.86307C31.1744 8.40055 29.4381 7.24041 27.5273 6.4489C25.6164 5.65739 23.5683 5.25 21.5 5.25C17.3228 5.25 13.3168 6.90937 10.3631 9.86307C7.40937 12.8168 5.75 16.8228 5.75 21C5.75 25.1772 7.40937 29.1832 10.3631 32.1369C13.3168 35.0906 17.3228 36.75 21.5 36.75ZM21.094 27.37L29.844 16.87L27.156 14.63L19.631 23.6583L15.7372 19.7628L13.2628 22.2372L18.5128 27.4872L19.8673 28.8418L21.094 27.37Z" fill="#FEB139"/>
</svg>
