<svg width="45" height="45" viewBox="0 0 45 45" fill="none" xmlns="http://www.w3.org/2000/svg">
<path d="M22.5 23.9062V37.9688C22.5 38.7147 22.2037 39.43 21.6762 39.9575C21.1488 40.4849 20.4334 40.7812 19.6875 40.7812C18.9416 40.7812 18.2262 40.4849 17.6988 39.9575C17.1713 39.43 16.875 38.7147 16.875 37.9688M22.5 23.9062L21.6483 23.2673C20.3235 22.2738 18.6848 21.7915 17.0331 21.9089C15.3813 22.0263 13.8273 22.7354 12.6562 23.9062C12.1022 23.3522 11.4445 22.9127 10.7207 22.6129C9.99683 22.313 9.221 22.1587 8.4375 22.1587C7.654 22.1587 6.87817 22.313 6.15431 22.6129C5.43046 22.9127 4.77275 23.3522 4.21875 23.9062C4.21875 13.8094 12.4031 5.625 22.5 5.625M22.5 23.9062L23.3517 23.2673C24.6765 22.2738 26.3152 21.7915 27.9669 21.9089C29.6187 22.0263 31.1727 22.7354 32.3438 23.9062C32.8978 23.3522 33.5555 22.9127 34.2793 22.6129C35.0032 22.313 35.779 22.1587 36.5625 22.1587C37.346 22.1587 38.1218 22.313 38.8457 22.6129C39.5695 22.9127 40.2272 23.3522 40.7812 23.9062C40.7812 13.8094 32.5969 5.625 22.5 5.625M22.5 5.625V4.21875" stroke="black" stroke-width="2" stroke-linecap="round" stroke-linejoin="round"/>
</svg>
