<svg width="46" height="45" viewBox="0 0 46 45" fill="none" xmlns="http://www.w3.org/2000/svg">
<path d="M23 23.9062V37.9688C23 38.7147 22.7037 39.43 22.1762 39.9575C21.6488 40.4849 20.9334 40.7812 20.1875 40.7812C19.4416 40.7812 18.7262 40.4849 18.1988 39.9575C17.6713 39.43 17.375 38.7147 17.375 37.9688M23 23.9062L22.1483 23.2673C20.8235 22.2738 19.1848 21.7915 17.5331 21.9089C15.8813 22.0263 14.3273 22.7354 13.1562 23.9062C12.6022 23.3522 11.9445 22.9127 11.2207 22.6129C10.4968 22.313 9.721 22.1587 8.9375 22.1587C8.154 22.1587 7.37817 22.313 6.65431 22.6129C5.93046 22.9127 5.27275 23.3522 4.71875 23.9062C4.71875 13.8094 12.9031 5.625 23 5.625M23 23.9062L23.8517 23.2673C25.1765 22.2738 26.8152 21.7915 28.4669 21.9089C30.1187 22.0263 31.6727 22.7354 32.8438 23.9062C33.3978 23.3522 34.0555 22.9127 34.7793 22.6129C35.5032 22.313 36.279 22.1587 37.0625 22.1587C37.846 22.1587 38.6218 22.313 39.3457 22.6129C40.0695 22.9127 40.7272 23.3522 41.2812 23.9062C41.2812 13.8094 33.0969 5.625 23 5.625M23 5.625V4.21875" stroke="#FEB139" stroke-width="2" stroke-linecap="round" stroke-linejoin="round"/>
</svg>
