<svg width="404" height="318" viewBox="0 0 404 318" fill="none" xmlns="http://www.w3.org/2000/svg">
<path d="M96.9905 172.415C93.7662 155.171 98.8425 135.552 112.952 125.114C112.152 144.175 118.125 162.904 129.814 177.987C134.343 183.788 139.984 189.768 139.809 197.123C139.7 201.7 137.223 205.964 133.959 209.176C130.695 212.388 126.674 214.704 122.701 216.983L122.083 217.945C110.437 204.818 100.215 189.659 96.9905 172.415Z" fill="#F0F0F0"/>
<path d="M113.209 125.378C107.281 138.635 105.684 153.422 108.645 167.638C109.228 170.709 110.292 173.67 111.797 176.41C113.35 179.033 115.578 181.192 118.248 182.663C120.71 184.084 123.394 185.254 125.467 187.249C126.513 188.286 127.329 189.532 127.859 190.906C128.389 192.28 128.623 193.75 128.545 195.221C128.446 198.89 127.033 202.304 125.536 205.595C123.873 209.249 122.088 213.019 122.196 217.127C122.209 217.625 121.435 217.616 121.422 217.119C121.234 209.971 126.406 204.231 127.558 197.372C128.096 194.172 127.671 190.79 125.42 188.309C123.451 186.14 120.685 184.932 118.179 183.514C115.553 182.117 113.309 180.099 111.644 177.635C110.004 174.98 108.827 172.065 108.166 169.016C106.566 162.174 106.053 155.124 106.645 148.123C107.277 140.129 109.272 132.302 112.545 124.981C112.748 124.528 113.41 124.928 113.209 125.378Z" fill="white"/>
<path d="M107.422 163.116C104.968 163.289 102.532 162.584 100.55 161.128C98.5676 159.671 97.168 157.558 96.6008 155.166C96.4878 154.682 97.2358 154.483 97.349 154.968C97.873 157.197 99.177 159.165 101.026 160.518C102.874 161.87 105.146 162.517 107.43 162.343C107.927 162.306 107.916 163.079 107.422 163.116Z" fill="white"/>
<path d="M116.905 182.106C120.236 178.341 122.026 173.46 121.916 168.435C121.904 167.938 122.678 167.946 122.689 168.444C122.794 173.672 120.922 178.748 117.446 182.659C117.115 183.031 116.575 182.477 116.905 182.106Z" fill="white"/>
<path d="M108.183 140.609C109.147 140.74 110.128 140.63 111.038 140.288C111.949 139.947 112.76 139.385 113.399 138.653C113.726 138.276 114.265 138.831 113.94 139.205C113.23 140.011 112.334 140.63 111.329 141.01C110.324 141.39 109.241 141.517 108.175 141.382C108.074 141.378 107.978 141.335 107.907 141.263C107.835 141.19 107.795 141.093 107.792 140.992C107.794 140.889 107.836 140.792 107.909 140.72C107.982 140.649 108.081 140.609 108.183 140.609Z" fill="white"/>
<path d="M170.651 139.378C170.454 139.619 170.256 139.86 170.061 140.107C167.425 143.359 165.059 146.82 162.984 150.455C162.819 150.734 162.656 151.018 162.5 151.301C157.595 160.112 154.37 169.757 152.989 179.744C152.443 183.719 152.2 187.73 152.263 191.741C152.35 197.282 152.886 203.282 151.187 208.377C151.015 208.911 150.811 209.433 150.575 209.941L123.304 218.624C123.232 218.613 123.162 218.608 123.09 218.596L122.017 218.993C121.999 218.786 121.985 218.571 121.968 218.365C121.957 218.245 121.952 218.123 121.941 218.003C121.936 217.923 121.931 217.842 121.922 217.77C121.92 217.743 121.918 217.716 121.919 217.695C121.909 217.623 121.908 217.555 121.901 217.489C121.82 216.289 121.745 215.087 121.682 213.881C121.681 213.874 121.681 213.874 121.685 213.866C121.217 204.681 121.512 195.375 123.211 186.41C123.262 186.141 123.311 185.865 123.375 185.591C124.163 181.554 125.28 177.589 126.715 173.734C127.508 171.626 128.406 169.559 129.408 167.542C132.006 162.334 135.408 157.567 139.488 153.416C147.624 145.141 158.317 139.559 169.775 139.383C170.069 139.379 170.356 139.376 170.651 139.378Z" fill="#F0F0F0"/>
<path d="M170.7 139.743C157.979 146.762 147.796 157.608 141.595 170.739C140.209 173.543 139.275 176.547 138.826 179.641C138.486 182.669 138.964 185.733 140.209 188.514C141.319 191.13 142.757 193.678 143.21 196.519C143.421 197.976 143.321 199.462 142.917 200.878C142.512 202.294 141.813 203.609 140.865 204.736C138.575 207.605 135.39 209.482 132.211 211.208C128.682 213.126 124.986 215.061 122.597 218.407C122.307 218.812 121.695 218.339 121.984 217.935C126.141 212.115 133.728 210.642 138.78 205.86C141.138 203.628 142.837 200.672 142.534 197.337C142.268 194.42 140.788 191.792 139.642 189.152C138.387 186.457 137.811 183.495 137.965 180.526C138.255 177.419 139.072 174.385 140.381 171.552C143.226 165.127 147.065 159.189 151.755 153.955C157.076 147.952 163.385 142.904 170.409 139.027C170.844 138.787 171.132 139.505 170.7 139.743Z" fill="white"/>
<path d="M143.342 166.394C141.279 165.055 139.758 163.027 139.053 160.671C138.348 158.316 138.503 155.787 139.492 153.535C139.694 153.081 140.41 153.372 140.208 153.828C139.284 155.922 139.139 158.278 139.801 160.47C140.462 162.662 141.885 164.546 143.814 165.781C144.233 166.05 143.759 166.661 143.342 166.394Z" fill="white"/>
<path d="M139.472 187.261C144.401 186.26 148.77 183.439 151.71 179.361C152.001 178.956 152.613 179.429 152.323 179.833C149.256 184.071 144.702 186.997 139.572 188.028C139.082 188.126 138.986 187.359 139.472 187.261Z" fill="white"/>
<path d="M157.51 148.881C158.201 149.565 159.051 150.068 159.983 150.343C160.916 150.618 161.902 150.657 162.854 150.457C163.341 150.353 163.438 151.12 162.953 151.223C161.901 151.44 160.812 151.395 159.78 151.093C158.749 150.792 157.808 150.243 157.038 149.494C156.96 149.429 156.909 149.337 156.896 149.236C156.883 149.136 156.908 149.034 156.968 148.951C157.031 148.871 157.123 148.818 157.225 148.805C157.326 148.792 157.429 148.819 157.51 148.881Z" fill="white"/>
<path d="M213.487 45.08C213.579 45.4813 213.638 45.8892 213.665 46.2999L245.639 64.7325L253.411 60.2616L261.696 71.1003L248.708 80.3512C247.658 81.0985 246.395 81.4856 245.106 81.4542C243.818 81.4229 242.575 80.9748 241.563 80.1773L208.593 54.185C207.105 54.7354 205.484 54.8201 203.947 54.4277C202.41 54.0354 201.028 53.1847 199.987 51.9887C198.945 50.7928 198.293 49.3083 198.116 47.7326C197.939 46.157 198.247 44.5649 198.997 43.1682C199.748 41.7715 200.907 40.6362 202.319 39.9136C203.731 39.1909 205.33 38.9149 206.903 39.1225C208.476 39.33 209.949 40.0112 211.125 41.0754C212.301 42.1396 213.125 43.5364 213.487 45.08Z" fill="#FFB6B6"/>
<path d="M246.083 62.6973C246.185 62.2271 246.386 61.7844 246.675 61.3992C246.963 61.014 247.331 60.6956 247.754 60.4655L262.516 52.4282C264.481 50.9456 266.955 50.3025 269.395 50.64C271.834 50.9775 274.041 52.268 275.529 54.2286C277.018 56.1891 277.668 58.6596 277.337 61.0984C277.005 63.5371 275.72 65.7449 273.762 67.2378L261.93 79.2483C261.593 79.5911 261.185 79.8571 260.735 80.0282C260.285 80.1993 259.804 80.2716 259.324 80.24C258.843 80.2084 258.376 80.0738 257.952 79.8453C257.529 79.6167 257.159 79.2997 256.869 78.9157L246.683 65.4196C246.393 65.0356 246.189 64.5937 246.086 64.1239C245.982 63.6541 245.981 63.1675 246.083 62.6973Z" fill="#3F3D56"/>
<path d="M272.456 15.9714C274.58 9.20735 279.41 3.0036 286.089 0.716985C292.769 -1.56963 302.55 1.91363 307.572 6.91494C316.758 16.0633 319 47.4914 312.689 57.423C311.434 57.3566 307.102 57.3075 305.831 57.2599L304.034 51.2739V57.2009C294.117 56.8947 283.793 57.0864 273.463 57.2847C272.537 50.2531 270.332 22.7354 272.456 15.9714Z" fill="#2F2E41"/>
<path d="M269.614 299.891H260.569L256.266 265.027L269.616 265.028L269.614 299.891Z" fill="#FFB6B6"/>
<path d="M348.794 294.27L340.041 296.55L327.077 263.898L339.995 260.535L348.794 294.27Z" fill="#FFB6B6"/>
<path d="M298.948 85.7655L300.998 91.0903L300.588 96.415L260.477 110.298L262.468 86.9943L266.976 81.6689L298.948 85.7655Z" fill="#FFB6B6"/>
<path d="M286.266 37.8472C294.178 37.8472 300.592 31.4378 300.592 23.5315C300.592 15.6251 294.178 9.21577 286.266 9.21577C278.354 9.21577 271.94 15.6251 271.94 23.5315C271.94 31.4378 278.354 37.8472 286.266 37.8472Z" fill="#FFB7B7"/>
<path d="M276.422 4.8899C279.175 3.21299 282.328 2.30588 285.552 2.26342C288.775 2.22095 291.951 3.04468 294.747 4.6485C297.543 6.25231 299.856 8.5773 301.445 11.3803C303.034 14.1834 303.84 17.3616 303.779 20.5825C295.97 22.577 287.648 23.4112 278.83 21.0629L276.814 16.1327L275.625 21.0665C272.928 22.963 270.324 22.9596 267.813 21.0563C267.707 17.8444 268.446 14.6609 269.957 11.8239C271.468 8.98695 273.697 6.59595 276.422 4.8899Z" fill="#2F2E41"/>
<path d="M273.66 317.053H267.242L266.096 310.998L263.162 317.053H246.139C245.323 317.053 244.529 316.793 243.872 316.309C243.214 315.826 242.729 315.146 242.486 314.367C242.243 313.589 242.256 312.753 242.522 311.982C242.788 311.212 243.294 310.546 243.965 310.083L257.559 300.701V294.579L271.857 295.432L273.66 317.053Z" fill="#2F2E41"/>
<path d="M357.834 309.651L351.623 311.269L348.986 305.698L347.676 312.297L331.203 316.588C330.414 316.794 329.579 316.742 328.821 316.44C328.063 316.138 327.422 315.602 326.99 314.91C326.559 314.218 326.36 313.406 326.423 312.593C326.486 311.78 326.807 311.008 327.34 310.391L338.126 297.886L336.581 291.962L350.632 289.184L357.834 309.651Z" fill="#2F2E41"/>
<path d="M347.684 272.346L321.171 217.893L312.848 151.616C318.586 140.967 307.929 119.297 307.929 119.297V110.198L266.646 117.981C258.202 140.995 254.107 165.376 254.57 189.883L256.233 277.983H255.711C254.846 277.983 254.015 278.327 253.403 278.939C252.79 279.55 252.446 280.38 252.446 281.246C252.446 282.111 252.79 282.941 253.403 283.553C254.015 284.165 254.846 284.508 255.711 284.508H272.037C272.903 284.508 273.733 284.165 274.345 283.553C274.958 282.941 275.302 282.111 275.302 281.246C275.302 280.38 274.958 279.55 274.345 278.939C273.733 278.327 272.903 277.983 272.037 277.983H271.616L283.335 165.905L296.962 221.212L329.893 272.136C329.053 272.202 328.271 272.59 327.712 273.219C327.152 273.849 326.858 274.67 326.892 275.512C326.926 276.353 327.285 277.148 327.893 277.731C328.501 278.313 329.312 278.638 330.154 278.635H346.48C347.239 278.636 347.975 278.372 348.56 277.889C349.146 277.406 349.544 276.734 349.687 275.989C349.829 275.243 349.707 274.472 349.342 273.807C348.976 273.142 348.39 272.625 347.684 272.346Z" fill="#2F2E41"/>
<path d="M311.662 124.875C311.526 124.342 311.225 123.867 310.802 123.516C310.379 123.165 309.856 122.956 309.307 122.921C308.763 116.704 305.168 76.8324 305.031 75.6627L305.026 75.6133L303.984 53.3891C303.947 52.582 303.613 51.8171 303.046 51.2405C302.48 50.6638 301.721 50.316 300.914 50.2632L295.415 49.9041C295.339 49.9015 295.268 49.8698 295.215 49.8156C295.163 49.7614 295.134 49.6889 295.134 49.6135C295.134 49.0067 295.014 48.4058 294.782 47.8451C294.549 47.2845 294.209 46.7751 293.779 46.346C293.35 45.9169 292.84 45.5766 292.279 45.3443C291.718 45.1121 291.117 44.9926 290.509 44.9926H274.229C273.175 44.993 272.157 45.378 271.366 46.0753C270.575 46.7726 270.067 47.7343 269.935 48.7798C269.928 48.8518 269.894 48.9184 269.84 48.9663C269.785 49.0142 269.715 49.04 269.643 49.0383L269.641 49.0383C267.791 49.0002 265.989 49.626 264.561 50.8023C263.133 51.9785 262.175 53.6271 261.86 55.4491C259.634 68.3896 255.174 97.7598 257.379 114.088C258.147 119.772 257.798 128.321 257.508 133.077C257.479 133.536 257.541 133.997 257.691 134.433C257.84 134.868 258.074 135.27 258.38 135.615C257.73 135.802 257.179 136.234 256.842 136.819C256.505 137.404 256.409 138.097 256.573 138.752C256.743 139.423 257.172 140 257.767 140.355C258.361 140.71 259.073 140.814 259.745 140.645L309.767 128.044C310.439 127.875 311.016 127.446 311.371 126.851C311.726 126.257 311.831 125.546 311.662 124.875Z" fill="#3F3D56"/>
<path d="M228.987 218.308C228.978 216.848 228.452 215.439 227.502 214.331C226.552 213.222 225.24 212.485 223.799 212.251L135.111 197.698C134.26 197.557 133.39 197.596 132.555 197.811L111.771 203.182L99.845 206.267L77.8369 211.952C76.5083 212.297 75.3319 213.073 74.4919 214.157C73.652 215.242 73.1961 216.575 73.1957 217.947V310.813C73.2023 312.228 73.6919 313.6 74.5836 314.7C75.4752 315.8 76.7157 316.563 78.1002 316.864L168.435 315.842C168.859 315.933 169.292 315.978 169.726 315.976C170.358 315.977 170.986 315.881 171.589 315.692L225.26 317.027C226.526 316.632 227.632 315.839 228.412 314.767C229.192 313.695 229.606 312.399 229.591 311.073L228.987 218.308Z" fill="white"/>
<path d="M228.987 218.308C228.978 216.848 228.452 215.439 227.502 214.331C226.552 213.222 225.24 212.485 223.799 212.251L135.111 197.698C134.26 197.557 133.39 197.596 132.555 197.811L111.771 203.182L99.845 206.267L77.8369 211.952C76.5083 212.297 75.3319 213.073 74.4919 214.157C73.652 215.242 73.1961 216.575 73.1957 217.947V310.813C73.2023 312.228 73.6919 313.6 74.5836 314.7C75.4752 315.8 76.7157 316.563 78.1002 316.864L168.435 315.842C168.859 315.933 169.292 315.978 169.726 315.976C170.358 315.977 170.986 315.881 171.589 315.692L225.26 317.027C226.526 316.632 227.632 315.839 228.412 314.767C229.192 313.695 229.606 312.399 229.591 311.073L228.987 218.308ZM224.795 315.551L171.125 316.827C170.359 317.065 169.545 317.104 168.76 316.941L78.4203 315.353C77.3823 315.126 76.4524 314.553 75.7842 313.728C75.1159 312.903 74.7492 311.874 74.7445 310.813V217.947C74.7452 216.996 75.0376 216.068 75.5822 215.289C76.1268 214.509 76.8976 213.916 77.7904 213.587C77.9322 213.534 78.077 213.489 78.2241 213.453L101.507 207.438L115.276 203.878L132.942 199.313C133.321 199.212 133.712 199.161 134.104 199.163C134.356 199.163 134.608 199.184 134.858 199.225L223.546 213.778C224.259 213.895 224.936 214.177 225.522 214.6C226.108 215.024 226.587 215.578 226.922 216.218C227.257 216.868 227.434 217.587 227.438 218.318L228.042 311.084C228.053 312.078 227.744 313.05 227.159 313.855C226.574 314.659 225.745 315.254 224.795 315.551Z" fill="#CCCCCC"/>
<path d="M226.922 216.218C226.862 216.258 226.795 216.288 226.726 216.306L169.421 231.783C169.355 231.799 169.288 231.808 169.22 231.809C169.173 231.808 169.127 231.804 169.08 231.798L75.9474 214.831L75.6377 214.774C75.4359 214.736 75.2574 214.62 75.1411 214.451C75.0247 214.282 74.9801 214.074 75.017 213.872C75.0538 213.67 75.1691 213.491 75.3377 213.374C75.5062 213.257 75.7143 213.211 75.9165 213.247L77.7904 213.587L169.189 230.24L189.096 224.865L200.231 221.857L225.915 214.918L226.323 214.81C226.499 214.764 226.686 214.78 226.852 214.858C227.017 214.935 227.149 215.068 227.227 215.233C227.247 215.273 227.262 215.314 227.273 215.357C227.316 215.519 227.304 215.691 227.241 215.846C227.178 216.001 227.066 216.132 226.922 216.218Z" fill="#CCCCCC"/>
<path d="M169.994 316.157C169.57 316.157 169.224 315.815 169.22 318L168.445 233.652C168.441 230.615 168.785 230.265 169.213 230.261H169.22C169.644 230.261 169.99 230.603 169.994 233.638L170.769 317.986C170.773 315.803 170.429 316.153 170.001 316.157H169.994Z" fill="#CCCCCC"/>
<path d="M200.859 317.135L192.519 317.224L189.096 224.865L101.76 207.5C101.675 207.485 101.59 207.464 101.507 207.438C100.836 207.247 100.25 206.834 99.845 206.267L111.771 203.182L115.276 203.878L198.146 220.351C198.582 220.437 198.994 220.616 199.354 220.876C199.714 221.136 200.013 221.471 200.231 221.857C200.49 222.306 200.854 316.599 200.859 317.135Z" fill="#CCCCCC"/>
<path d="M267.663 49.2601C267.656 48.1602 267.26 47.0983 266.544 46.2628C265.828 45.4273 264.839 44.872 263.753 44.6955L196.913 33.7274C196.272 33.6214 195.616 33.6506 194.987 33.813L179.323 37.8604L170.335 40.1854L153.749 44.47C152.747 44.7299 151.861 45.3145 151.228 46.1321C150.595 46.9497 150.251 47.9542 150.251 48.9879V103.731C150.256 104.798 150.625 105.832 151.297 106.661C151.969 107.49 152.904 108.065 153.947 108.292L222.028 122.767C222.348 122.836 222.674 122.87 223.001 122.868C223.477 122.869 223.951 122.797 224.405 122.654L264.854 109.89C265.809 109.592 266.642 108.995 267.23 108.187C267.818 107.378 268.13 106.402 268.119 105.403L267.663 49.2601Z" fill="white"/>
<path d="M196.156 37.7475C196.107 37.7475 196.059 37.7537 196.012 37.7662L154.773 48.4233C154.648 48.4556 154.537 48.5286 154.458 48.6306C154.379 48.7327 154.336 48.8581 154.336 48.9871V103.73C154.337 103.863 154.383 103.992 154.466 104.096C154.55 104.199 154.667 104.271 154.798 104.3L222.879 118.774C222.977 118.795 223.08 118.79 223.176 118.76L263.625 105.996C263.744 105.959 263.848 105.884 263.922 105.783C263.995 105.682 264.034 105.56 264.032 105.436L263.579 49.2928C263.578 49.1554 263.528 49.0228 263.439 48.9185C263.349 48.8142 263.226 48.7449 263.09 48.7229L196.25 37.7551C196.219 37.7502 196.188 37.7476 196.156 37.7475Z" fill="#F59E0B"/>
<path d="M267.663 49.2601C267.656 48.1602 267.26 47.0983 266.544 46.2628C265.828 45.4273 264.839 44.872 263.753 44.6955L196.913 33.7274C196.272 33.6214 195.616 33.6506 194.987 33.813L179.323 37.8604L170.335 40.1854L153.749 44.47C152.747 44.7299 151.861 45.3145 151.228 46.1321C150.595 46.9497 150.251 47.9542 150.251 48.9879V103.731C150.256 104.798 150.625 105.832 151.297 106.661C151.969 107.49 152.904 108.065 153.947 108.292L222.028 122.767C222.348 122.836 222.674 122.87 223.001 122.868C223.477 122.869 223.951 122.797 224.405 122.654L264.854 109.89C265.809 109.592 266.642 108.995 267.23 108.187C267.818 107.378 268.13 106.402 268.119 105.403L267.663 49.2601ZM264.504 108.778L224.055 121.542C223.478 121.722 222.865 121.751 222.273 121.628L154.188 107.153C153.406 106.982 152.705 106.55 152.202 105.928C151.698 105.306 151.421 104.531 151.418 103.731V48.9879C151.418 48.2715 151.639 47.5724 152.049 46.9849C152.46 46.3974 153.041 45.9499 153.714 45.7025C153.82 45.6625 153.93 45.6287 154.04 45.6015L171.588 41.0681L181.965 38.3853L195.279 34.9444C195.564 34.8683 195.859 34.8303 196.154 34.8316C196.345 34.8316 196.535 34.8472 196.722 34.8783L263.562 45.8464C264.1 45.9346 264.61 46.1467 265.052 46.4659C265.494 46.7851 265.855 47.2026 266.107 47.6855C266.36 48.175 266.493 48.7172 266.496 49.2679L266.951 105.411C266.96 106.16 266.726 106.893 266.285 107.499C265.845 108.106 265.22 108.554 264.504 108.778Z" fill="#3F3D56"/>
<path d="M266.107 47.6855C266.062 47.7153 266.012 47.7376 265.959 47.7515L222.771 59.4156C222.722 59.4278 222.671 59.4343 222.62 59.435C222.584 59.4344 222.549 59.4318 222.515 59.4272L152.091 46.5968C151.939 46.5684 151.804 46.4808 151.716 46.3534C151.629 46.226 151.595 46.069 151.623 45.9168C151.651 45.7647 151.738 45.6297 151.865 45.5414C151.992 45.4532 152.149 45.4188 152.301 45.4459L153.714 45.7025L222.596 58.2531L237.599 54.2017L245.992 51.935L265.348 46.7056L265.656 46.624C265.789 46.589 265.93 46.6017 266.054 46.66C266.178 46.7183 266.278 46.8183 266.337 46.9428C266.352 46.9725 266.363 47.0038 266.372 47.0361C266.404 47.1584 266.395 47.2877 266.348 47.4048C266.3 47.5219 266.215 47.6204 266.107 47.6855Z" fill="#3F3D56"/>
<path d="M223.203 123.004C223.049 123.004 222.902 122.943 222.792 122.835C222.683 122.727 222.621 122.58 222.62 122.426L222.036 58.8571C222.035 58.7025 222.095 58.5536 222.203 58.4432C222.312 58.3329 222.459 58.2701 222.614 58.2686H222.62C222.773 58.2686 222.921 58.3293 223.03 58.4375C223.14 58.5458 223.202 58.6928 223.203 58.8465L223.787 122.416C223.788 122.57 223.728 122.719 223.62 122.83C223.511 122.94 223.363 123.003 223.208 123.004H223.203Z" fill="#3F3D56"/>
<path d="M246.299 115.271L240.179 116.923L237.599 54.2017L171.779 41.1147C171.714 41.1033 171.65 41.0877 171.588 41.0681C171.082 40.9242 170.641 40.6129 170.335 40.1854L179.323 37.8604L181.965 38.3853L244.42 50.7998C244.748 50.8646 245.059 50.9996 245.33 51.1955C245.601 51.3915 245.827 51.6437 245.992 51.935C246.186 52.2732 246.295 114.867 246.299 115.271Z" fill="#3F3D56"/>
<path d="M243.557 79.5097C243.87 79.7772 244.161 80.069 244.429 80.3823L281.092 76.1034L284.658 67.8811L297.779 71.6367L292.882 86.8057C292.487 88.0311 291.704 89.0953 290.652 89.8383C289.599 90.5814 288.334 90.9634 287.046 90.9268L245.068 89.7343C244.202 91.0633 242.953 92.0976 241.485 92.6996C240.017 93.3017 238.401 93.4429 236.851 93.1045C235.301 92.7661 233.89 91.9641 232.808 90.8053C231.725 89.6464 231.021 88.1856 230.789 86.6171C230.557 85.0486 230.809 83.4468 231.51 82.0247C232.212 80.6025 233.33 79.4276 234.716 78.656C236.102 77.8845 237.691 77.5529 239.27 77.7053C240.849 77.8578 242.344 78.4872 243.557 79.5097Z" fill="#FFB6B6"/>
<path d="M280.233 74.2057C280.034 73.768 279.931 73.2924 279.932 72.8114C279.934 72.3304 280.039 71.8554 280.241 71.4187L287.285 56.166C287.977 53.8041 289.578 51.8129 291.737 50.6289C293.896 49.445 296.437 49.1649 298.802 49.85C301.168 50.5352 303.164 52.1297 304.355 54.284C305.546 56.4383 305.833 58.9764 305.154 61.3419L302.834 78.035C302.767 78.5114 302.599 78.9679 302.34 79.3735C302.082 79.779 301.738 80.1241 301.334 80.3852C300.93 80.6463 300.474 80.8173 299.998 80.8865C299.522 80.9557 299.036 80.9216 298.574 80.7863L282.34 76.0323C281.878 75.8972 281.451 75.6641 281.087 75.3489C280.724 75.0336 280.432 74.6437 280.233 74.2057Z" fill="#3F3D56"/>
<path d="M403.22 317.815H0.775268C0.569445 317.814 0.372251 317.732 0.226923 317.586C0.0815946 317.441 0 317.243 0 317.038C0 316.832 0.0815946 316.635 0.226923 316.489C0.372251 316.344 0.569445 316.261 0.775268 316.261H403.22C403.426 316.261 403.624 316.343 403.77 316.488C403.916 316.634 403.998 316.832 403.998 317.038C403.998 317.244 403.916 317.442 403.77 317.587C403.624 317.733 403.426 317.815 403.22 317.815Z" fill="#CACACA"/>
<path d="M78.4323 235.257C91.3474 235.257 101.817 224.795 101.817 211.889C101.817 198.983 91.3474 188.52 78.4323 188.52C65.5172 188.52 55.0474 198.983 55.0474 211.889C55.0474 224.795 65.5172 235.257 78.4323 235.257Z" fill="#F59E0B"/>
<path d="M75.2421 224.051C74.8383 224.051 74.44 223.957 74.0788 223.776C73.7177 223.596 73.4035 223.334 73.1613 223.011L66.7816 214.51C66.3676 213.959 66.1899 213.266 66.2875 212.583C66.3851 211.901 66.75 211.285 67.3019 210.871C67.8538 210.458 68.5476 210.28 69.2305 210.378C69.9135 210.475 70.5297 210.84 70.9436 211.391L75.1174 216.952L85.8374 200.884C86.0264 200.599 86.2698 200.353 86.5538 200.162C86.8378 199.971 87.1566 199.838 87.4922 199.771C87.8277 199.703 88.1733 199.702 88.5091 199.768C88.845 199.835 89.1644 199.966 89.4492 200.156C89.7341 200.346 89.9786 200.59 90.1688 200.874C90.3591 201.158 90.4913 201.478 90.5579 201.813C90.6245 202.149 90.6242 202.494 90.557 202.829C90.4897 203.165 90.3569 203.484 90.1662 203.768L77.4067 222.893C77.1759 223.239 76.8655 223.525 76.5014 223.726C76.1374 223.927 75.7304 224.038 75.3145 224.05C75.2904 224.05 75.2662 224.051 75.2421 224.051Z" fill="white"/>
<path d="M178.004 87.7672C177.931 87.7671 177.859 87.759 177.788 87.743L157.545 83.1752C157.292 83.1178 157.072 82.9623 156.933 82.7429C156.795 82.5236 156.749 82.2582 156.806 82.0052C156.863 81.7521 157.018 81.5321 157.238 81.3934C157.457 81.2547 157.723 81.2086 157.976 81.2654L178.219 85.8332C178.454 85.8862 178.661 86.024 178.801 86.2201C178.941 86.4162 179.004 86.6569 178.977 86.8962C178.95 87.1355 178.836 87.3566 178.657 87.5173C178.478 87.678 178.245 87.767 178.004 87.7672Z" fill="white"/>
<path d="M100.096 271.612C100.025 271.626 99.9524 271.633 99.8797 271.632L79.1297 271.283C78.8703 271.278 78.6234 271.171 78.4432 270.984C78.263 270.797 78.1642 270.547 78.1685 270.288C78.1728 270.029 78.2799 269.782 78.4662 269.601C78.6525 269.421 78.9028 269.322 79.1622 269.325L99.9122 269.674C100.153 269.679 100.384 269.771 100.561 269.935C100.738 270.098 100.848 270.321 100.871 270.561C100.894 270.801 100.827 271.04 100.684 271.234C100.541 271.428 100.332 271.562 100.096 271.612Z" fill="#E6E6E6"/>
<path d="M107.279 282.705C107.208 282.72 107.136 282.726 107.063 282.725L86.3128 282.376C86.0534 282.371 85.8065 282.264 85.6263 282.077C85.4461 281.891 85.3473 281.64 85.3516 281.381C85.3559 281.122 85.463 280.875 85.6493 280.694C85.8356 280.514 86.0859 280.415 86.3453 280.419L107.095 280.768C107.336 280.772 107.567 280.864 107.744 281.028C107.921 281.191 108.031 281.414 108.054 281.654C108.077 281.894 108.01 282.133 107.867 282.327C107.725 282.521 107.515 282.656 107.279 282.705Z" fill="#E6E6E6"/>
</svg>
